<?xml version="1.0" encoding="UTF-8"?>
<!DOCTYPE svg PUBLIC "-//W3C//DTD SVG 1.1//EN" "http://www.w3.org/Graphics/SVG/1.1/DTD/svg11.dtd">
<!-- Creator: CorelDRAW 2018 (64-Bit) -->
<svg xmlns="http://www.w3.org/2000/svg" xml:space="preserve" width="300px" height="74px" version="1.1" shape-rendering="geometricPrecision" text-rendering="geometricPrecision" image-rendering="optimizeQuality" fill-rule="evenodd" clip-rule="evenodd"
viewBox="0 0 129.75 32.21"
 xmlns:xlink="http://www.w3.org/1999/xlink">
 <g id="Layer_x0020_1">
  <metadata id="CorelCorpID_0Corel-Layer"/>
  <g id="_1831625215136">
   <g>
    <path fill="#060506" d="M15.63 16.1c0.1,-0.76 1.05,-0.68 1.29,-0.03 0.38,0.42 0.14,0.88 -0.26,1.36 -0.46,-0.05 -0.76,-0.21 -0.85,-0.58 0.63,0.39 0.54,0.11 0.55,0.1 -0.33,-0.08 -0.59,-0.25 -0.84,-0.47l0.11 -0.38zm-3.46 -0.54c-0.41,-0.83 1.26,-2.94 1.78,-3.52l0.53 0.09c-0.09,0.31 -0.42,0.53 -0.64,0.79 -0.55,0.65 -1.2,1.98 -1.67,2.64zm2.61 -3.39c0.47,-0.75 2.04,-1.2 3.19,-1.22 0.24,0.24 0.3,0.25 0.39,0.6 -1.32,0 -1.71,0 -2.78,0.58 -0.4,0.21 -0.35,0.14 -0.8,0.04zm-1.36 -0.39c0.51,-0.89 1.85,-1.64 3.24,-2.16 0.02,0.01 0.05,0.03 0.06,0.04l0.33 0.26c0.27,0.24 0.09,-0.04 0.27,0.33 -0.84,0.26 -1.38,0.29 -2.11,0.75 -1.18,0.75 -1.03,1.04 -1.79,0.78zm1.92 -3.62l-0.09 0.29c0.14,0.07 0.55,0.37 0.64,0.54 -0.89,0.48 -1.94,1 -2.66,1.82 -0.27,0.3 -0.3,0.5 -0.72,0.81l-0.01 0.08 0.74 0.15c-0.61,0.78 -0.99,1.53 -1.49,2.62 -0.31,0.67 -0.52,0.76 -0.35,1.58 0.08,0.4 0.38,1.19 0.72,1.45 -0.04,-0.46 -0.1,-1.09 0.05,-1.48 0.19,0.32 0.36,1.49 1,2.05 -0.13,-0.59 -0.25,-0.83 -0.25,-1.49l0.39 0.47c0.3,0.6 0.65,1.03 0.72,1.17l-0.23 -1.15c0.22,0.55 0.53,0.93 1.02,1.17l-0.26 -0.43c-0.16,-0.65 -0.05,-0.16 0.09,-0.35 0.53,0.78 1.01,1.01 2.3,0.99 -0.51,0.28 -0.9,0.16 -1.55,0.13 0.17,0.22 -0.09,0.03 0.24,0.23 0.29,0.18 0.26,0 0.65,0.29 -0.8,0.16 -1.19,-0.12 -1.84,-0.42 0.23,0.45 0.39,0.39 0.71,0.77 -0.6,-0.09 -1.2,-0.52 -1.5,-0.88 -0.16,-0.05 -0.09,-0.02 -0.31,-0.17 0.15,0.53 0.5,0.82 0.74,1.22 -0.49,-0.1 -1.64,-1.35 -1.79,-1.61 0.05,0.56 0.32,1 0.47,1.5 -0.57,-0.3 -1.13,-1.09 -1.54,-1.8 -0.18,0.13 -0.17,-0.39 -0.14,0.37l0.14 0.65 0.22 0.68c-0.5,-0.28 -1.58,-1.86 -1.66,-2.37 -0.19,0.16 -0.17,0.23 -0.16,0.57l0.25 1.55c-0.42,-0.2 -0.78,-0.85 -1.03,-1.22 -0.27,-0.42 -0.63,-1.03 -0.73,-1.54l-0.03 -0.18c-0.38,0.07 -0.24,0.53 -0.2,1.38 0.02,0.4 0.18,1.04 -0.02,1.3 -0.1,-0.15 -0.13,-0.2 -0.23,-0.45 -0.38,-0.08 -1.77,-2.71 -1.98,-3.23 -0.05,0.11 -0.06,0.18 -0.12,0.34l-0.14 0.32c0.08,0.59 -0.11,1.51 -0.11,2.2 0,0.72 0.02,0.52 0.82,1.38l2.21 2.23 0.4 0.25c0.36,-0.02 -0.49,-1.35 -0.6,-2.68 0.31,0.14 1.3,1.48 2.55,2.47 0.25,-0.13 0.06,0.09 0.11,-0.28 -0.27,-0.33 -0.53,-1.12 -0.61,-1.64 0.46,0.2 0.79,0.66 1.16,0.97 0.4,0.33 0.76,0.59 1.21,0.85 0.3,-0.11 0.12,0.03 -0.37,-0.85 -0.17,-0.3 -0.4,-0.68 -0.42,-0.96 0.27,0.47 1.11,0.67 1.43,1.12 0.38,0.02 0.57,0.24 1.02,0.31 -0.37,-0.42 -0.59,-0.52 -0.9,-1.14 0.83,0.24 1.16,0.68 2.32,0.66l-1.17 -0.87c1,0.21 1.15,0.32 2.33,0.23 -0.06,-0.05 -0.07,-0.06 -0.18,-0.12l-0.7 -0.26c0.28,-0.17 0.54,-0.13 0.98,-0.24 0.39,-0.09 0.61,-0.19 0.93,-0.32l-0.96 -0.11c0.47,-0.21 1.38,-0.66 1.62,-1.11l-0.68 0.18c1.46,-1.28 0.78,-1.71 1.48,-2.59 0.16,0.93 -0.2,1.43 -0.5,2.16 0.47,-0.22 0.46,-0.38 0.79,-0.52 -0.06,0.26 -0.13,0.43 -0.24,0.63 -0.46,0.81 -1.39,1.01 -1.04,1.18l0.92 -0.3c-0.15,0.28 -0.5,0.59 -0.84,0.79 -0.38,0.23 -0.84,0.34 -1.09,0.58l1.27 -0.03c-0.54,0.59 -1.67,0.62 -2.58,0.8l1.5 0.51c-1.23,0.19 -1.46,0.17 -2.72,0.12 0.32,0.51 0.96,0.52 1.38,0.92 -0.76,0.09 -2.38,-0.07 -2.83,-0.49 -0.26,0.07 -0.27,-0.18 -0.16,0.23 0.35,0.22 0.95,0.87 1.43,1.23 -0.72,0.04 -2.82,-0.69 -3.05,-1.08 -0.07,0.02 -0.42,-0.09 0.01,0.54 0.15,0.2 0.22,0.29 0.37,0.49 0.26,0.35 0.6,0.63 0.74,1.02 -1.15,-0.11 -2.63,-1.36 -3.36,-2.04 -0.11,0.13 -0.1,-0.17 -0.06,0.36l1.19 2.4c-0.68,-0.04 -3.43,-2.33 -4.26,-2.52 0.06,0.79 0.54,1.48 0.6,2.1 0.32,0.32 0.57,1.35 0.56,1.67 -0.75,0.01 -1.06,-0.56 -1.78,-0.69 0.04,0.08 0.1,0.23 0.17,0.36l-0.05 0.08c0.51,0.31 0.73,0.9 1.38,1.22 0.37,-0.14 0.25,-0.21 0.69,-0.35 0.08,-0.57 1.31,0.08 1.66,0.21 0.45,0.18 1.36,0.59 1.64,0.81l0.13 0.04c0.39,0.08 1.02,0.4 1.37,0.29 -0.11,-0.31 -0.66,-0.93 -0.93,-1.29 -0.29,-0.41 -0.78,-0.94 -0.85,-1.54 1.26,0.45 0.49,0.4 2.47,0.84l1.72 0.08 -0.29 -0.41c-0.01,-0.01 -0.04,-0.04 -0.05,-0.06 -0.29,-0.06 -0.71,-0.43 -0.87,-0.57 -0.33,-0.28 -0.58,-0.41 -0.74,-0.83l1.22 0.2c0.48,0.02 0.96,0.06 1.44,0.05 0.21,-0.01 0.5,-0.03 0.71,-0.06 0.47,-0.07 0.45,0.01 0.5,-0.28 -0.32,0.01 -1.48,-0.54 -1.69,-0.71 -0.21,-0.17 -0.06,0.01 -0.21,-0.22l2.31 -0.11c0.25,-0.22 0.85,-0.3 1.17,-0.44 -0.29,-0.15 -0.36,-0.02 -0.6,-0.22 -0.31,0.02 -0.38,0 -0.69,-0.06 -0.34,-0.07 -0.36,-0.06 -0.58,-0.26 1.06,-0.18 2.32,-0.52 2.94,-1.14l-1.62 0.05c0.27,-0.28 0.92,-0.5 1.33,-0.77l0.9 -0.72c0.25,-0.3 0.28,-0.13 0.02,-0.22l-1.23 0.39 1.51 -1.57 0.21 -0.53c-0.39,0.16 -0.61,0.4 -1.06,0.58 0.14,-0.27 0.33,-0.48 0.47,-0.77 0.1,-0.21 0.28,-0.68 0.35,-0.77l0.11 -0.9c-0.4,0.32 -0.27,0.56 -0.72,0.85 0.13,-0.7 0.2,-1.66 -0.24,-2.26l-0.36 0.5c-0.16,-0.35 -0.42,-1.2 -1.23,-1.42 -0.54,-0.14 -0.23,-0.02 -0.33,0.04l-0.36 0.25 -0.33 -0.18c0.01,-0.02 0.04,-0.03 0.06,-0.04 0.49,-0.38 0.17,0.2 0.32,-0.25 0.01,-0.04 0.04,-0.04 0.05,-0.05l-0.27 -0.22c0.51,-0.12 0.98,0.08 1.35,0.28 0.19,0.1 0.33,0.2 0.52,0.32 0.5,0.32 0.39,0.19 0.34,0.31 0,-0.4 0,-0.48 0.23,-0.69 0.2,0.25 0.12,0.05 0.28,0.41 0.15,0.19 0.32,0.53 0.44,0.92 0.1,0.31 0.12,0.87 0.3,1.14l0.48 -1.01 0.07 0.31c0.19,0.94 -0.07,1.58 -0.28,2.41 0.21,-0.19 0.78,-0.67 0.94,-0.78 -0.11,0.73 -0.39,1.3 -0.76,1.88l-0.44 0.47c-0.05,0.22 0.17,-0.02 -0.11,0.21 0.28,0 0.49,-0.13 0.76,-0.28 0.13,-0.07 0.24,-0.14 0.37,-0.21 0.32,-0.17 0.25,-0.28 0.3,-0.01l0.42 -0.37c-0.26,-0.17 -0.27,0.28 -0.1,-0.36 0,-0.01 0.13,-0.29 0.15,-0.33 0.24,-0.57 0.65,-1.9 0.3,-2.38 -0.12,0.38 -0.47,0.8 -0.74,1l0.03 -1.44c-0.3,-0.46 -0.21,-1.1 -0.69,-1.48 -0.06,0.35 -0.1,0.8 -0.26,1.03 -0.3,-0.47 -0.39,-0.75 -0.7,-1.15 -0.27,-0.35 -0.54,-0.56 -0.96,-0.86 -0.32,0.01 -0.14,-0.11 -0.18,0.2 0,0.02 0.05,0.36 0.06,0.42 -1.01,-0.66 -1.37,-0.61 -2.71,-0.36 0.07,0.28 0.08,0.19 0.25,0.33 -1.86,0.61 -1.46,0.88 -2.16,1.32l0.08 0.25c0.08,0.37 -0.02,0.35 0,0.67l0.32 -0.41c-0.08,0.22 -0.12,0.29 -0.21,0.53l-0.12 0.28c-0.42,0.55 -0.22,0.14 -0.3,1.16 -0.29,-0.26 -0.23,-0.33 -0.25,-0.77 -0.03,-1.03 -0.11,-0.73 -0.13,-0.88 -0.01,-0.05 -0.03,-0.05 -0.05,-0.07l-0.25 1.05 -0.14 -0.31c-0.03,-0.1 -0.04,-0.23 -0.05,-0.34 -0.03,-0.26 -0.01,-0.49 -0.02,-0.75 -0.23,0.02 -0.44,0.91 -0.52,1.18l-0.1 -1c0.24,-0.22 0.19,-0.07 0.39,-0.35 0.07,-0.09 0.17,-0.3 0.24,-0.41 0.11,-0.19 0.15,-0.27 0.27,-0.48 0.23,-0.39 0.03,-0.07 0.29,-0.37 0.57,-0.64 0.97,-1.15 1.65,-0.93 -0.23,0.3 -1.62,1.07 -2,2.29l0.09 -0.02c0.4,-0.25 0.37,-0.04 0.68,-0.45 0.49,-0.64 1.02,-1.12 1.87,-1.42 -0.17,-0.35 -0.14,-0.11 -0.39,-0.4 1.26,-0.77 2.46,-0.17 3.07,-0.2l-0.32 -0.6c0.38,0.01 0.84,0.12 1.09,0.38 0.56,0.11 0.93,0.67 1.14,0.96 0.03,0.04 0.16,0.18 0.19,0.21 0.15,0.15 -0.02,0.02 0.2,0.15l0.03 -1.02c0.26,0.01 0.11,-0.02 0.3,0.22 0.12,0.13 0.17,0.21 0.24,0.32 0.2,0.28 0.31,0.45 0.41,0.81 0.21,0.22 0.37,0.76 0.34,1.16l0.25 0.3c0.06,-0.19 0.41,-0.98 0.54,-1.18l0.18 0.38c0.33,1.15 -0.02,2.5 -0.02,2.69 0,0.29 -0.13,0.19 0.12,0.3 0.04,-0.23 0.32,-0.41 0.51,-0.61 0.2,-0.22 0.26,-0.35 0.6,-0.52 -0.02,0.91 -0.35,2.01 -0.72,2.66 -0.09,0.29 -0.12,0.3 -0.22,0.54 -0.23,0.54 -0.17,0.24 0.02,0.36 0.01,-0.02 1.54,-0.96 1.66,-1.02 -0.46,1.76 -1.57,2.78 -2.04,3.55l2.46 -0.78c0.33,-0.4 0.5,-1.01 0.82,-1.48 0.21,0.09 0.1,0.05 0.25,0.23 0.02,0.02 0.06,0.09 0.08,0.11 0.1,0.12 0.04,0.07 0.14,0.15 0.51,-0.51 2.08,-2.56 2.11,-3.36 -0.15,-0.19 -0.07,-0.03 -0.1,-0.29 -0.09,-0.32 -0.44,-0.6 -0.7,-0.86 -0.24,-0.24 -0.51,-0.57 -0.75,-0.64l-0.06 0.19c-0.08,1.43 0,1.36 -0.66,1.89 -0.46,0.37 -0.76,0.73 -1.35,1.01 0.23,-1.4 0.41,-1.98 0.36,-3.55l0.02 -0.33c-0.3,0 -0.15,-0.06 -0.4,0.28 -0.22,0.3 -0.57,0.93 -0.87,1.04 0,-0.72 -0.03,-1.28 -0.21,-1.95 -0.12,-0.44 -0.53,-1.32 -0.54,-1.55 -0.1,-0.06 -0.14,-0.02 -0.2,-0.11l-0.16 0.24c0.01,0.37 -0.14,0.87 -0.33,1.13 -0.15,-0.24 -0.21,-0.47 -0.36,-0.75 -0.16,-0.32 -0.3,-0.45 -0.35,-0.71l-0.12 -0.1c-0.49,-0.46 -0.7,-0.83 -1.4,-1.12l0.05 0.97 -1.12 -0.63c-1.63,-0.98 -1.59,-0.01 -2.37,-0.86 -0.29,-0.31 -0.11,0 -0.26,-0.35 0.55,-0.07 1.46,-0.11 1.91,0.11 0.63,0.04 1.21,0.36 1.73,0.56l-0.21 -1.01c0.78,0.15 1.92,1.09 2.4,1.67 0.65,0.77 0.19,0.57 0.7,0.65 -0.02,-0.17 -0.05,0.01 -0.01,-0.27 0.02,-0.18 0.04,-0.12 0.1,-0.2l0.03 -0.91c0.45,0.15 0.74,0.7 0.97,1.09 0.21,0.35 0.51,0.86 0.54,1.29 0.06,0.07 0.07,0.07 0.12,0.19 0.01,0.03 0.02,0.05 0.03,0.07 0.15,0.37 0.05,0.63 0.39,0.9l0.02 -0.07c0.11,-0.28 0.68,-1.41 0.86,-1.63 0.23,0.24 0.35,0.74 0.43,1.08 0.1,0.47 0.17,0.83 0.21,1.31l0.25 -0.22c-0.03,-0.64 0.13,-1.55 0.09,-2.35 -0.27,-0.26 -0.11,0.16 -0.24,-0.46 0,0 0.01,-0.35 0.01,-0.38 -0.27,-0.13 -0.1,-0.08 -0.17,-0.26 -0.27,-0.29 -0.84,-0.47 -1.27,-0.64 -1.12,-0.43 -1.27,-1.34 -1.79,-2.05 -0.21,-0.29 -0.48,-0.7 -0.75,-0.9l-0.1 -0.05c-0.3,0.01 -0.19,0.19 -0.25,-0.1 -0.39,-0.11 -0.95,-0.06 -1.26,0.07l0.27 0.17c0.49,0.26 1.02,0.34 1.72,0.95l-0.03 1.72c-0.4,-0.14 -1.82,-1.82 -3.8,-1.94l0.32 1.08 -0.59 -0.18c-1.72,-0.28 -1.87,-0.14 -3.46,0.1 -0.1,-0.11 -0.16,-0.16 -0.28,-0.29l-0.26 -0.3c0.68,-0.48 1.97,-0.58 2.9,-0.57l1.27 0.07c-0.13,-0.59 -0.37,-0.81 -0.58,-1.18 -0.5,-0.24 -1.16,-0.56 -1.73,-0.53l-0.28 0.06c-0.59,0 -1.98,1.29 -2.34,1.31z"/>
    <path fill="#060503" d="M22.28 18.55l-0.42 0.37 -0.18 0.23c-0.81,1.21 -1.58,1.62 -1.89,2.01l0.41 0.04c0.02,-0.02 0.05,-0.03 0.07,-0.04 0.02,-0.01 0.05,-0.03 0.07,-0.04l1.15 -0.28c-0.32,0.39 -0.79,0.81 -1.3,1.14 -0.27,0.17 -0.46,0.3 -0.75,0.46 -0.26,0.14 -0.6,0.25 -0.73,0.5l2 -0.03c-0.1,0.13 -0.03,0.06 -0.15,0.17 -0.02,0.02 -0.11,0.09 -0.11,0.09 -0.11,0.08 -0.19,0.11 -0.35,0.18 -0.46,0.35 -1.99,1.1 -2.68,1.06 -0.15,0.19 0.15,0.03 -0.18,0.22l2.31 0.56c-0.51,0.31 -1.37,0.59 -2.02,0.77 -0.87,0.25 -1.08,0.21 -1.75,0.33 -0.32,0.06 -0.41,-0.03 -0.37,0.23 0.74,0.09 1.87,1.14 3.12,0.99l0.8 -0.27 -0.37 1.77 1.5 -0.08 1.64 -0.22c0.02,-0.02 0.05,-0.04 0.06,-0.05l0.51 -0.19c0.28,-0.07 1.38,-0.26 1.46,-0.57l-0.13 -2.24 -0.31 0.08c-0.79,0.1 -1.65,0.75 -2.72,0.76 0.14,-0.21 1.36,-1.04 1.54,-1.05 -0.03,-0.31 0.02,-0.22 -0.5,-0.23l-2.03 -0.09c0.09,-0.18 1.33,-0.88 1.53,-0.93l0.26 -0.26c0.09,-0.08 0.17,-0.13 0.27,-0.2 0.2,-0.16 0.29,-0.25 0.46,-0.39 0.27,-0.23 0.63,-0.51 0.81,-0.88 -0.54,0.04 -1.82,0.48 -2.2,0.29 0.52,-0.44 0.94,-0.79 1.33,-1.24 0.15,-0.18 1.1,-1.37 1.13,-1.38 -0.1,-0.16 0.18,-0.27 -0.36,-0.02l-1.35 0.5c0.18,-0.39 0.41,-0.55 0.64,-0.92 0.18,-0.3 0.3,-0.66 0.55,-0.9l0.34 -1.01c-0.1,-0.24 0.07,-0.18 -0.24,0.02l-0.87 0.74z"/>
    <path fill="#060503" d="M12.12 7.44c-0.28,0.34 -0.18,-0.01 -0.41,0.44 -0.11,0.21 -0.11,0.27 -0.24,0.51 -0.17,0.31 -0.34,0.63 -0.49,0.96 -0.07,0.26 -0.18,0.52 -0.27,0.72 -0.01,0.02 -0.13,0.35 -0.13,0.36 -0.03,0.57 -0.17,0.22 0.15,0.36 0.24,-0.52 1.58,-1.22 1.84,-1.28 -0.14,0.14 -0.25,0.37 -0.35,0.58 -0.15,0.32 -0.12,0.45 -0.38,0.68 -0.02,0.48 -0.69,1.52 -1,2.04 -0.24,0.4 -0.26,0.37 -0.78,0.37 -0.01,-0.65 0.11,-0.94 0.16,-1.48l0.16 -0.46c-0.11,-0.21 0.1,-0.3 -0.26,0 -0.3,0.26 -1.19,1.54 -1.36,1.92 -0.07,-0.46 -0.07,-2.28 0.24,-2.71 -0.05,-0.29 0.03,-0.28 0,-0.43 -0.08,-0.51 0.24,-0.21 -0.2,-0.39 0,0.01 -1.41,1.7 -1.48,1.76 -0.12,0.34 -0.03,0.24 -0.3,0.43 -0.34,-0.58 0.27,-3.5 0.31,-4.17 -0.48,0.13 -1.16,0.9 -1.55,1.32 -0.09,0.1 -0.14,0.17 -0.22,0.25 -0.21,0.21 -0.06,0.1 -0.32,0.25 -0.02,0.23 -0.15,0.34 -0.31,0.47 -0.22,0.5 -0.14,1.32 -0.07,1.96l0.15 0.88 0.33 1.81c0.12,0.1 0.13,0.04 0.28,0.22 0.11,-0.37 0.65,-1.64 0.65,-1.79 0.38,-0.33 0.38,-0.77 0.74,-0.94 0.21,1.04 -0.01,1.35 0.47,2.9 0.04,0.13 0.09,0.3 0.14,0.42 0.05,0.12 0.05,0.12 0.1,0.2 0.08,0.13 0.07,0.11 0.14,0.19l0.07 -0.17c0.01,-0.02 0.05,-0.12 0.07,-0.15 0.09,-0.22 -0.05,-0.07 0.1,-0.24 -0.01,-0.69 0.33,-1.14 0.48,-1.69 0.19,0.22 0.64,2.48 0.64,2.5 0.26,0.23 0.17,0.25 0.33,0.53 0.22,-0.45 0.16,-1.33 0.44,-1.84 0.02,1.21 -0.04,0.65 0.3,1.03 0.18,0.2 0.4,0.98 0.42,1.2 0.51,0.31 0.13,0.08 0.28,-0.01 -0.03,-0.56 -0.02,-0.98 0.12,-1.49l-0.2 -0.12c-0.14,-0.16 -0.13,0.03 0.16,-0.71 0.13,-0.37 0.27,-0.74 0.41,-1.07l0.79 -1.38c0.18,-0.27 0.19,-0.23 0.23,-0.48l0.01 -0.08 -0.72 -0.08c0.28,-0.85 2.37,-2.77 2.85,-2.97 -0.52,0.02 -1.26,0.43 -1.73,0.61 0.14,-0.34 0.69,-1.22 1,-1.38 0.13,-0.39 0.55,-0.7 0.77,-1.06l-0.38 0.04 -2.18 0.66z"/>
    <path fill="#0D0A09" d="M21.27 2.51c-0.12,0.44 0.26,0.29 1.45,1.09 0.29,0.19 0.45,0.3 0.72,0.49 0.29,0.21 0.57,0.33 0.64,0.7l-3.05 0.64c0.13,0.32 -0.15,0.04 0.64,0.53 0.47,0.3 1.6,1.06 1.82,1.45l-0.02 0.21c0.06,0.29 -0.05,0.11 0.25,0.1l0 -0.17c0.91,-0.14 1.98,0.16 2.88,0.16l-0.29 -0.68c-0.18,-0.11 -0.69,-0.87 -0.89,-1.08 -0.3,-0.33 -0.77,-0.73 -1.01,-1.07 0.02,-0.01 0.05,-0.06 0.06,-0.04 0.01,0.02 0.05,-0.03 0.06,-0.04 0.47,-0.2 2.24,-0.24 3.08,-0.27 -1.17,-1.11 -2.5,-2.05 -3.96,-2.79l-2.38 0.77z"/>
    <path fill="#0D0A09" d="M27.33 7.89l-0.48 -0.04c0.15,0.51 0.44,0.98 0.64,1.54 0.21,0.56 0.39,1.21 0.46,1.85 -0.16,0.16 -0.01,0.07 -0.32,0.12 0.07,0.18 -0.1,0.13 0.17,0.26 0,0.03 -0.01,0.38 -0.01,0.38 0.13,0.62 -0.03,0.2 0.24,0.46l-0.04 -0.92c0.71,0.09 1.73,1.03 2.46,1.24l-0.04 -2.38 -0.34 -1.78c0.24,0.02 0.48,0.06 0.72,0.13 -0.46,-0.88 -1,-1.71 -1.61,-2.48 0.03,0.05 0.06,0.1 0.08,0.14 0.25,0.52 0.66,1.39 0.72,2.1l-2.65 -0.62z"/>
    <path fill="#A6A997" d="M1.54 23.5l0.6 -0.46c0.16,-0.18 0.09,-0.15 0.32,-0.27 0.36,-0.19 1.23,-0.25 1.42,-0.18 0.42,0.17 0.03,0.07 0.62,0.62 0.93,0.86 0.2,0.13 0.7,0.81 0.36,0.49 1.2,0.46 1.46,1.66 -0.61,-0.05 -0.37,-0.19 -1.03,-0.36 0.19,0.31 1.03,0.68 1.44,0.76 -0.04,-0.62 -0.26,-0.86 -0.33,-1.44 -0.06,-0.62 -0.54,-1.31 -0.6,-2.1 0.83,0.19 3.58,2.48 4.26,2.52l-1.19 -2.4 -0.49 -0.72 -0.4 -0.25c-0.69,-0.05 -1.68,-1.91 -2.38,-1.6 -0.1,-0.57 -0.32,-0.62 -0.44,-0.96 0,0.92 0.27,2.5 0.26,2.58 -0.06,0.35 -0.04,0.2 -0.14,0.33 -0.24,-0.11 -3.01,-2.55 -3,-2.99 -0.73,-0.29 -0.34,-0.68 -0.94,-0.76 -0.19,0.44 -0.09,2.83 -0.1,3.63 -0.01,0.62 0,0.68 0.22,1.12l-0.38 0.2c0.04,0.09 0.08,0.17 0.12,0.26z"/>
    <path fill="#0A0907" d="M26.15 21.81l-0.09 0.12c-0.27,0.28 -0.28,0.18 -0.62,0.62 -0.23,0.29 -0.41,0.52 -0.63,0.78 -0.74,0.85 -0.83,0.57 -0.72,2.07l0.33 -0.03 1.87 -1.04c0.47,-0.3 1.45,-1.15 1.79,-1.24 0.37,0.49 0.76,1.76 0.98,2.43 0.37,-0.08 0.86,-0.41 1.36,-0.84 0.75,-1.29 1.34,-2.69 1.73,-4.16 -0.27,-0.42 -0.53,-0.85 -0.89,-1.07 -0.22,0.17 -1.21,1.54 -1.46,1.84 -0.27,0.31 -0.55,0.6 -0.82,0.87 -0.26,0.27 -0.48,0.61 -0.94,0.72l-0.9 -2.01c-0.34,0.23 -0.67,0.65 -0.99,0.94z"/>
    <path fill="#0E0D09" d="M5.57 28.61c-0.02,0.04 -0.04,0.07 -0.06,0.1 1.64,1.43 3.58,2.55 5.7,3.24 0.29,-0.36 0.65,-0.88 0.73,-1.24l-0.29 -0.34c-0.56,-0.05 -1.98,-0.93 -2.49,-1.24 -0.72,-0.46 -1.55,-1.2 -2.14,-1.54 -0.49,0.23 -1.08,0.93 -1.45,1.02z"/>
    <path fill="#0A0907" d="M1.72 8.89c0.02,0.22 0.02,0.46 0.07,0.77 0.17,0.96 0.52,3.58 0.92,3.93 0.27,-0.19 1.12,-2.19 1.48,-2.62 0.35,-0.76 0.47,-0.27 0.44,-1.31 -0.06,-2.41 0.37,-3.57 0.37,-4.72 -0.28,0.06 -0.71,0.39 -1.08,0.71 -0.85,0.98 -1.59,2.07 -2.2,3.24z"/>
    <path fill="#0A0907" d="M24.54 27.96c-0.29,0.4 -0.26,-0.04 -0.26,0.69l0.12 1.97c1.91,-1.09 3.57,-2.55 4.9,-4.29 -0.1,-0.23 -0.2,-0.41 -0.29,-0.51l-2.12 1.19c-0.45,0.22 -1.87,0.94 -2.35,0.95z"/>
    <path fill="#B5BA94" d="M24.42 25.37l-0.12 0.14c-0.02,0.01 -0.04,0.04 -0.05,0.06 -0.19,0.21 0.04,1.97 0.07,2.35l0.22 0.04c0.48,-0.01 1.9,-0.73 2.35,-0.95l2.12 -1.19c0.09,0.1 0.19,0.28 0.29,0.51 0.07,-0.09 0.14,-0.18 0.21,-0.28 -0.03,-0.1 -0.05,-0.18 -0.04,-0.2 0.01,-0.06 0.26,-0.29 0.59,-0.59 0.12,-0.19 0.24,-0.38 0.36,-0.58 -0.5,0.43 -0.99,0.76 -1.36,0.84 -0.22,-0.67 -0.61,-1.94 -0.98,-2.43 -0.34,0.09 -1.32,0.94 -1.79,1.24l-1.87 1.04z"/>
    <path fill="#0D0A09" d="M12.57 29.94c-0.03,0.23 0.01,0.21 -0.2,0.31 -0.04,0.42 -0.07,0.39 0.41,0.53 1.99,0.57 2.64,0.96 5.21,1.15l0.04 0.28 2.48 0c0.35,-0.09 0.7,-0.2 1.04,-0.31 -0.1,0.01 -0.2,0.02 -0.3,0.03 -1.11,0.07 -1.87,0.12 -2.95,0.03 -0.02,-0.52 0.25,-1.9 0.49,-2.28l0.11 -0.56c-0.47,-0.24 -3.37,-0.08 -4.24,-0.53l-1.09 -0.03c-0.19,0.31 -0.68,1.17 -1,1.38z"/>
    <path fill="#8A8C73" d="M0.9 10.77c0.01,0 0.03,0.01 0.04,0.01 0.58,0.17 0.96,0.07 0.81,1.07 -0.31,1.97 0.12,4.54 -0.25,5.1 -0.73,-0.11 -0.29,-0.29 -0.88,-0.51 0.12,0.39 0.59,1.17 0.97,1.29 0.07,-0.09 0.06,-0.04 0.12,-0.19 0.18,-0.44 0.02,-0.57 0.22,-0.8 -0.02,-0.59 0.44,-2.41 0.78,-2.68 0.12,0.14 1.07,2.56 1.78,3.54 0.13,0.18 0.24,0.32 0.36,0.5l0.24 0.32c0.38,0.43 0.11,0.37 0.29,1.88 0.04,0.37 0.11,1.13 0.38,1.41 0.01,-0.08 -0.26,-1.66 -0.26,-2.58 0.12,0.34 0.34,0.39 0.44,0.96 0.7,-0.31 1.69,1.55 2.38,1.6l-2.21 -2.23c-0.8,-0.86 -0.82,-0.66 -0.82,-1.38 0,-0.69 0.19,-1.61 0.11,-2.2 -0.01,0.02 -0.03,0.03 -0.04,0.07l-0.09 0.2c-0.05,0.15 -0.02,0.14 -0.1,0.27 -0.14,0.24 -0.23,0.26 -0.59,0.27 -0.46,-0.84 -0.51,-3.95 0.01,-4.85 0.33,0.32 0,0.55 0.42,0.94l-0.15 -0.88c-0.28,-0.31 -0.18,-0.8 -0.18,-1.4 -0.06,0.15 -0.12,0.13 -0.17,0.17 -0.03,0.02 -0.15,0.12 -0.17,0.13 -0.02,0.02 -0.04,0.05 -0.05,0.06l-0.1 0.11c-0.36,0.43 -1.21,2.43 -1.48,2.62 -0.4,-0.35 -0.75,-2.97 -0.92,-3.93 -0.05,-0.31 -0.05,-0.55 -0.07,-0.77 -0.31,0.61 -0.58,1.23 -0.82,1.88z"/>
    <path fill="#0A0907" d="M14.22 4.23c0.15,0.2 0,0.18 0.75,0.11 0.63,-0.05 1.99,-0.11 2.44,0.17 -0.23,0.25 -0.96,0.68 -1.3,0.95 -0.28,0.22 -0.42,0.31 -0.62,0.5 -0.23,0.22 -0.27,0.35 -0.53,0.42 0.16,0.37 -0.06,0.1 0.3,0.17l1.87 0.01c0.56,0.06 0.48,0.16 0.55,0.29l0.28 -0.06c0.21,-0.66 2.25,-0.87 2.7,-1.35 -0.57,-0.35 -2.24,-0.84 -3,-0.91 0.27,-0.49 2.52,-1.57 3.1,-1.75l-0.02 -0.27c-0.28,0.03 -0.95,-0.21 -1.12,-0.34l-2.32 -0.48c-0.64,0.01 -2.53,2.24 -3.08,2.54z"/>
    <path fill="#BDC19C" d="M22.1 28.71l-1.64 0.22c-0.01,0.08 0.04,0.17 -0.06,0.28l-1.21 0c-0.04,0.08 -0.06,0.14 -0.13,0.22 -0.16,0.19 -0.07,0.1 -0.27,0.25 -0.24,0.38 -0.51,1.76 -0.49,2.28 1.08,0.09 1.84,0.04 2.95,-0.03 0.1,-0.01 0.2,-0.02 0.3,-0.03 0.93,-0.32 1.82,-0.71 2.66,-1.18 0.04,-0.79 -0.07,-2.17 -0.16,-2.38 -0.68,-0.01 -1.24,0.41 -1.95,0.37z"/>
    <path fill="#C1C59C" d="M17.96 6.79c0.57,-0.03 1.23,0.29 1.73,0.53 0.32,0.11 1.53,0.35 1.83,0.33 0.37,-0.02 1.56,-0.17 1.97,-0.24 -0.22,-0.39 -1.35,-1.15 -1.82,-1.45 -0.79,-0.49 -0.51,-0.21 -0.64,-0.53l3.05 -0.64c-0.07,-0.37 -0.35,-0.49 -0.64,-0.7 -0.27,-0.19 -0.43,-0.3 -0.72,-0.49 -1.19,-0.8 -1.57,-0.65 -1.45,-1.09l-0.53 0 0.02 0.27c-0.58,0.18 -2.83,1.26 -3.1,1.75 0.76,0.07 2.43,0.56 3,0.91 -0.45,0.48 -2.49,0.69 -2.7,1.35z"/>
    <path fill="#F5F5DA" d="M4.64 25.13c0.05,0.12 0.21,0.44 0.29,0.56 0.27,0.39 0.21,-0.16 0.26,0.58 -0.7,0.01 -0.36,0 -0.64,-0.21l-0.87 -0.51c-0.53,-0.37 -0.23,0.06 -0.84,-0.59 -0.22,-0.23 -1.16,-0.33 -0.78,-1.27 0.06,-0.02 0.05,-0.04 0.28,-0.08 0.37,-0.06 0.49,0.01 0.7,0.12 1.11,0.58 1.49,1.31 1.6,1.4zm0.6 3.34c-1.52,-1.39 -2.78,-3.07 -3.69,-4.95 1.22,-0.35 0.52,-0.63 1.74,0.16 0.34,0.22 0.55,0.34 0.86,0.54 0.32,0.21 0.47,0.43 0.49,0.91 0.02,0.02 0.05,0 0.07,0.04 0.14,0.27 -0.27,-0.16 0.2,0.09 0.13,0.08 0.18,0.19 0.29,0.33 0.04,0.05 0.15,0.19 0.17,0.21 0.18,0.14 0.06,0.07 0.32,0.18l-0.05 0.08c0.06,0.63 0.55,0.52 0.74,1.2l0.03 0.27 -0.74 0.47c-0.01,0.01 -0.03,0.02 -0.04,0.03 -0.01,0 -0.03,0.02 -0.03,0.02 -0.09,0.09 -0.18,0.24 -0.36,0.42z"/>
    <path fill="#C2C5A3" d="M29.35 17.25c-0.03,0.8 -1.6,2.85 -2.11,3.36 -0.1,-0.08 -0.04,-0.03 -0.14,-0.15 -0.02,-0.02 -0.06,-0.09 -0.08,-0.11 -0.15,-0.18 -0.04,-0.14 -0.25,-0.23 -0.32,0.47 -0.49,1.08 -0.82,1.48 -0.03,0.45 -0.21,0.24 0.2,0.21 0.32,-0.29 0.65,-0.71 0.99,-0.94l0.9 2.01c0.46,-0.11 0.68,-0.45 0.94,-0.72 0.27,-0.27 0.55,-0.56 0.82,-0.87 0.25,-0.3 1.24,-1.67 1.46,-1.84 0.36,0.22 0.62,0.65 0.89,1.07 0.34,-1.33 0.52,-2.71 0.52,-4.14l0 0c-0.19,0.32 -0.43,1.03 -0.61,1.39 -0.21,0.43 -0.48,1.03 -0.8,1.36 -0.3,-0.12 -0.61,-0.62 -0.9,-0.99 -0.46,-0.56 -0.63,-0.94 -1.01,-0.89z"/>
    <path fill="#82846C" d="M3.92 5.65c0.37,-0.32 0.8,-0.65 1.08,-0.71 0,1.15 -0.43,2.31 -0.37,4.72 0.03,1.04 -0.09,0.55 -0.44,1.31l0.1 -0.11c0.01,-0.01 0.03,-0.04 0.05,-0.06 0.02,-0.01 0.14,-0.11 0.17,-0.13 0.05,-0.04 0.11,-0.02 0.17,-0.17 0,0.6 -0.1,1.09 0.18,1.4 -0.07,-0.64 -0.15,-1.46 0.07,-1.96 -0.27,-0.07 -0.06,-2.59 0.01,-2.91 0.02,-0.42 -0.01,-0.65 0.21,-0.96 0.38,0.16 0.28,0.21 0.66,0.38 0.44,0.19 0.32,0.17 0.64,0.39 0.24,-0.35 0.44,-0.72 0.76,-1.11 0.52,-0.65 0.12,-0.59 0.75,-0.85l-0.05 0.56c0.09,-0.09 0.05,-0.04 0.13,-0.19l0.33 -0.99c0.65,-1.82 0.57,-1.57 1.39,-1.81 0.37,-0.11 0.88,-0.22 1.11,-0.42l-0.39 -0.01c-0.1,0.08 -1,0.35 -1.13,0.34l0.1 -0.62c-0.26,0.21 -0.18,0.22 -0.36,0.61 -0.26,0.58 0.24,0.05 -1.65,0.98 -0.77,0.39 -1.55,0.94 -2.2,1.26 -0.01,-0.09 -0.01,-0.19 0,-0.29 -0.47,0.42 -0.91,0.87 -1.32,1.35z"/>
    <path fill="#080705" d="M9.45 1.74c0.06,-0.1 0.12,-0.21 0.17,-0.32 -1.61,0.72 -3.09,1.7 -4.38,2.88 -0.01,0.1 -0.01,0.2 0,0.29 0.65,-0.32 1.43,-0.87 2.2,-1.26 1.89,-0.93 1.39,-0.4 1.65,-0.98 0.18,-0.39 0.1,-0.4 0.36,-0.61z"/>
    <path fill="#CACDA4" d="M17.78 1.23c-0.08,0.2 0.07,0.16 -0.18,0.28 0.53,0.04 1.41,0.37 1.96,0.38 0.1,0.11 0.04,0.2 0.06,0.28 0.17,0.13 0.84,0.37 1.12,0.34l0.53 0 2.38 -0.77c-1.4,-0.7 -2.92,-1.21 -4.52,-1.49 -0.6,0.35 -1.22,0.72 -1.35,0.98z"/>
    <path fill="#CACDA4" d="M26.31 7.03c0.75,0.31 -0.09,0.08 0.78,0.69l0.24 0.17 2.65 0.62c-0.06,-0.71 -0.47,-1.58 -0.72,-2.1 -0.02,-0.04 -0.05,-0.09 -0.08,-0.14 -0.48,-0.62 -1.01,-1.2 -1.57,-1.74 -0.84,0.03 -2.61,0.07 -3.08,0.27 -0.01,0.01 -0.05,0.06 -0.06,0.04 -0.01,-0.02 -0.04,0.03 -0.06,0.04 0.24,0.34 0.71,0.74 1.01,1.07 0.2,0.21 0.71,0.97 0.89,1.08z"/>
    <path fill="#080705" d="M1.93 16.74c0.03,0.17 0.04,0.31 0.04,0.5 0,0.07 0,0.21 -0.01,0.28 -0.09,0.58 -0.23,0.2 0.25,0.8 0.28,0.35 0.26,0.28 0.41,0.73 -0.01,0.44 2.76,2.88 3,2.99 0.1,-0.13 0.08,0.02 0.14,-0.33 -0.27,-0.28 -0.34,-1.04 -0.38,-1.41 -0.18,-1.51 0.09,-1.45 -0.29,-1.88l-0.24 -0.32c-0.12,-0.18 -0.23,-0.32 -0.36,-0.5 -0.71,-0.98 -1.66,-3.4 -1.78,-3.54 -0.34,0.27 -0.8,2.09 -0.78,2.68z"/>
    <path fill="#C1C59C" d="M13.35 1.26c-0.27,0.08 -0.03,0 -0.34,0.12 -1.28,0.48 -1.52,-0.01 -2.39,0.54l-0.14 0.1 0.39 0.01c0.55,0.02 1.25,-0.29 1.99,-0.29 -0.2,0.65 -1.81,2.55 -2.09,3.61l0.22 0.06 0.08 -0.07c0.49,-0.3 1.69,-0.52 2.31,-0.74 0,-0.53 0.05,-0.17 0.35,-0.28 0.03,-0.02 0.45,-0.09 0.49,-0.09 0.55,-0.3 2.44,-2.53 3.08,-2.54l2.32 0.48c-0.02,-0.08 0.04,-0.17 -0.06,-0.28 -0.55,-0.01 -1.43,-0.34 -1.96,-0.38 0.25,-0.12 0.1,-0.08 0.18,-0.28 -0.65,0.25 -0.25,0.36 -0.97,0.28l-2.4 -0.08c-1.23,0.05 -0.91,0.13 -1.06,-0.17z"/>
    <path fill="#0A0907" d="M10.87 2.03c-0.23,0.2 -0.74,0.31 -1.11,0.42 -0.82,0.24 -0.74,-0.01 -1.39,1.81l-0.33 0.99c-0.08,0.15 -0.04,0.1 -0.13,0.19 0.02,0.31 -0.2,0.97 -0.3,1.27l-0.05 0.32c0.16,0.22 -0.07,0.07 0.27,0.11 0.28,-0.41 1.89,-1.23 2.47,-1.45 0.14,0.17 0.11,-0.14 0.09,0.37 0.02,-0.01 0.06,-0.07 0.07,-0.05l0.53 -0.6 -0.22 -0.06c0.28,-1.06 1.89,-2.96 2.09,-3.61 -0.74,0 -1.44,0.31 -1.99,0.29z"/>
    <path fill="#0A0907" d="M29.25 16.96c0.03,0.26 -0.05,0.1 0.1,0.29 0.38,-0.05 0.55,0.33 1.01,0.89 0.29,0.37 0.6,0.87 0.9,0.99 0.32,-0.33 0.59,-0.93 0.8,-1.36 0.18,-0.36 0.42,-1.07 0.61,-1.39 0,-0.71 -0.04,-1.41 -0.13,-2.1l-1.68 -1.18 -0.35 -0.09c-0.12,1.28 -0.46,2.84 -0.93,3.96l-0.33 -0.01z"/>
    <path fill="#CACDAB" d="M30.06 25.26c-0.33,0.3 -0.58,0.53 -0.59,0.59 -0.01,0.02 0.01,0.1 0.04,0.2 0.19,-0.25 0.37,-0.52 0.55,-0.79z"/>
    <path fill="#777867" d="M23.87 19.85c-0.1,0.31 0.01,0.19 -0.3,0.29 -0.03,0.01 -0.98,1.2 -1.13,1.38 -0.39,0.45 -0.81,0.8 -1.33,1.24 0.38,0.19 1.66,-0.25 2.2,-0.29 -0.18,0.37 -0.54,0.65 -0.81,0.88 -0.17,0.14 -0.26,0.23 -0.46,0.39 -0.1,0.07 -0.18,0.12 -0.27,0.2l-0.26 0.26c0.38,-0.06 0.84,-0.32 1.46,-0.52 0.26,-0.08 -0.09,-0.01 0.19,-0.06 0.41,-0.08 0.67,0.42 0.8,0.79l-0.03 0.15c-0.01,0.02 -0.01,0.06 -0.01,0.08 -0.04,0.68 0.19,0.41 -0.23,1.1l0.31 -0.08 0.13 2.24c-0.08,0.31 -1.18,0.5 -1.46,0.57l-0.51 0.19c-0.01,0.01 -0.04,0.03 -0.06,0.05 0.71,0.04 1.27,-0.38 1.95,-0.37 0.09,0.21 0.2,1.59 0.16,2.38 0.07,-0.04 0.13,-0.07 0.19,-0.1l-0.12 -1.97c0,-0.73 -0.03,-0.29 0.26,-0.69l-0.22 -0.04c-0.03,-0.38 -0.26,-2.14 -0.07,-2.35 0.01,-0.02 0.03,-0.05 0.05,-0.06l0.12 -0.14 -0.33 0.03c-0.11,-1.5 -0.02,-1.22 0.72,-2.07 0.22,-0.26 0.4,-0.49 0.63,-0.78 0.34,-0.44 0.35,-0.34 0.62,-0.62l0.09 -0.12c-0.41,0.03 -0.23,0.24 -0.2,-0.21l-2.46 0.78c0.47,-0.77 1.58,-1.79 2.04,-3.55 -0.12,0.06 -1.65,1 -1.66,1.02z"/>
    <path fill="#0E0D09" d="M1.42 23.24l0.38 -0.2c-0.22,-0.44 -0.23,-0.5 -0.22,-1.12 0.01,-0.8 -0.09,-3.19 0.1,-3.63 0.6,0.08 0.21,0.47 0.94,0.76 -0.15,-0.45 -0.13,-0.38 -0.41,-0.73 -0.48,-0.6 -0.34,-0.22 -0.25,-0.8 0.01,-0.07 0.01,-0.21 0.01,-0.28 0,-0.19 -0.01,-0.33 -0.04,-0.5 -0.2,0.23 -0.04,0.36 -0.22,0.8 -0.06,0.15 -0.05,0.1 -0.12,0.19 -0.38,-0.12 -0.85,-0.9 -0.97,-1.29l-0.62 -0.91 0 2.52c0.19,1.83 0.68,3.58 1.42,5.19z"/>
    <path fill="#9A9C84" d="M11.14 27.99c0.2,0.23 0.66,0.38 0.93,0.47 0.44,0.14 0.7,-0.03 1.24,-0.03 -0.14,0.34 -0.73,1.15 -0.74,1.51 0.32,-0.21 0.81,-1.07 1,-1.38l1.09 0.03c-0.06,-0.38 -0.07,-0.14 -0.01,-0.35 0.43,-0.16 3.5,-0.52 3.81,-0.68 0.02,-0.01 0.05,-0.03 0.07,-0.05 -1.25,0.15 -2.38,-0.9 -3.12,-0.99 -0.46,-0.01 -0.74,0.09 -1.19,0.06l-0.75 -0.13c-0.28,-0.11 -0.07,0.09 -0.27,-0.16 -1.98,-0.44 -1.21,-0.39 -2.47,-0.84 0.07,0.6 0.56,1.13 0.85,1.54 0.27,0.36 0.82,0.98 0.93,1.29 -0.35,0.11 -0.98,-0.21 -1.37,-0.29z"/>
    <path fill="#CED1BC" d="M28.03 12.46c0.04,0.8 -0.12,1.71 -0.09,2.35l-0.05 0.43c-0.27,0.16 0.3,0.09 -0.27,0.12 0.09,0.26 -0.06,0.16 0.18,0.1 0.24,0.07 0.51,0.4 0.75,0.64 0.26,0.26 0.61,0.54 0.7,0.86l0.33 0.01c0.47,-1.12 0.81,-2.68 0.93,-3.96l0.35 0.09 -0.24 -1.95c0,-0.78 -0.1,-0.65 -0.21,-0.75l0.04 2.38c-0.73,-0.21 -1.75,-1.15 -2.46,-1.24l0.04 0.92z"/>
    <path fill="#DADBC5" d="M30.41 10.4c0.11,0.1 0.21,-0.03 0.21,0.75l0.24 1.95 1.68 1.18c-0.25,-1.98 -0.86,-3.84 -1.75,-5.53 -0.24,-0.07 -0.48,-0.11 -0.72,-0.13l0.34 1.78z"/>
    <path fill="#0D0A09" d="M13.35 1.26c0.15,0.3 -0.17,0.22 1.06,0.17l2.4 0.08c0.72,0.08 0.32,-0.03 0.97,-0.28 0.13,-0.26 0.75,-0.63 1.35,-0.98 -0.92,-0.17 -1.87,-0.25 -2.83,-0.25 -0.64,0 -1.26,0.04 -1.87,0.11 -0.45,0.5 -1.01,1.11 -1.08,1.15z"/>
    <path fill="#BEC2AA" d="M0 15.53l0.62 0.91c0.59,0.22 0.15,0.4 0.88,0.51 0.37,-0.56 -0.06,-3.13 0.25,-5.1 0.15,-1 -0.23,-0.9 -0.81,-1.07 -0.01,0 -0.03,-0.01 -0.04,-0.01 -0.45,1.25 -0.76,2.57 -0.9,3.94l0 0.82z"/>
    <path fill="#CDD1A4" d="M9.45 1.74l-0.1 0.62c0.13,0.01 1.03,-0.26 1.13,-0.34l0.14 -0.1c0.87,-0.55 1.11,-0.06 2.39,-0.54 0.31,-0.12 0.07,-0.04 0.34,-0.12 0.07,-0.04 0.63,-0.65 1.08,-1.15 -1.69,0.19 -3.31,0.64 -4.81,1.31 -0.05,0.11 -0.11,0.22 -0.17,0.32z"/>
    <path fill="#CACCB2" d="M5.46 28.66c0.03,-0.02 0.07,-0.03 0.11,-0.05 0.37,-0.09 0.96,-0.79 1.45,-1.02 0.59,0.34 1.42,1.08 2.14,1.54 0.51,0.31 1.93,1.19 2.49,1.24 0.29,-0.05 0.51,-0.05 0.72,-0.12 0.21,-0.1 0.17,-0.08 0.2,-0.31 0.01,-0.36 0.6,-1.17 0.74,-1.51 -0.54,0 -0.8,0.17 -1.24,0.03 -0.27,-0.09 -0.73,-0.24 -0.93,-0.47l-0.13 -0.04 0.08 0.18c0.01,0.02 0.03,0.05 0.04,0.07l0.11 0.12c0.01,-0.01 0.05,0.03 0.06,0.05l-0.35 0.14c-0.05,0.01 -0.31,0.02 -0.38,0.02 -1.33,0.03 -1.25,0.69 -2.7,-0.54 -0.01,-0.02 -0.03,-0.04 -0.05,-0.05l-0.46 -0.41 0.35 -0.6c-0.44,0.14 -0.32,0.21 -0.69,0.35 -0.65,-0.32 -0.87,-0.91 -1.38,-1.22 0.06,0.63 0.55,0.52 0.74,1.2l0.03 0.27 -0.74 0.47c-0.01,0.01 -0.03,0.02 -0.04,0.03 -0.01,0 -0.03,0.02 -0.03,0.02 -0.09,0.09 -0.18,0.24 -0.36,0.42 0.07,0.06 0.14,0.12 0.22,0.19z"/>
    <path fill="#C5C9A4" d="M23.72 7.72l0.1 0.05c0.27,0.2 0.54,0.61 0.75,0.9 0.52,0.71 0.67,1.62 1.79,2.05 0.43,0.17 1,0.35 1.27,0.64 0.31,-0.05 0.16,0.04 0.32,-0.12 -0.07,-0.64 -0.25,-1.29 -0.46,-1.85 -0.2,-0.56 -0.49,-1.03 -0.64,-1.54l0.48 0.04 -0.24 -0.17c-0.87,-0.61 -0.03,-0.38 -0.78,-0.69l0.29 0.68c-0.9,0 -1.97,-0.3 -2.88,-0.16l0 0.17z"/>
    <path fill="#060503" d="M10.99 5.41l-0.53 0.6c-0.01,-0.02 -0.05,0.04 -0.07,0.05l-0.07 -0.06c-0.18,0.68 -0.63,1.37 -1.1,3.09l0.39 0c0.2,-0.31 0.08,-0.17 0.39,-0.4 0.23,-0.17 0.24,-0.18 0.54,-0.26 0.28,-0.36 0.84,-0.5 1.12,-0.69l0.3 -0.29c0.01,-0.02 0.04,-0.04 0.05,-0.06 0.07,-0.28 0.42,-0.75 0.64,-1.09 0.27,-0.44 0.45,-0.81 0.83,-1.06 0,-0.23 0.23,-0.38 0.37,-0.67l-0.47 0.03c-0.62,0.22 -1.82,0.44 -2.31,0.74l-0.08 0.07z"/>
    <path fill="#4D4B4B" d="M10.71 16.96c0.01,0.29 0.04,0.34 0.13,0.61l0.2 0.43c0.01,-0.01 0.03,0.05 0.05,0.08 -0.03,-0.76 -0.04,-0.24 0.14,-0.37 0.41,0.71 0.97,1.5 1.54,1.8 -0.15,-0.5 -0.42,-0.94 -0.47,-1.5 0.15,0.26 1.3,1.51 1.79,1.61 -0.24,-0.4 -0.59,-0.69 -0.74,-1.22 0.22,0.15 0.15,0.12 0.31,0.17 0.23,0.12 0.24,0.13 0.45,0.04 0,-0.02 0.01,-0.07 0,-0.06l-0.08 -0.33c-0.07,-0.14 -0.42,-0.57 -0.72,-1.17l-0.39 -0.47c0,0.66 0.12,0.9 0.25,1.49 -0.64,-0.56 -0.81,-1.73 -1,-2.05 -0.15,0.39 -0.09,1.02 -0.05,1.48 -0.34,-0.26 -0.64,-1.05 -0.72,-1.45 -0.17,-0.82 0.04,-0.91 0.35,-1.58 0.5,-1.09 0.88,-1.84 1.49,-2.62l-0.74 -0.15c-0.04,0.25 -0.05,0.21 -0.23,0.48l-0.79 1.38c-0.14,0.33 -0.28,0.7 -0.41,1.07 -0.29,0.74 -0.3,0.55 -0.16,0.71l0.2 0.12c-0.14,0.51 -0.15,0.93 -0.12,1.49 -0.15,0.09 0.23,0.32 -0.28,0.01z"/>
    <path fill="#857C95" d="M18.28 19.01c-0.06,0.05 -0.07,0.07 -0.2,0.13 -0.18,0.07 0,0 -0.27,0.05 -0.32,0.13 -0.54,0.23 -0.93,0.32 -0.44,0.11 -0.7,0.07 -0.98,0.24l0.7 0.26c0.11,0.06 0.12,0.07 0.18,0.12 -1.18,0.09 -1.33,-0.02 -2.33,-0.23l1.17 0.87c-1.16,0.02 -1.49,-0.42 -2.32,-0.66 0.31,0.62 0.53,0.72 0.9,1.14 -0.45,-0.07 -0.64,-0.29 -1.02,-0.31 -0.52,-0.2 -0.07,-0.06 -0.26,0.04l0.42 0.52c-0.08,0.13 0.04,-0.04 -0.09,0.09l-0.15 0.14c0.39,0 0.02,-0.04 0.19,0.18 0.45,0.42 2.07,0.58 2.83,0.49 -0.42,-0.4 -1.06,-0.41 -1.38,-0.92 1.26,0.05 1.49,0.07 2.72,-0.12l-1.5 -0.51c0.91,-0.18 2.04,-0.21 2.58,-0.8l-1.27 0.03c0.25,-0.24 0.71,-0.35 1.09,-0.58 0.34,-0.2 0.69,-0.51 0.84,-0.79l-0.92 0.3z"/>
    <path fill="#64635B" d="M19 8.43c-0.15,0.12 0.18,0.14 -0.4,0.19 0.04,0.28 -0.12,0.06 0.24,0.24 0.46,0.23 0.92,0.27 1.26,0.63l0.59 0.18 -0.32 -1.08c1.98,0.12 3.4,1.8 3.8,1.94l0.03 -1.72c-0.7,-0.61 -1.23,-0.69 -1.72,-0.95l-0.27 -0.17c0.31,-0.13 0.87,-0.18 1.26,-0.07l0.02 -0.21c-0.41,0.07 -1.6,0.22 -1.97,0.24 -0.3,0.02 -1.51,-0.22 -1.83,-0.33 0.21,0.37 0.45,0.59 0.58,1.18l-1.27 -0.07z"/>
    <path fill="#7E8169" d="M7.83 7.14c-0.34,-0.04 -0.11,0.11 -0.27,-0.11l0.05 -0.32 -0.31 0.6c-0.48,0.02 -0.35,-0.15 -0.86,-0.2 -0.15,0.31 -0.17,0.48 -0.49,0.69 -0.01,0.34 -0.18,0.53 -0.34,0.83 -0.07,0.14 -0.12,0.23 -0.19,0.37 -0.21,0.44 -0.06,-0.07 -0.18,0.47 0.26,-0.15 0.11,-0.04 0.32,-0.25 0.08,-0.08 0.13,-0.15 0.22,-0.25 0.39,-0.42 1.07,-1.19 1.55,-1.32 -0.04,0.67 -0.65,3.59 -0.31,4.17 0.27,-0.19 0.18,-0.09 0.3,-0.43l-0.25 0.09c-0.01,-0.98 0.05,-0.99 0.46,-1.8 0.27,-0.55 0.53,-1.06 0.89,-1.43 0.5,0.03 0.42,0.17 0.76,0.37 -0.1,0.45 -0.21,0.69 -0.38,1.01 0.44,0.18 0.12,-0.12 0.2,0.39 0.03,0.15 -0.05,0.14 0,0.43l0.04 0.34c0.22,-0.73 0.99,-1.25 0.88,-1.79l-0.31 0.09 -0.39 0c0.47,-1.72 0.92,-2.41 1.1,-3.09 -0.79,0.49 -1.4,1.7 -1.9,1.97 -0.38,-0.07 -0.57,-0.24 -0.84,-0.37 0.16,-0.37 0.13,-0.1 0.25,-0.46z"/>
    <path fill="#8B8C83" d="M8.72 21.94l0.49 0.72c-0.04,-0.53 -0.05,-0.23 0.06,-0.36 0.73,0.68 2.21,1.93 3.36,2.04 -0.14,-0.39 -0.48,-0.67 -0.74,-1.02 -0.15,-0.2 -0.22,-0.29 -0.37,-0.49 -0.43,-0.63 -0.08,-0.52 -0.01,-0.54 -0.19,-0.43 -0.26,-0.09 -0.56,-0.56 -0.17,-0.27 0.07,-0.06 -0.17,-0.28 -0.05,0.37 0.14,0.15 -0.11,0.28 -1.25,-0.99 -2.24,-2.33 -2.55,-2.47 0.11,1.33 0.96,2.66 0.6,2.68z"/>
    <path fill="#C2C5A3" d="M11.65 30.37l0.29 0.34c-0.08,0.36 -0.44,0.88 -0.73,1.24 0.29,0.1 0.58,0.18 0.87,0.26l5.95 0 -0.04 -0.28c-2.57,-0.19 -3.22,-0.58 -5.21,-1.15 -0.48,-0.14 -0.45,-0.11 -0.41,-0.53 -0.21,0.07 -0.43,0.07 -0.72,0.12z"/>
    <path fill="#BABD94" d="M13.38 4.6l0.47 -0.03c-0.14,0.29 -0.37,0.44 -0.37,0.67 -0.05,0.5 -0.01,0.56 0.32,0.86l-0.23 0.2c-0.01,0.01 -0.05,0.03 -0.06,0.04 -0.01,0.02 -0.04,0.04 -0.06,0.06l0.82 0.08c0.01,0 0.04,0 0.06,0 0.02,0.01 0.05,0.01 0.07,0.01 0.22,0.02 0.08,0.05 0.29,-0.02 0.16,-0.09 0.07,-0.02 0.27,-0.09 0.26,-0.07 0.3,-0.2 0.53,-0.42 0.2,-0.19 0.34,-0.28 0.62,-0.5 0.34,-0.27 1.07,-0.7 1.3,-0.95 -0.45,-0.28 -1.81,-0.22 -2.44,-0.17 -0.75,0.07 -0.6,0.09 -0.75,-0.11 -0.04,0 -0.46,0.07 -0.49,0.09 -0.3,0.11 -0.35,-0.25 -0.35,0.28z"/>
    <path fill="#7A7C65" d="M14.19 24.7l0.15 0.08c0.51,0.2 -0.37,-0.07 0.17,0.07 0.41,0.1 0.67,-0.11 1.05,0.15 -0.1,0.37 -0.33,0.64 -0.48,0.95l-0.5 -0.05c0.01,0.02 0.04,0.05 0.05,0.06l0.29 0.41 -1.72 -0.08c0.2,0.25 -0.01,0.05 0.27,0.16l0.75 0.13c0.45,0.03 0.73,-0.07 1.19,-0.06 -0.04,-0.26 0.05,-0.17 0.37,-0.23 0.67,-0.12 0.88,-0.08 1.75,-0.33 0.65,-0.18 1.51,-0.46 2.02,-0.77l-2.31 -0.56c0.33,-0.19 0.03,-0.03 0.18,-0.22 -0.23,0 -0.33,0.02 -0.58,0 -0.05,0.29 -0.03,0.21 -0.5,0.28 -0.21,0.03 -0.5,0.05 -0.71,0.06 -0.48,0.01 -0.96,-0.03 -1.44,-0.05z"/>
    <path fill="#B6BA9B" d="M18.53 27.51c-0.02,0.02 -0.05,0.04 -0.07,0.05 -0.31,0.16 -3.38,0.52 -3.81,0.68 -0.06,0.21 -0.05,-0.03 0.01,0.35 0.87,0.45 3.77,0.29 4.24,0.53l-0.11 0.56c0.2,-0.15 0.11,-0.06 0.27,-0.25 0.07,-0.08 0.09,-0.14 0.13,-0.22l1.21 0c0.1,-0.11 0.05,-0.2 0.06,-0.28l-1.5 0.08 0.37 -1.77 -0.8 0.27z"/>
    <path fill="#837B87" d="M20.43 19.42c-0.54,-0.08 -0.17,-0.07 -0.31,0.17 0.26,0.09 0.23,-0.08 -0.02,0.22l-0.9 0.72c-0.41,0.27 -1.06,0.49 -1.33,0.77l1.62 -0.05c-0.62,0.62 -1.88,0.96 -2.94,1.14 0.22,0.2 0.24,0.19 0.58,0.26 0.31,0.06 0.38,0.08 0.69,0.06 0.56,-0.12 0.33,0.13 0.77,-0.18 0.29,-0.2 0.27,-0.22 0.65,-0.37 0.94,-0.38 0.98,-0.25 1.23,-0.9l-0.27 -0.06 -0.41 -0.04c0.31,-0.39 1.08,-0.8 1.89,-2.01l0.18 -0.23c-0.05,-0.27 0.02,-0.16 -0.3,0.01 -0.13,0.07 -0.24,0.14 -0.37,0.21 -0.27,0.15 -0.48,0.28 -0.76,0.28z"/>
    <path fill="#514D4B" d="M12.51 11.62c0.42,-0.31 0.45,-0.51 0.72,-0.81 0.72,-0.82 1.77,-1.34 2.66,-1.82 -0.09,-0.17 -0.5,-0.47 -0.64,-0.54l0.09 -0.29c-0.5,0.25 -0.42,0.13 -1.11,0.17 -0.47,-0.5 -0.43,-0.1 -0.32,-0.53 -0.31,0.16 -0.86,1.04 -1,1.38 0.47,-0.18 1.21,-0.59 1.73,-0.61 -0.48,0.2 -2.57,2.12 -2.85,2.97l0.72 0.08z"/>
    <path fill="#C6C8B6" d="M1.55 23.52c1.22,-0.35 0.52,-0.63 1.74,0.16 0.34,0.22 0.55,0.34 0.86,0.54 0.32,0.21 0.47,0.43 0.49,0.91 0.02,0.02 0.05,0 0.07,0.04 0.14,0.27 -0.27,-0.16 0.2,0.09l0.02 -0.23 0.7 0.29c0.66,0.17 0.42,0.31 1.03,0.36 -0.26,-1.2 -1.1,-1.17 -1.46,-1.66 -0.5,-0.68 0.23,0.05 -0.7,-0.81 -0.59,-0.55 -0.2,-0.45 -0.62,-0.62 -0.19,-0.07 -1.06,-0.01 -1.42,0.18 -0.23,0.12 -0.16,0.09 -0.32,0.27l-0.6 0.46c0,0.01 0.01,0.01 0.01,0.02z"/>
    <path fill="#7A7C65" d="M6.27 13.02c0.03,0.02 0.06,0.05 0.08,0.06l0.19 0.14c-0.23,0.71 -0.17,2.78 0.13,3.34 0.93,-0.02 0.96,-0.01 1.03,0.57l0.09 1.45c0.12,-0.18 0.09,-0.01 -0.15,-0.13 0.1,0.25 0.13,0.3 0.23,0.45 0.2,-0.26 0.04,-0.9 0.02,-1.3 -0.04,-0.85 -0.18,-1.31 0.2,-1.38l0.01 -0.99c-0.15,0.17 -0.01,0.02 -0.1,0.24 -0.02,0.03 -0.06,0.13 -0.07,0.15l-0.07 0.17c-0.07,-0.08 -0.06,-0.06 -0.14,-0.19 -0.05,-0.08 -0.05,-0.08 -0.1,-0.2 -0.05,-0.12 -0.1,-0.29 -0.14,-0.42 -0.48,-1.55 -0.26,-1.86 -0.47,-2.9 -0.36,0.17 -0.36,0.61 -0.74,0.94z"/>
    <path fill="#DEE0CA" d="M7.71 26.93l-0.35 0.6 0.46 0.41c0.02,0.01 0.04,0.03 0.05,0.05 1.45,1.23 1.37,0.57 2.7,0.54 0.07,0 0.33,-0.01 0.38,-0.02l0.35 -0.14c-0.01,-0.02 -0.05,-0.06 -0.06,-0.05l-0.11 -0.12c-0.01,-0.02 -0.03,-0.05 -0.04,-0.07l-0.08 -0.18c-0.28,-0.22 -1.19,-0.63 -1.64,-0.81 -0.35,-0.13 -1.58,-0.78 -1.66,-0.21z"/>
    <path fill="#5C5B54" d="M19.38 10.31l-0.51 -0.04 1.39 0.96c-0.34,-0.12 -0.06,0 -0.16,0.18l1.12 0.63 -0.05 -0.97c0.7,0.29 0.91,0.66 1.4,1.12l0.12 0.1c-0.04,-0.45 0.01,-0.18 0.05,-0.29 0.36,0.04 0.65,0.19 0.94,0.32l0.05 0.3 0.16 -0.24c0.06,0.09 0.1,0.05 0.2,0.11 0.03,-0.47 0.13,-0.18 -0.09,-0.31 -0.51,-0.08 -0.05,0.12 -0.7,-0.65 -0.48,-0.58 -1.62,-1.52 -2.4,-1.67l0.21 1.01c-0.52,-0.2 -1.1,-0.52 -1.73,-0.56z"/>
    <path fill="#353333" d="M13.76 14.81l0.31 -0.06 -0.16 0.5c0.02,0.02 0.04,0.02 0.05,0.07 0.02,0.15 0.1,-0.15 0.13,0.88 0.02,0.44 -0.04,0.51 0.25,0.77 0.08,-1.02 -0.12,-0.61 0.3,-1.16l0.12 -0.28c0.09,-0.24 0.13,-0.31 0.21,-0.53l-0.32 0.41c-0.02,-0.32 0.08,-0.3 0,-0.67l-0.08 -0.25c0.7,-0.44 0.3,-0.71 2.16,-1.32 -0.17,-0.14 -0.18,-0.05 -0.25,-0.33 1.34,-0.25 1.7,-0.3 2.71,0.36 -0.01,-0.06 -0.06,-0.4 -0.06,-0.42 0.04,-0.31 -0.14,-0.19 0.18,-0.2 0.25,-0.24 0.06,-0.08 0.68,-0.07 -0.07,-0.06 -0.12,-0.1 -0.19,-0.2 -0.12,-0.18 -0.14,-0.05 -0.04,-0.19 -0.25,-0.26 -0.71,-0.37 -1.09,-0.38l0.32 0.6c-0.61,0.03 -1.81,-0.57 -3.07,0.2 0.25,0.29 0.22,0.05 0.39,0.4 -0.85,0.3 -1.38,0.78 -1.87,1.42 -0.31,0.41 -0.28,0.2 -0.68,0.45z"/>
    <path fill="#989697" d="M10.78 21.45c0.24,0.22 0,0.01 0.17,0.28 0.3,0.47 0.37,0.13 0.56,0.56 0.23,0.39 2.33,1.12 3.05,1.08 -0.48,-0.36 -1.08,-1.01 -1.43,-1.23l-0.59 -0.51c-0.45,-0.26 -0.81,-0.52 -1.21,-0.85 -0.37,-0.31 -0.7,-0.77 -1.16,-0.97 0.08,0.52 0.34,1.31 0.61,1.64z"/>
    <path fill="#6B6C5B" d="M9.61 9.09l0.31 -0.09c0.11,0.54 -0.66,1.06 -0.88,1.79l-0.04 -0.34c-0.31,0.43 -0.31,2.25 -0.24,2.71 0.17,-0.38 1.06,-1.66 1.36,-1.92 0.36,-0.3 0.15,-0.21 0.26,0 0.11,-0.09 0.06,0.03 0.25,-0.23 0.16,-0.21 -0.01,0.14 0.1,-0.22 -0.32,-0.14 -0.18,0.21 -0.15,-0.36 0,-0.01 0.12,-0.34 0.13,-0.36 0.09,-0.2 0.2,-0.46 0.27,-0.72 -0.32,0.05 -0.56,-0.07 -0.87,-0.16 0.09,-0.51 -0.02,-0.2 0.16,-0.49 0.17,-0.28 -0.01,-0.01 0.27,-0.27 -0.3,0.08 -0.31,0.09 -0.54,0.26 -0.31,0.23 -0.19,0.09 -0.39,0.4z"/>
    <path fill="#82846C" d="M14.69 6.47c-0.12,0.21 -0.16,0.12 -0.39,0.31l0.38 -0.04c-0.22,0.36 -0.64,0.67 -0.77,1.06 -0.11,0.43 -0.15,0.03 0.32,0.53 0.69,-0.04 0.61,0.08 1.11,-0.17 0.36,-0.02 1.75,-1.31 2.34,-1.31 -0.07,-0.13 0.01,-0.23 -0.55,-0.29l-1.87 -0.01c-0.36,-0.07 -0.14,0.2 -0.3,-0.17 -0.2,0.07 -0.11,0 -0.27,0.09z"/>
    <path fill="#B2B59B" d="M5.4 15.88c-0.13,-0.43 0,-0.2 0.02,-0.61 0.02,-0.36 -0.03,-0.31 -0.08,-0.68l-0.33 -1.81c-0.42,-0.39 -0.09,-0.62 -0.42,-0.94 -0.52,0.9 -0.47,4.01 -0.01,4.85 0.36,-0.01 0.45,-0.03 0.59,-0.27 0.08,-0.13 0.05,-0.12 0.1,-0.27l0.09 -0.2c0.01,-0.04 0.03,-0.05 0.04,-0.07z"/>
    <path fill="#FBFBF6" d="M4.64 25.13c-0.11,-0.09 -0.49,-0.82 -1.6,-1.4 -0.21,-0.11 -0.33,-0.18 -0.7,-0.12 -0.23,0.04 -0.22,0.06 -0.28,0.08 -0.38,0.94 0.56,1.04 0.78,1.27 0.61,0.65 0.31,0.22 0.84,0.59l0.87 0.51c0.28,0.21 -0.06,0.22 0.64,0.21 -0.05,-0.74 0.01,-0.19 -0.26,-0.58 -0.08,-0.12 -0.24,-0.44 -0.29,-0.56z"/>
    <path fill="#8E9177" d="M5.34 14.59c0.05,0.37 0.1,0.32 0.08,0.68 -0.02,0.41 -0.15,0.18 -0.02,0.61l0.14 -0.32c0.06,-0.16 0.07,-0.23 0.12,-0.34 0.21,0.52 1.6,3.15 1.98,3.23 0.24,0.12 0.27,-0.05 0.15,0.13l-0.09 -1.45c-0.07,-0.58 -0.1,-0.59 -1.03,-0.57 -0.3,-0.56 -0.36,-2.63 -0.13,-3.34l-0.19 -0.14c-0.02,-0.01 -0.05,-0.04 -0.08,-0.06 0,0.15 -0.54,1.42 -0.65,1.79 -0.15,-0.18 -0.16,-0.12 -0.28,-0.22z"/>
    <path fill="#6C6777" d="M22.61 14.93l0.02 0.55c0.35,0.48 -0.06,1.81 -0.3,2.38 -0.02,0.04 -0.15,0.32 -0.15,0.33 -0.17,0.64 -0.16,0.19 0.1,0.36l0.87 -0.74c0.31,-0.2 0.14,-0.26 0.24,-0.02 0.02,-0.02 0.06,-0.07 0.07,-0.06 0.01,0.02 0.05,-0.04 0.07,-0.06 0.14,-0.19 0.01,0.02 0.15,-0.25 -0.25,-0.11 -0.12,-0.01 -0.12,-0.3 0,-0.19 0.35,-1.54 0.02,-2.69l-0.18 -0.38c-0.13,0.2 -0.48,0.99 -0.54,1.18l-0.25 -0.3z"/>
    <path fill="#64635B" d="M9.22 16.04l0.08 0.35 -0.52 0.39c-0.43,-0.32 -0.43,-0.22 -0.66,-0.38 0.1,0.51 0.46,1.12 0.73,1.54 0.25,0.37 0.61,1.02 1.03,1.22l-0.25 -1.55c-0.01,-0.34 -0.03,-0.41 0.16,-0.57 -0.16,-0.45 -0.09,-0.09 -0.07,-0.5 0.91,0.29 0.6,-0.2 0.95,0.88 0.16,0.49 0.3,1.03 0.56,1.31l-0.14 -0.65c-0.02,-0.03 -0.04,-0.09 -0.05,-0.08l-0.2 -0.43c-0.09,-0.27 -0.12,-0.32 -0.13,-0.61 -0.02,-0.22 -0.24,-1 -0.42,-1.2 -0.34,-0.38 -0.28,0.18 -0.3,-1.03 -0.28,0.51 -0.22,1.39 -0.44,1.84 -0.16,-0.28 -0.07,-0.3 -0.33,-0.53z"/>
    <path fill="#8E9177" d="M21.51 24.2c-0.2,0.05 -1.44,0.75 -1.53,0.93l2.03 0.09c0.52,0.01 0.47,-0.08 0.5,0.23 0.03,-0.02 0.06,-0.08 0.07,-0.06 0.03,0.04 0.6,-0.93 1.38,-0.98 -0.13,-0.37 -0.39,-0.87 -0.8,-0.79 -0.28,0.05 0.07,-0.02 -0.19,0.06 -0.62,0.2 -1.08,0.46 -1.46,0.52z"/>
    <path fill="#84847B" d="M17.25 23.37l-2.31 0.11c0.15,0.23 0,0.05 0.21,0.22 0.21,0.17 1.37,0.72 1.69,0.71 0.25,0.02 0.35,0 0.58,0 0.69,0.04 2.22,-0.71 2.68,-1.06 -0.33,-0.31 -0.75,0.41 -2.85,0.02z"/>
    <path fill="#746C77" d="M24 12.18c0.22,0.13 0.12,-0.16 0.09,0.31 0.01,0.23 0.42,1.11 0.54,1.55 0.18,0.67 0.21,1.23 0.21,1.95 0.3,-0.11 0.65,-0.74 0.87,-1.04 0.25,-0.34 0.1,-0.28 0.4,-0.28l0.06 -0.33c-0.34,-0.27 -0.24,-0.53 -0.39,-0.9 -0.01,-0.02 -0.02,-0.04 -0.03,-0.07 -0.05,-0.12 -0.06,-0.12 -0.12,-0.19 -0.1,0.39 0.1,0.07 -0.17,0.31 -0.22,-0.28 -0.58,-0.43 -0.89,-0.7 -0.31,-0.28 -0.34,-0.64 -0.48,-1.08 -0.06,0.08 -0.08,0.02 -0.1,0.2 -0.04,0.28 -0.01,0.1 0.01,0.27z"/>
    <path fill="#A3A49B" d="M26.11 14.67l-0.02 0.33c0.06,0.08 0.08,0.09 0.13,0.27l0.05 0.84c-0.05,0.49 -0.1,0.72 -0.06,1.23 0.9,-0.03 0.79,-1.21 1.53,-1.69l0.06 -0.19c-0.24,0.06 -0.09,0.16 -0.18,-0.1 0.57,-0.03 0,0.04 0.27,-0.12 -0.43,-0.09 -0.13,0.15 -0.36,-0.18 -0.11,0.07 -0.39,-0.2 -0.57,-0.36 -0.37,-0.31 -0.22,-0.33 -0.77,-0.43l-0.02 0.07 -0.06 0.33z"/>
    <path fill="#A7A989" d="M7.32 11.39c0.07,-0.06 1.48,-1.75 1.48,-1.76 0.17,-0.32 0.28,-0.56 0.38,-1.01 -0.34,-0.2 -0.26,-0.34 -0.76,-0.37 -0.36,0.37 -0.62,0.88 -0.89,1.43 -0.41,0.81 -0.47,0.82 -0.46,1.8l0.25 -0.09z"/>
    <path fill="#B2B59B" d="M4.94 7.03c-0.07,0.32 -0.28,2.84 -0.01,2.91 0.16,-0.13 0.29,-0.24 0.31,-0.47 0.12,-0.54 -0.03,-0.03 0.18,-0.47 0.07,-0.14 0.12,-0.23 0.19,-0.37 0.16,-0.3 0.33,-0.49 0.34,-0.83 0.18,-0.74 0.68,-0.62 -0.83,-1.46l-0.18 0.69z"/>
    <path fill="#595556" d="M19.31 12.58c0.42,0.3 0.69,0.51 0.96,0.86 0.31,0.4 0.4,0.68 0.7,1.15 0.16,-0.23 0.2,-0.68 0.26,-1.03 0.48,0.38 0.39,1.02 0.69,1.48l-0.05 -1.49c0.06,0.01 0.15,0.09 0.17,0.1 0.17,0.1 -0.03,0 0.23,0.12 -0.1,-0.36 -0.21,-0.53 -0.41,-0.81 -0.07,-0.11 -0.12,-0.19 -0.24,-0.32 -0.19,-0.24 -0.04,-0.21 -0.3,-0.22l-0.03 1.02c-0.22,-0.13 -0.05,0 -0.2,-0.15 -0.03,-0.03 -0.16,-0.17 -0.19,-0.21 -0.21,-0.29 -0.58,-0.85 -1.14,-0.96 -0.1,0.14 -0.08,0.01 0.04,0.19 0.07,0.1 0.12,0.14 0.19,0.2 -0.62,-0.01 -0.43,-0.17 -0.68,0.07z"/>
    <path fill="#908F89" d="M23.68 17.42c-0.14,0.27 -0.01,0.06 -0.15,0.25 -0.02,0.02 -0.06,0.08 -0.07,0.06 -0.01,-0.01 -0.05,0.04 -0.07,0.06l-0.34 1.01 0.13 0.76c0.59,-0.09 0.28,-0.38 0.89,-0.61 0.37,-0.65 0.7,-1.75 0.72,-2.66 -0.34,0.17 -0.4,0.3 -0.6,0.52 -0.19,0.2 -0.47,0.38 -0.51,0.61z"/>
    <path fill="#413E3C" d="M13.42 11.78c0.76,0.26 0.61,-0.03 1.79,-0.78 0.73,-0.46 1.27,-0.49 2.11,-0.75 -0.18,-0.37 0,-0.09 -0.27,-0.33l-0.33 -0.26c-0.01,-0.01 -0.04,-0.03 -0.06,-0.04 -1.39,0.52 -2.73,1.27 -3.24,2.16z"/>
    <path fill="#7A7587" d="M20.37 16.92c-0.07,0.09 -0.25,0.56 -0.35,0.77 -0.14,0.29 -0.33,0.5 -0.47,0.77 0.45,-0.18 0.67,-0.42 1.06,-0.58l-0.21 0.53 0.15 0.02c-0.01,0.05 -0.04,0.58 -0.01,0.78l0.44 -0.47c0.37,-0.58 0.65,-1.15 0.76,-1.88 -0.16,0.11 -0.73,0.59 -0.94,0.78 0.21,-0.83 0.47,-1.47 0.28,-2.41 -0.11,0.26 -0.16,0.67 -0.26,0.95 -0.02,0.07 -0.11,0.3 -0.15,0.39 -0.19,0.38 0.04,0.17 -0.3,0.35z"/>
    <path fill="#4C4A45" d="M20.1 9.49c-0.34,-0.36 -0.8,-0.4 -1.26,-0.63 -0.36,-0.18 -0.2,0.04 -0.24,-0.24 0.58,-0.05 0.25,-0.07 0.4,-0.19 -0.93,-0.01 -2.22,0.09 -2.9,0.57l0.26 0.3c0.12,0.13 0.18,0.18 0.28,0.29 1.59,-0.24 1.74,-0.38 3.46,-0.1z"/>
    <path fill="#656462" d="M20.2 21.2l0.27 0.06c-0.25,0.65 -0.29,0.52 -1.23,0.9 -0.38,0.15 -0.36,0.17 -0.65,0.37 -0.44,0.31 -0.21,0.06 -0.77,0.18 0.24,0.2 0.31,0.07 0.6,0.22 -0.32,0.14 -0.92,0.22 -1.17,0.44 2.1,0.39 2.52,-0.33 2.85,-0.02 0.16,-0.07 0.24,-0.1 0.35,-0.18 0,0 0.09,-0.07 0.11,-0.09 0.12,-0.11 0.05,-0.04 0.15,-0.17l-2 0.03c0.13,-0.25 0.47,-0.36 0.73,-0.5 0.29,-0.16 0.48,-0.29 0.75,-0.46 0.51,-0.33 0.98,-0.75 1.3,-1.14l-1.15 0.28c-0.02,0.01 -0.05,0.03 -0.07,0.04 -0.02,0.01 -0.05,0.02 -0.07,0.04z"/>
    <path fill="#8B8C7B" d="M8.1 15.23l-0.01 0.99 0.03 0.18c0.23,0.16 0.23,0.06 0.66,0.38l0.52 -0.39 -0.08 -0.35c0,-0.02 -0.45,-2.28 -0.64,-2.5 -0.15,0.55 -0.49,1 -0.48,1.69z"/>
    <path fill="#9EA188" d="M4.94 7.03l0.18 -0.69c1.51,0.84 1.01,0.72 0.83,1.46 0.32,-0.21 0.34,-0.38 0.49,-0.69 0.51,0.05 0.38,0.22 0.86,0.2l0.31 -0.6c0.1,-0.3 0.32,-0.96 0.3,-1.27l0.05 -0.56c-0.63,0.26 -0.23,0.2 -0.75,0.85 -0.32,0.39 -0.52,0.76 -0.76,1.11 -0.32,-0.22 -0.2,-0.2 -0.64,-0.39 -0.38,-0.17 -0.28,-0.22 -0.66,-0.38 -0.22,0.31 -0.19,0.54 -0.21,0.96z"/>
    <path fill="#353333" d="M14.03 18.22l0.08 0.33c0.01,-0.01 0,0.04 0,0.06 -0.21,0.09 -0.22,0.08 -0.45,-0.04 0.3,0.36 0.9,0.79 1.5,0.88 -0.32,-0.38 -0.48,-0.32 -0.71,-0.77 0.65,0.3 1.04,0.58 1.84,0.42 -0.39,-0.29 -0.36,-0.11 -0.65,-0.29 -0.33,-0.2 -0.07,-0.01 -0.24,-0.23 0.65,0.03 1.04,0.15 1.55,-0.13 -1.29,0.02 -1.77,-0.21 -2.3,-0.99 -0.14,0.19 -0.25,-0.3 -0.09,0.35l0.26 0.43c-0.49,-0.24 -0.8,-0.62 -1.02,-1.17l0.23 1.15z"/>
    <path fill="#5D5B5B" d="M17.81 19.19c0.27,-0.05 0.09,0.02 0.27,-0.05 0.13,-0.06 0.14,-0.08 0.2,-0.13 -0.35,-0.17 0.58,-0.37 1.04,-1.18 0.11,-0.2 0.18,-0.37 0.24,-0.63 -0.33,0.14 -0.32,0.3 -0.79,0.52 0.3,-0.73 0.66,-1.23 0.5,-2.16 -0.7,0.88 -0.02,1.31 -1.48,2.59l0.68 -0.18c-0.24,0.45 -1.15,0.9 -1.62,1.11l0.96 0.11z"/>
    <path fill="#9B9C8C" d="M10.22 11.7c-0.05,0.54 -0.17,0.83 -0.16,1.48 0.52,0 0.54,0.03 0.78,-0.37 0.31,-0.52 0.98,-1.56 1,-2.04 -0.06,-0.29 0.1,-0.11 -0.19,-0.22 -0.25,0.22 -0.48,0.32 -0.73,0.57 -0.52,0.5 -0.24,0.43 -0.7,0.58z"/>
    <path fill="#A2A48C" d="M7.83 7.14c-0.12,0.36 -0.09,0.09 -0.25,0.46 0.27,0.13 0.46,0.3 0.84,0.37 0.5,-0.27 1.11,-1.48 1.9,-1.97l0.07 0.06c0.02,-0.51 0.05,-0.2 -0.09,-0.37 -0.58,0.22 -2.19,1.04 -2.47,1.45z"/>
    <path fill="#87887B" d="M27.74 15.65c-0.74,0.48 -0.63,1.66 -1.53,1.69 -0.04,-0.51 0.01,-0.74 0.06,-1.23l-0.05 -0.84c-0.05,-0.18 -0.07,-0.19 -0.13,-0.27 0.05,1.57 -0.13,2.15 -0.36,3.55 0.59,-0.28 0.89,-0.64 1.35,-1.01 0.66,-0.53 0.58,-0.46 0.66,-1.89z"/>
    <path fill="#B6BA9B" d="M22.51 25.45c-0.18,0.01 -1.4,0.84 -1.54,1.05 1.07,-0.01 1.93,-0.66 2.72,-0.76 0.42,-0.69 0.19,-0.42 0.23,-1.1 0,-0.02 0,-0.06 0.01,-0.08l0.03 -0.15c-0.78,0.05 -1.35,1.02 -1.38,0.98 -0.01,-0.02 -0.04,0.04 -0.07,0.06z"/>
    <path fill="#A7A989" d="M12.01 7.39l0.11 0.05 2.18 -0.66c0.23,-0.19 0.27,-0.1 0.39,-0.31 -0.21,0.07 -0.07,0.04 -0.29,0.02 -0.02,0 -0.05,0 -0.07,-0.01 -0.02,0 -0.05,0 -0.06,0l-0.82 -0.08c0.02,-0.02 0.05,-0.04 0.06,-0.06 0.01,-0.01 0.05,-0.03 0.06,-0.04l0.23 -0.2c-0.33,-0.3 -0.37,-0.36 -0.32,-0.86 -0.38,0.25 -0.56,0.62 -0.83,1.06 -0.22,0.34 -0.57,0.81 -0.64,1.09z"/>
    <path fill="#656462" d="M19.52 14.61c0.44,0.6 0.37,1.56 0.24,2.26 0.45,-0.29 0.32,-0.53 0.72,-0.85l-0.11 0.9c0.34,-0.18 0.11,0.03 0.3,-0.35 0.04,-0.09 0.13,-0.32 0.15,-0.39 0.1,-0.28 0.15,-0.69 0.26,-0.95l-0.07 -0.31 -0.48 1.01c-0.18,-0.27 -0.2,-0.83 -0.3,-1.14 -0.12,-0.39 -0.29,-0.73 -0.44,-0.92 -0.38,-0.06 -0.19,-0.08 -0.4,0.09 0.02,0.38 0.02,0.35 0.13,0.65z"/>
    <path fill="#908F89" d="M24.09 11.71c0.14,0.44 0.17,0.8 0.48,1.08 0.31,0.27 0.67,0.42 0.89,0.7 0.27,-0.24 0.07,0.08 0.17,-0.31 -0.03,-0.43 -0.33,-0.94 -0.54,-1.29 -0.23,-0.39 -0.52,-0.94 -0.97,-1.09l-0.03 0.91z"/>
    <path fill="#837B87" d="M26.19 14.27c0.55,0.1 0.4,0.12 0.77,0.43 0.18,0.16 0.46,0.43 0.57,0.36 0.23,0.33 -0.07,0.09 0.36,0.18l0.05 -0.43 -0.25 0.22c-0.04,-0.48 -0.11,-0.84 -0.21,-1.31 -0.08,-0.34 -0.2,-0.84 -0.43,-1.08 -0.18,0.22 -0.75,1.35 -0.86,1.63z"/>
    <path fill="#9C9D93" d="M14.58 25.9l0.5 0.05c0.15,-0.31 0.38,-0.58 0.48,-0.95 -0.38,-0.26 -0.64,-0.05 -1.05,-0.15 -0.54,-0.14 0.34,0.13 -0.17,-0.07l-0.15 -0.08 -1.22 -0.2c0.16,0.42 0.41,0.55 0.74,0.83 0.16,0.14 0.58,0.51 0.87,0.57z"/>
    <path fill="#413E3C" d="M14.78 12.17c0.45,0.1 0.4,0.17 0.8,-0.04 1.07,-0.58 1.46,-0.58 2.78,-0.58 -0.09,-0.35 -0.15,-0.36 -0.39,-0.6 -1.15,0.02 -2.72,0.47 -3.19,1.22z"/>
    <path fill="#413E3C" d="M12.17 15.56c0.47,-0.66 1.12,-1.99 1.67,-2.64 0.22,-0.26 0.55,-0.48 0.64,-0.79l-0.53 -0.09c-0.52,0.58 -2.19,2.69 -1.78,3.52z"/>
    <path fill="#353333" d="M13.45 14.9l0.22 -0.07c0.38,-1.22 1.77,-1.99 2,-2.29 -0.68,-0.22 -1.08,0.29 -1.65,0.93 -0.26,0.3 -0.06,-0.02 -0.29,0.37 -0.12,0.21 -0.16,0.29 -0.27,0.48 -0.07,0.11 -0.17,0.32 -0.24,0.41 -0.2,0.28 -0.15,0.13 -0.39,0.35l0.1 1c0.08,-0.27 0.29,-1.16 0.52,-1.18z"/>
    <path fill="#898788" d="M21.92 15.04l-0.03 1.44c0.27,-0.2 0.62,-0.62 0.74,-1l-0.02 -0.55c0.03,-0.4 -0.13,-0.94 -0.34,-1.16 -0.26,-0.12 -0.06,-0.02 -0.23,-0.12 -0.02,-0.01 -0.11,-0.09 -0.17,-0.1l0.05 1.49z"/>
    <path fill="#838473" d="M9.79 17.04c0.08,0.51 1.16,2.09 1.66,2.37l-0.22 -0.68c-0.26,-0.28 -0.4,-0.82 -0.56,-1.31 -0.35,-1.08 -0.04,-0.59 -0.95,-0.88 -0.02,0.41 -0.09,0.05 0.07,0.5z"/>
    <path fill="#252323" d="M19.52 14.61c-0.11,-0.3 -0.11,-0.27 -0.13,-0.65 0.21,-0.17 0.02,-0.15 0.4,-0.09 -0.16,-0.36 -0.08,-0.16 -0.28,-0.41 -0.23,0.21 -0.23,0.29 -0.23,0.69 0.05,-0.12 0.16,0.01 -0.34,-0.31 -0.19,-0.12 -0.33,-0.22 -0.52,-0.32 -0.37,-0.2 -0.84,-0.4 -1.35,-0.28l0.27 0.22c-0.01,0.01 -0.04,0.01 -0.05,0.05 -0.15,0.45 0.17,-0.13 -0.32,0.25 -0.02,0.01 -0.05,0.02 -0.06,0.04l0.33 0.18 0.36 -0.25c0.1,-0.06 -0.21,-0.18 0.33,-0.04 0.81,0.22 1.07,1.07 1.23,1.42l0.36 -0.5z"/>
    <path fill="#64635B" d="M23.57 20.14c0.31,-0.1 0.2,0.02 0.3,-0.29 -0.19,-0.12 -0.25,0.18 -0.02,-0.36 0.1,-0.24 0.13,-0.25 0.22,-0.54 -0.61,0.23 -0.3,0.52 -0.89,0.61l-0.13 -0.76c-0.25,0.24 -0.37,0.6 -0.55,0.9 -0.23,0.37 -0.46,0.53 -0.64,0.92l1.35 -0.5c0.54,-0.25 0.26,-0.14 0.36,0.02z"/>
    <path fill="#3D3B3B" d="M20.1 11.41c0.1,-0.18 -0.18,-0.3 0.16,-0.18l-1.39 -0.96 0.51 0.04c-0.45,-0.22 -1.36,-0.18 -1.91,-0.11 0.15,0.35 -0.03,0.04 0.26,0.35 0.78,0.85 0.74,-0.12 2.37,0.86z"/>
    <path fill="#7E8169" d="M10.54 8.43c-0.28,0.26 -0.1,-0.01 -0.27,0.27 -0.18,0.29 -0.07,-0.02 -0.16,0.49 0.31,0.09 0.55,0.21 0.87,0.16 0.15,-0.33 0.32,-0.65 0.49,-0.96 0.13,-0.24 0.13,-0.3 0.24,-0.51 0.23,-0.45 0.13,-0.1 0.41,-0.44l-0.11 -0.05c-0.01,0.02 -0.04,0.04 -0.05,0.06l-0.3 0.29c-0.28,0.19 -0.84,0.33 -1.12,0.69z"/>
    <path fill="#74746B" d="M10.73 10.79c-0.11,0.36 0.06,0.01 -0.1,0.22 -0.19,0.26 -0.14,0.14 -0.25,0.23l-0.16 0.46c0.46,-0.15 0.18,-0.08 0.7,-0.58 0.25,-0.25 0.48,-0.35 0.73,-0.57 0.29,0.11 0.13,-0.07 0.19,0.22 0.26,-0.23 0.23,-0.36 0.38,-0.68 0.1,-0.21 0.21,-0.44 0.35,-0.58 -0.26,0.06 -1.6,0.76 -1.84,1.28z"/>
    <path fill="#746C77" d="M12.54 21.63l0.59 0.51c-0.11,-0.41 -0.1,-0.16 0.16,-0.23 -0.17,-0.22 0.2,-0.18 -0.19,-0.18l0.15 -0.14c0.13,-0.13 0.01,0.04 0.09,-0.09l-0.42 -0.52c0.19,-0.1 -0.26,-0.24 0.26,-0.04 -0.32,-0.45 -1.16,-0.65 -1.43,-1.12 0.02,0.28 0.25,0.66 0.42,0.96 0.49,0.88 0.67,0.74 0.37,0.85z"/>
    <path fill="#74746B" d="M22.69 12.29c0.05,0.26 0.19,0.39 0.35,0.71 0.15,0.28 0.21,0.51 0.36,0.75 0.19,-0.26 0.34,-0.76 0.33,-1.13l-0.05 -0.3c-0.29,-0.13 -0.58,-0.28 -0.94,-0.32 -0.04,0.11 -0.09,-0.16 -0.05,0.29z"/>
    <path fill="#92947C" d="M5.51 28.71c0.02,-0.03 0.04,-0.06 0.06,-0.1 -0.04,0.02 -0.08,0.03 -0.11,0.05 0.01,0.01 0.03,0.03 0.05,0.05z"/>
    <path fill="#968FA4" d="M20.12 19.59c0.14,-0.24 -0.23,-0.25 0.31,-0.17 0.28,-0.23 0.06,0.01 0.11,-0.21 -0.03,-0.2 0,-0.73 0.01,-0.78l-0.15 -0.02 -1.51 1.57 1.23 -0.39z"/>
    <path fill="#615E59" d="M5.63 25.32l-0.7 -0.29 -0.02 0.23c0.13,0.08 0.18,0.19 0.29,0.33 0.04,0.05 0.15,0.19 0.17,0.21 0.18,0.14 0.06,0.07 0.32,0.18 -0.07,-0.13 -0.13,-0.28 -0.17,-0.36 0.72,0.13 1.03,0.7 1.78,0.69 0.01,-0.32 -0.24,-1.35 -0.56,-1.67 0.07,0.58 0.29,0.82 0.33,1.44 -0.41,-0.08 -1.25,-0.45 -1.44,-0.76z"/>
    <path fill="#393827" d="M16.92 16.07l0.03 0.35 -0.26 0.16 -0.09 0.16 -0.59 -0.07c-0.27,-0.18 -0.11,0.25 -0.27,-0.37l-0.08 0.09 -0.03 -0.29 -0.11 0.38c0.25,0.22 0.51,0.39 0.84,0.47 -0.01,0.01 0.08,0.29 -0.55,-0.1 0.09,0.37 0.39,0.53 0.85,0.58 0.4,-0.48 0.64,-0.94 0.26,-1.36z"/>
    <path fill="#676749" d="M15.63 16.1l0.03 0.29 0.08 -0.09c0.16,0.62 0,0.19 0.27,0.37l-0.1 -0.54c0.26,-0.11 0.4,-0.18 0.72,0.02l0.06 0.43 0.26 -0.16 -0.03 -0.35c-0.24,-0.65 -1.19,-0.73 -1.29,0.03z"/>
    <path fill="#74746B" d="M13.45 14.9c0.01,0.26 -0.01,0.49 0.02,0.75 0.01,0.11 0.02,0.24 0.05,0.34l0.14 0.31 0.25 -1.05 0.16 -0.5 -0.31 0.06 -0.09 0.02 -0.22 0.07z"/>
    <path fill="#E9EBB9" d="M16.01 16.67l0.59 0.07 0.09 -0.16 -0.06 -0.43c-0.32,-0.2 -0.46,-0.13 -0.72,-0.02l0.1 0.54z"/>
   </g>
   <path fill="black" fill-rule="nonzero" d="M13.28 21.83l-2.02 0c-0.23,0 -0.41,-0.06 -0.56,-0.16 -0.15,-0.11 -0.25,-0.24 -0.31,-0.41l-0.66 -1.96 -4.29 0 -0.66 1.96c-0.05,0.15 -0.15,0.27 -0.3,0.39 -0.15,0.12 -0.33,0.18 -0.55,0.18l-2.04 0 4.36 -11.28 2.67 0 4.36 11.28zm-7.23 -4.31l3.07 0 -1.03 -3.04c-0.07,-0.19 -0.15,-0.42 -0.24,-0.68 -0.09,-0.26 -0.18,-0.55 -0.26,-0.85 -0.09,0.31 -0.17,0.59 -0.26,0.86 -0.09,0.26 -0.17,0.49 -0.25,0.68l-1.03 3.03z"/>
   <path id="1" fill="black" fill-rule="nonzero" d="M16.11 17.68l-2.58 -3.87 2.3 0c0.17,0 0.3,0.02 0.38,0.07 0.08,0.04 0.15,0.11 0.21,0.22l1.43 2.37c0.03,-0.09 0.07,-0.18 0.12,-0.27 0.04,-0.09 0.1,-0.18 0.15,-0.28l1.02 -1.79c0.07,-0.11 0.14,-0.2 0.23,-0.25 0.08,-0.04 0.18,-0.07 0.3,-0.07l2.19 0 -2.58 3.77 2.69 4.25 -2.3 0c-0.17,0 -0.31,-0.04 -0.41,-0.12 -0.1,-0.08 -0.19,-0.18 -0.26,-0.29l-1.43 -2.46c-0.02,0.08 -0.05,0.17 -0.09,0.24 -0.04,0.08 -0.07,0.15 -0.12,0.22l-1.17 2c-0.06,0.1 -0.14,0.2 -0.25,0.28 -0.1,0.09 -0.23,0.13 -0.38,0.13l-2.14 0 2.69 -4.15z"/>
   <path id="2" fill="black" fill-rule="nonzero" d="M23.05 21.83l0 -11.27 4.15 0c0.78,0 1.44,0.07 1.98,0.22 0.55,0.15 1,0.35 1.34,0.61 0.35,0.27 0.6,0.59 0.76,0.97 0.15,0.37 0.23,0.79 0.23,1.26 0,0.25 -0.03,0.5 -0.11,0.74 -0.07,0.23 -0.18,0.45 -0.34,0.66 -0.15,0.21 -0.35,0.39 -0.59,0.56 -0.24,0.17 -0.54,0.32 -0.88,0.44 0.75,0.18 1.3,0.47 1.65,0.88 0.36,0.4 0.53,0.92 0.53,1.55 0,0.48 -0.09,0.92 -0.27,1.33 -0.19,0.41 -0.46,0.77 -0.82,1.08 -0.36,0.3 -0.8,0.54 -1.33,0.72 -0.52,0.17 -1.12,0.25 -1.8,0.25l-4.5 0zm2.62 -4.77l0 2.79 1.84 0c0.34,0 0.63,-0.04 0.84,-0.13 0.22,-0.08 0.39,-0.2 0.52,-0.33 0.12,-0.14 0.21,-0.3 0.25,-0.48 0.05,-0.17 0.07,-0.35 0.07,-0.53 0,-0.2 -0.02,-0.39 -0.08,-0.55 -0.05,-0.17 -0.14,-0.31 -0.28,-0.42 -0.13,-0.11 -0.3,-0.2 -0.52,-0.26 -0.22,-0.06 -0.49,-0.09 -0.82,-0.09l-1.82 0zm0 -1.75l1.36 0c0.29,0 0.55,-0.02 0.78,-0.06 0.23,-0.04 0.43,-0.12 0.59,-0.22 0.16,-0.1 0.29,-0.24 0.37,-0.42 0.09,-0.18 0.13,-0.41 0.13,-0.68 0,-0.27 -0.04,-0.5 -0.1,-0.67 -0.07,-0.18 -0.17,-0.32 -0.31,-0.43 -0.14,-0.11 -0.32,-0.19 -0.53,-0.23 -0.21,-0.05 -0.47,-0.07 -0.76,-0.07l-1.53 0 0 2.78z"/>
   <polygon id="3" fill="black" fill-rule="nonzero" points="35.67,10.25 35.67,21.83 33.27,21.83 33.27,10.25 "/>
   <path id="4" fill="black" fill-rule="nonzero" d="M43.14 21.83c-0.23,0 -0.4,-0.03 -0.52,-0.09 -0.11,-0.06 -0.21,-0.19 -0.29,-0.39l-0.17 -0.44c-0.2,0.17 -0.39,0.32 -0.58,0.45 -0.18,0.13 -0.37,0.24 -0.57,0.33 -0.2,0.09 -0.41,0.16 -0.63,0.2 -0.23,0.04 -0.48,0.07 -0.75,0.07 -0.37,0 -0.7,-0.05 -1,-0.15 -0.3,-0.09 -0.55,-0.23 -0.76,-0.42 -0.21,-0.19 -0.37,-0.42 -0.48,-0.69 -0.12,-0.28 -0.17,-0.6 -0.17,-0.96 0,-0.29 0.07,-0.58 0.21,-0.88 0.15,-0.3 0.4,-0.57 0.75,-0.81 0.36,-0.25 0.84,-0.46 1.44,-0.62 0.6,-0.17 1.36,-0.25 2.28,-0.25l0 -0.34c0,-0.48 -0.09,-0.82 -0.29,-1.03 -0.19,-0.21 -0.47,-0.32 -0.82,-0.32 -0.29,0 -0.52,0.04 -0.7,0.1 -0.18,0.06 -0.34,0.13 -0.48,0.21 -0.14,0.07 -0.28,0.14 -0.41,0.2 -0.14,0.07 -0.3,0.1 -0.48,0.1 -0.17,0 -0.31,-0.04 -0.42,-0.12 -0.12,-0.08 -0.21,-0.18 -0.28,-0.3l-0.43 -0.75c0.48,-0.43 1.02,-0.75 1.61,-0.96 0.59,-0.21 1.22,-0.32 1.9,-0.32 0.48,0 0.92,0.08 1.31,0.24 0.39,0.16 0.72,0.38 0.99,0.66 0.27,0.28 0.47,0.61 0.62,1 0.14,0.39 0.22,0.81 0.22,1.27l0 5.01 -1.1 0zm-2.75 -1.47c0.3,0 0.58,-0.05 0.81,-0.16 0.23,-0.1 0.46,-0.27 0.7,-0.51l0 -1.1c-0.48,0 -0.87,0.03 -1.18,0.09 -0.31,0.06 -0.56,0.14 -0.74,0.23 -0.18,0.1 -0.3,0.2 -0.37,0.32 -0.07,0.12 -0.11,0.25 -0.11,0.39 0,0.27 0.08,0.47 0.23,0.58 0.15,0.11 0.37,0.16 0.66,0.16z"/>
   <path id="5" fill="black" fill-rule="nonzero" d="M51.56 21.83c-0.15,0 -0.27,-0.03 -0.37,-0.1 -0.1,-0.06 -0.17,-0.16 -0.21,-0.3l-0.19 -0.61c-0.16,0.17 -0.33,0.33 -0.5,0.46 -0.18,0.14 -0.37,0.26 -0.57,0.36 -0.2,0.1 -0.42,0.18 -0.66,0.23 -0.23,0.06 -0.49,0.09 -0.76,0.09 -0.42,0 -0.8,-0.1 -1.16,-0.28 -0.35,-0.19 -0.66,-0.45 -0.92,-0.81 -0.26,-0.35 -0.46,-0.78 -0.6,-1.28 -0.15,-0.51 -0.23,-1.09 -0.23,-1.74 0,-0.6 0.09,-1.15 0.25,-1.67 0.17,-0.51 0.4,-0.96 0.7,-1.33 0.3,-0.37 0.67,-0.67 1.09,-0.88 0.42,-0.21 0.89,-0.32 1.4,-0.32 0.41,0 0.76,0.07 1.05,0.19 0.28,0.12 0.54,0.29 0.77,0.49l0 -4.08 2.4 0 0 11.58 -1.49 0zm-2.42 -1.72c0.17,0 0.33,-0.01 0.47,-0.04 0.14,-0.04 0.27,-0.09 0.39,-0.15 0.12,-0.06 0.23,-0.14 0.34,-0.23 0.11,-0.09 0.21,-0.2 0.31,-0.33l0 -3.4c-0.18,-0.2 -0.38,-0.34 -0.59,-0.42 -0.21,-0.08 -0.43,-0.12 -0.66,-0.12 -0.22,0 -0.43,0.04 -0.61,0.13 -0.19,0.09 -0.35,0.23 -0.48,0.42 -0.14,0.19 -0.25,0.44 -0.33,0.76 -0.07,0.31 -0.11,0.68 -0.11,1.12 0,0.42 0.03,0.78 0.09,1.07 0.06,0.29 0.15,0.52 0.26,0.7 0.11,0.18 0.24,0.3 0.4,0.38 0.15,0.08 0.33,0.11 0.52,0.11z"/>
   <path id="6" fill="black" fill-rule="nonzero" d="M58.33 13.69c0.54,0 1.02,0.08 1.46,0.24 0.44,0.17 0.82,0.41 1.14,0.72 0.32,0.32 0.56,0.7 0.74,1.16 0.18,0.45 0.27,0.97 0.27,1.55 0,0.18 -0.01,0.32 -0.03,0.44 -0.01,0.11 -0.04,0.2 -0.08,0.27 -0.04,0.07 -0.1,0.11 -0.17,0.14 -0.07,0.02 -0.16,0.04 -0.26,0.04l-4.63 0c0.08,0.67 0.28,1.16 0.61,1.46 0.33,0.3 0.76,0.45 1.28,0.45 0.28,0 0.52,-0.03 0.72,-0.1 0.2,-0.06 0.38,-0.14 0.54,-0.22 0.15,-0.09 0.3,-0.16 0.43,-0.23 0.13,-0.06 0.27,-0.1 0.41,-0.1 0.19,0 0.34,0.07 0.44,0.22l0.69 0.87c-0.25,0.28 -0.51,0.51 -0.8,0.68 -0.28,0.18 -0.58,0.32 -0.88,0.41 -0.3,0.1 -0.6,0.17 -0.9,0.21 -0.31,0.04 -0.59,0.06 -0.87,0.06 -0.56,0 -1.08,-0.1 -1.58,-0.28 -0.49,-0.18 -0.92,-0.45 -1.29,-0.81 -0.37,-0.37 -0.66,-0.81 -0.87,-1.35 -0.21,-0.54 -0.32,-1.16 -0.32,-1.87 0,-0.54 0.09,-1.05 0.27,-1.53 0.19,-0.48 0.45,-0.9 0.79,-1.26 0.34,-0.36 0.76,-0.65 1.25,-0.86 0.48,-0.21 1.03,-0.31 1.64,-0.31zm0.05 1.65c-0.46,0 -0.82,0.13 -1.07,0.39 -0.26,0.26 -0.43,0.64 -0.51,1.13l2.99 0c0,-0.2 -0.02,-0.38 -0.07,-0.56 -0.05,-0.18 -0.13,-0.34 -0.24,-0.49 -0.11,-0.14 -0.26,-0.25 -0.44,-0.34 -0.18,-0.09 -0.4,-0.13 -0.66,-0.13z"/>
   <path id="7" fill="black" fill-rule="nonzero" d="M72.57 12.85c-0.07,0.13 -0.15,0.22 -0.24,0.28 -0.08,0.06 -0.19,0.09 -0.33,0.09 -0.12,0 -0.24,-0.03 -0.38,-0.11 -0.14,-0.07 -0.29,-0.16 -0.46,-0.25 -0.18,-0.09 -0.37,-0.18 -0.6,-0.25 -0.22,-0.08 -0.47,-0.11 -0.75,-0.11 -0.49,0 -0.86,0.1 -1.1,0.31 -0.24,0.21 -0.36,0.49 -0.36,0.84 0,0.23 0.08,0.42 0.22,0.57 0.14,0.15 0.33,0.28 0.57,0.39 0.23,0.11 0.5,0.2 0.8,0.29 0.3,0.09 0.61,0.2 0.93,0.31 0.31,0.11 0.62,0.24 0.92,0.39 0.3,0.15 0.57,0.34 0.8,0.57 0.24,0.23 0.43,0.51 0.57,0.85 0.15,0.33 0.22,0.73 0.22,1.2 0,0.52 -0.09,1.01 -0.27,1.46 -0.18,0.46 -0.44,0.85 -0.79,1.19 -0.34,0.34 -0.76,0.6 -1.26,0.8 -0.51,0.19 -1.08,0.29 -1.72,0.29 -0.35,0 -0.7,-0.04 -1.07,-0.11 -0.36,-0.07 -0.71,-0.17 -1.05,-0.3 -0.34,-0.13 -0.66,-0.28 -0.96,-0.46 -0.3,-0.18 -0.56,-0.38 -0.78,-0.59l0.77 -1.25c0.06,-0.09 0.14,-0.17 0.24,-0.22 0.1,-0.06 0.21,-0.09 0.33,-0.09 0.16,0 0.31,0.05 0.47,0.15 0.16,0.1 0.34,0.21 0.54,0.32 0.19,0.12 0.42,0.23 0.68,0.33 0.26,0.1 0.56,0.15 0.91,0.15 0.47,0 0.84,-0.11 1.11,-0.32 0.26,-0.21 0.39,-0.54 0.39,-0.99 0,-0.27 -0.07,-0.48 -0.22,-0.65 -0.14,-0.16 -0.33,-0.3 -0.56,-0.41 -0.24,-0.1 -0.51,-0.2 -0.81,-0.28 -0.29,-0.08 -0.6,-0.17 -0.91,-0.27 -0.32,-0.1 -0.63,-0.23 -0.92,-0.38 -0.3,-0.14 -0.57,-0.34 -0.8,-0.58 -0.24,-0.24 -0.43,-0.54 -0.57,-0.89 -0.15,-0.36 -0.22,-0.81 -0.22,-1.33 0,-0.42 0.09,-0.84 0.26,-1.24 0.17,-0.4 0.42,-0.76 0.75,-1.08 0.33,-0.31 0.73,-0.56 1.21,-0.75 0.48,-0.19 1.03,-0.28 1.65,-0.28 0.34,0 0.68,0.03 1.01,0.08 0.32,0.06 0.63,0.14 0.93,0.24 0.29,0.11 0.57,0.24 0.82,0.38 0.26,0.15 0.48,0.32 0.68,0.51l-0.65 1.2z"/>
   <path id="8" fill="black" fill-rule="nonzero" d="M78.25 13.69c0.61,0 1.16,0.09 1.66,0.28 0.5,0.19 0.93,0.47 1.29,0.82 0.36,0.36 0.63,0.79 0.83,1.3 0.2,0.51 0.3,1.08 0.3,1.71 0,0.64 -0.1,1.22 -0.3,1.73 -0.2,0.51 -0.47,0.95 -0.83,1.31 -0.36,0.36 -0.79,0.63 -1.29,0.83 -0.5,0.19 -1.05,0.29 -1.66,0.29 -0.62,0 -1.17,-0.1 -1.67,-0.29 -0.51,-0.2 -0.94,-0.47 -1.3,-0.83 -0.37,-0.36 -0.65,-0.8 -0.85,-1.31 -0.19,-0.51 -0.29,-1.09 -0.29,-1.73 0,-0.63 0.1,-1.2 0.29,-1.71 0.2,-0.51 0.48,-0.94 0.85,-1.3 0.36,-0.35 0.79,-0.63 1.3,-0.82 0.5,-0.19 1.05,-0.28 1.67,-0.28zm0 6.49c0.55,0 0.96,-0.2 1.22,-0.59 0.26,-0.38 0.39,-0.98 0.39,-1.77 0,-0.8 -0.13,-1.39 -0.39,-1.77 -0.26,-0.39 -0.67,-0.58 -1.22,-0.58 -0.57,0 -0.98,0.19 -1.25,0.58 -0.26,0.38 -0.39,0.97 -0.39,1.77 0,0.79 0.13,1.39 0.39,1.77 0.27,0.39 0.68,0.59 1.25,0.59z"/>
   <path id="9" fill="black" fill-rule="nonzero" d="M84 21.83l0 -6.37 -0.53 -0.11c-0.18,-0.04 -0.32,-0.11 -0.43,-0.2 -0.11,-0.08 -0.17,-0.21 -0.17,-0.38l0 -0.95 1.13 0 0 -0.45c0,-0.46 0.07,-0.87 0.22,-1.25 0.15,-0.37 0.36,-0.68 0.63,-0.95 0.28,-0.26 0.62,-0.46 1.01,-0.61 0.4,-0.14 0.85,-0.21 1.35,-0.21 0.2,0 0.38,0.01 0.55,0.04 0.17,0.02 0.34,0.07 0.52,0.13l-0.04 1.15c-0.01,0.08 -0.03,0.14 -0.07,0.2 -0.04,0.05 -0.09,0.09 -0.14,0.13 -0.06,0.03 -0.12,0.05 -0.19,0.07 -0.07,0.02 -0.14,0.02 -0.21,0.02 -0.21,0 -0.4,0.02 -0.56,0.07 -0.17,0.04 -0.3,0.11 -0.41,0.21 -0.12,0.11 -0.2,0.25 -0.26,0.42 -0.05,0.17 -0.08,0.39 -0.08,0.66l0 0.37 1.88 0 0 1.64 -1.8 0 0 6.37 -2.4 0z"/>
   <path id="10" fill="black" fill-rule="nonzero" d="M92.05 21.96c-0.38,0 -0.71,-0.06 -1,-0.17 -0.29,-0.11 -0.54,-0.27 -0.74,-0.47 -0.2,-0.21 -0.35,-0.45 -0.45,-0.74 -0.1,-0.29 -0.16,-0.61 -0.16,-0.97l0 -4.15 -0.68 0c-0.12,0 -0.23,-0.04 -0.31,-0.12 -0.09,-0.07 -0.13,-0.19 -0.13,-0.34l0 -0.92 1.27 -0.25 0.47 -1.97c0.06,-0.25 0.24,-0.38 0.53,-0.38l1.25 0 0 2.34 1.95 0 0 1.64 -1.95 0 0 3.98c0,0.19 0.05,0.34 0.14,0.46 0.09,0.12 0.22,0.19 0.39,0.19 0.08,0 0.16,-0.01 0.22,-0.03 0.06,-0.02 0.11,-0.04 0.15,-0.06 0.05,-0.03 0.09,-0.05 0.13,-0.07 0.03,-0.01 0.08,-0.02 0.13,-0.02 0.07,0 0.13,0.01 0.18,0.05 0.04,0.03 0.08,0.08 0.13,0.16l0.73 1.14c-0.31,0.23 -0.66,0.41 -1.05,0.52 -0.38,0.12 -0.78,0.18 -1.2,0.18z"/>
   <path id="11" fill="black" fill-rule="nonzero" d="M94.5 13.81l1.91 0c0.17,0 0.32,0.04 0.44,0.12 0.13,0.07 0.2,0.17 0.23,0.3l0.8 3.6c0.06,0.27 0.12,0.54 0.17,0.79 0.05,0.26 0.1,0.52 0.14,0.77 0.07,-0.25 0.15,-0.51 0.23,-0.76 0.08,-0.26 0.16,-0.53 0.24,-0.8l1 -3.61c0.03,-0.12 0.11,-0.22 0.22,-0.3 0.12,-0.08 0.26,-0.12 0.41,-0.12l1.07 0c0.17,0 0.32,0.04 0.44,0.12 0.12,0.08 0.2,0.18 0.23,0.3l0.95 3.61c0.08,0.27 0.15,0.54 0.23,0.79 0.07,0.26 0.14,0.52 0.21,0.78 0.04,-0.25 0.09,-0.51 0.15,-0.77 0.06,-0.25 0.12,-0.52 0.19,-0.8l0.85 -3.6c0.02,-0.13 0.1,-0.23 0.22,-0.3 0.12,-0.08 0.26,-0.12 0.41,-0.12l1.83 0 -2.49 8.02 -1.95 0c-0.1,0 -0.19,-0.03 -0.26,-0.09 -0.08,-0.06 -0.13,-0.16 -0.17,-0.31l-1.15 -4c-0.05,-0.18 -0.1,-0.36 -0.14,-0.53 -0.05,-0.18 -0.09,-0.35 -0.13,-0.53 -0.03,0.18 -0.07,0.36 -0.12,0.54 -0.04,0.18 -0.09,0.35 -0.15,0.54l-1.16 3.98c-0.08,0.27 -0.25,0.4 -0.51,0.4l-1.85 0 -2.49 -8.02z"/>
   <path id="12" fill="black" fill-rule="nonzero" d="M113.53 21.83c-0.23,0 -0.4,-0.03 -0.51,-0.09 -0.12,-0.06 -0.22,-0.19 -0.3,-0.39l-0.17 -0.44c-0.2,0.17 -0.39,0.32 -0.58,0.45 -0.18,0.13 -0.37,0.24 -0.57,0.33 -0.2,0.09 -0.41,0.16 -0.63,0.2 -0.23,0.04 -0.48,0.07 -0.75,0.07 -0.37,0 -0.7,-0.05 -1,-0.15 -0.3,-0.09 -0.55,-0.23 -0.76,-0.42 -0.21,-0.19 -0.37,-0.42 -0.48,-0.69 -0.12,-0.28 -0.17,-0.6 -0.17,-0.96 0,-0.29 0.07,-0.58 0.21,-0.88 0.15,-0.3 0.4,-0.57 0.75,-0.81 0.36,-0.25 0.84,-0.46 1.44,-0.62 0.6,-0.17 1.36,-0.25 2.28,-0.25l0 -0.34c0,-0.48 -0.09,-0.82 -0.29,-1.03 -0.19,-0.21 -0.47,-0.32 -0.82,-0.32 -0.28,0 -0.52,0.04 -0.7,0.1 -0.18,0.06 -0.34,0.13 -0.48,0.21 -0.14,0.07 -0.28,0.14 -0.41,0.2 -0.14,0.07 -0.3,0.1 -0.48,0.1 -0.17,0 -0.31,-0.04 -0.42,-0.12 -0.12,-0.08 -0.21,-0.18 -0.28,-0.3l-0.43 -0.75c0.48,-0.43 1.02,-0.75 1.61,-0.96 0.59,-0.21 1.22,-0.32 1.9,-0.32 0.48,0 0.92,0.08 1.31,0.24 0.39,0.16 0.72,0.38 0.99,0.66 0.27,0.28 0.48,0.61 0.62,1 0.14,0.39 0.22,0.81 0.22,1.27l0 5.01 -1.1 0zm-2.75 -1.47c0.31,0 0.58,-0.05 0.81,-0.16 0.23,-0.1 0.46,-0.27 0.7,-0.51l0 -1.1c-0.48,0 -0.87,0.03 -1.18,0.09 -0.31,0.06 -0.55,0.14 -0.74,0.23 -0.18,0.1 -0.3,0.2 -0.37,0.32 -0.07,0.12 -0.1,0.25 -0.1,0.39 0,0.27 0.07,0.47 0.22,0.58 0.15,0.11 0.37,0.16 0.66,0.16z"/>
   <path id="13" fill="black" fill-rule="nonzero" d="M116.33 21.83l0 -8.02 1.42 0c0.12,0 0.22,0.01 0.3,0.03 0.08,0.02 0.15,0.05 0.2,0.1 0.05,0.04 0.09,0.1 0.12,0.17 0.03,0.08 0.05,0.16 0.08,0.27l0.13 0.75c0.29,-0.45 0.62,-0.82 0.99,-1.08 0.36,-0.26 0.76,-0.4 1.19,-0.4 0.37,0 0.66,0.09 0.89,0.27l-0.31 1.77c-0.02,0.11 -0.07,0.18 -0.13,0.22 -0.06,0.05 -0.14,0.07 -0.24,0.07 -0.09,0 -0.2,-0.01 -0.31,-0.03 -0.12,-0.03 -0.27,-0.04 -0.45,-0.04 -0.63,0 -1.13,0.36 -1.49,1.08l0 4.84 -2.39 0z"/>
   <path id="14" fill="black" fill-rule="nonzero" d="M126.14 13.69c0.54,0 1.02,0.08 1.46,0.24 0.44,0.17 0.82,0.41 1.14,0.72 0.32,0.32 0.56,0.7 0.74,1.16 0.18,0.45 0.27,0.97 0.27,1.55 0,0.18 -0.01,0.32 -0.03,0.44 -0.01,0.11 -0.04,0.2 -0.08,0.27 -0.04,0.07 -0.1,0.11 -0.17,0.14 -0.07,0.02 -0.16,0.04 -0.26,0.04l-4.63 0c0.08,0.67 0.28,1.16 0.61,1.46 0.33,0.3 0.76,0.45 1.28,0.45 0.28,0 0.52,-0.03 0.72,-0.1 0.2,-0.06 0.38,-0.14 0.54,-0.22 0.15,-0.09 0.3,-0.16 0.43,-0.23 0.13,-0.06 0.27,-0.1 0.41,-0.1 0.19,0 0.34,0.07 0.43,0.22l0.7 0.87c-0.25,0.28 -0.51,0.51 -0.8,0.68 -0.28,0.18 -0.58,0.32 -0.88,0.41 -0.3,0.1 -0.6,0.17 -0.9,0.21 -0.31,0.04 -0.59,0.06 -0.87,0.06 -0.56,0 -1.08,-0.1 -1.58,-0.28 -0.49,-0.18 -0.92,-0.45 -1.29,-0.81 -0.37,-0.37 -0.66,-0.81 -0.87,-1.35 -0.22,-0.54 -0.32,-1.16 -0.32,-1.87 0,-0.54 0.09,-1.05 0.27,-1.53 0.19,-0.48 0.45,-0.9 0.79,-1.26 0.34,-0.36 0.76,-0.65 1.25,-0.86 0.48,-0.21 1.03,-0.31 1.64,-0.31zm0.05 1.65c-0.46,0 -0.82,0.13 -1.07,0.39 -0.26,0.26 -0.43,0.64 -0.51,1.13l2.99 0c0,-0.2 -0.03,-0.38 -0.07,-0.56 -0.05,-0.18 -0.13,-0.34 -0.24,-0.49 -0.11,-0.14 -0.26,-0.25 -0.44,-0.34 -0.18,-0.09 -0.4,-0.13 -0.66,-0.13z"/>
   <path fill="#FEFEFE" stroke="#373435" stroke-width="0.32" stroke-miterlimit="22.9256" d="M5.44 19.3l0.5 0 0.05 0 0.81 0 0.74 0 0.5 0 0.75 0 0.37 0 0.15 0 0.13 0 0.29 0 0.21 0.62 0.33 0.97 0.05 0.16 0.07 0.21c0.06,0.17 0.16,0.3 0.31,0.41 0.15,0.1 0.33,0.16 0.56,0.16l0.11 0 1.82 0c0.03,-0.01 0.06,-0.01 0.09,-0.02l-0.54 -1.38 -0.45 -1.17 -0.1 -0.26 -1.58 -4.08 -0.02 -0.07 -0.32 -0.82 -0.11 -0.28 -0.25 -0.64 -0.2 -0.53 -0.26 -0.65 -0.25 -0.66 -0.19 -0.5 -0.09 -0.22 -0.08 0 -1.24 0 -1.24 0 -0.11 0 -0.25 0.64 -1.52 3.95 -0.42 1.08 -0.17 0.43 -0.74 1.91 -0.68 1.77 -0.21 0.53 -0.37 0.97 0.66 0 1.33 0 0.05 0c0.22,0 0.4,-0.06 0.55,-0.18 0.15,-0.12 0.25,-0.24 0.3,-0.39l0.01 -0.03 0.13 -0.38 0.5 -1.49 0.02 -0.06zm0.61 -1.78l0.33 -0.96 0.7 -2.07c0.08,-0.19 0.16,-0.42 0.25,-0.68 0.09,-0.27 0.17,-0.55 0.26,-0.86 0.04,0.14 0.08,0.28 0.12,0.41 0.05,0.15 0.1,0.3 0.14,0.44 0.05,0.12 0.09,0.23 0.12,0.34 0.04,0.12 0.08,0.24 0.12,0.34l0.07 0.22 0.21 0.59 0.75 2.23 -0.38 0 -0.54 0 -0.46 0 -0.64 0 -0.26 0 -0.79 0z"/>
   <path fill="#FEFEFE" stroke="#373435" stroke-width="0.32" stroke-miterlimit="22.9256" d="M16.11 17.68l-1.07 1.65 -0.24 0.38 -0.06 0.09 -0.59 0.92 -0.23 0.34 -0.46 0.72 -0.04 0.05 2.14 0c0.02,0 0.05,0 0.07,0 0.12,-0.01 0.23,-0.06 0.31,-0.13 0.07,-0.06 0.14,-0.12 0.19,-0.19 0.02,-0.03 0.04,-0.06 0.06,-0.09l0.48 -0.82 0.69 -1.18c0.05,-0.07 0.08,-0.14 0.12,-0.22 0.03,-0.06 0.06,-0.13 0.08,-0.21 0.01,-0.01 0.01,-0.02 0.01,-0.03l0.03 0.04 0.06 0.1 0.31 0.54 0.23 0.4 0.34 0.58 0.46 0.8c0.07,0.11 0.16,0.21 0.26,0.29 0.01,0.01 0.03,0.02 0.04,0.03 0.1,0.06 0.22,0.09 0.37,0.09l1.2 0 1.1 0 -0.45 -0.71 -0.1 -0.16 -0.02 -0.03 -0.33 -0.53 -0.17 -0.26 -0.29 -0.47 -0.49 -0.77 -0.3 -0.47 -0.54 -0.85 1.15 -1.68 1.09 -1.59 0.34 -0.5 -0.5 0 -0.28 0 -0.94 0 -0.47 0c-0.12,0 -0.22,0.03 -0.3,0.07 -0.01,0.01 -0.02,0.01 -0.03,0.02 -0.07,0.05 -0.14,0.13 -0.2,0.23l-0.02 0.04 -0.73 1.28 -0.27 0.47c-0.03,0.05 -0.05,0.1 -0.08,0.14 -0.02,0.05 -0.05,0.1 -0.07,0.14 -0.05,0.09 -0.09,0.18 -0.12,0.27l-0.28 -0.46 0 -0.01 -1.15 -1.9c-0.05,-0.09 -0.1,-0.15 -0.16,-0.19 -0.02,-0.01 -0.03,-0.02 -0.05,-0.03 -0.08,-0.05 -0.21,-0.07 -0.38,-0.07l-0.44 0 -1.86 0 1.98 2.97 0.31 0.47 0.28 0.42 0.01 0.01z"/>
   <path fill="#FEFEFE" stroke="#373435" stroke-width="0.32" stroke-miterlimit="22.9256" d="M23.05 15.95l0 4.06 0 1.5 0 0.32 2 0 2.5 0c0.68,0 1.28,-0.08 1.8,-0.25 0.38,-0.13 0.72,-0.29 1.01,-0.48 0.12,-0.08 0.22,-0.16 0.32,-0.24 0.18,-0.16 0.34,-0.32 0.48,-0.51 0.13,-0.17 0.24,-0.36 0.34,-0.57 0.14,-0.31 0.22,-0.64 0.26,-0.99 0.01,-0.11 0.01,-0.23 0.01,-0.34 0,-0.63 -0.17,-1.15 -0.53,-1.55 -0.35,-0.41 -0.9,-0.7 -1.65,-0.88 0.34,-0.12 0.64,-0.27 0.88,-0.44 0.24,-0.17 0.44,-0.35 0.59,-0.56 0.16,-0.21 0.27,-0.43 0.34,-0.66 0.08,-0.24 0.11,-0.49 0.11,-0.74 0,-0.22 -0.02,-0.44 -0.05,-0.64 -0.04,-0.22 -0.1,-0.43 -0.18,-0.62 -0.16,-0.38 -0.41,-0.7 -0.76,-0.97 -0.03,-0.02 -0.06,-0.05 -0.1,-0.07 -0.12,-0.08 -0.25,-0.16 -0.4,-0.23 -0.24,-0.12 -0.52,-0.23 -0.84,-0.31 -0.47,-0.13 -1.02,-0.2 -1.66,-0.21 -0.11,-0.01 -0.21,-0.01 -0.32,-0.01l-0.23 0 -0.25 0 -3.54 0 -0.13 0 0 1.67 0 3.72zm2.62 3.9l0 -1.83 0 -0.96 0.86 0 0.96 0c0.33,0 0.6,0.03 0.82,0.09 0.08,0.02 0.16,0.05 0.23,0.08 0.12,0.05 0.21,0.11 0.29,0.18 0.07,0.05 0.12,0.11 0.16,0.18 0.05,0.07 0.09,0.15 0.12,0.24 0.06,0.16 0.08,0.35 0.08,0.55 0,0.18 -0.02,0.36 -0.07,0.53 -0.04,0.18 -0.13,0.34 -0.25,0.48 -0.13,0.13 -0.3,0.25 -0.52,0.33 -0.21,0.09 -0.5,0.13 -0.84,0.13 0,0 0,0 0,0l-1.84 0zm0.87 -4.54l-0.87 0 0 -0.96 0 -1.82 0.5 0 0.83 0 0.2 0c0.29,0 0.55,0.02 0.76,0.07 0.21,0.04 0.39,0.12 0.53,0.23 0.14,0.11 0.24,0.25 0.31,0.43 0.06,0.17 0.1,0.4 0.1,0.67 0,0.27 -0.04,0.5 -0.13,0.68 -0.08,0.18 -0.21,0.32 -0.37,0.42 -0.16,0.1 -0.36,0.18 -0.59,0.22 -0.23,0.04 -0.49,0.06 -0.78,0.06l-0.25 0 -0.06 0 -0.05 0 -0.13 0z"/>
  </g>
 </g>
</svg>
