<?xml version="1.0" encoding="UTF-8"?>
<!DOCTYPE svg PUBLIC "-//W3C//DTD SVG 1.1//EN" "http://www.w3.org/Graphics/SVG/1.1/DTD/svg11.dtd">
<!-- Creator: CorelDRAW 2018 (64-Bit) -->
<svg xmlns="http://www.w3.org/2000/svg" xml:space="preserve" width="250px" height="62px" version="1.1" shape-rendering="geometricPrecision" text-rendering="geometricPrecision" image-rendering="optimizeQuality" fill-rule="evenodd" clip-rule="evenodd"
viewBox="0 0 105.92 26.29"
 xmlns:xlink="http://www.w3.org/1999/xlink">
 <g id="Layer_x0020_1">
  <metadata id="CorelCorpID_0Corel-Layer"/>
  <g id="_1831444765120">
   <g>
    <path fill="#060506" d="M12.76 13.14c0.08,-0.62 0.86,-0.55 1.05,-0.02 0.31,0.34 0.12,0.72 -0.21,1.11 -0.37,-0.04 -0.62,-0.17 -0.69,-0.47 0.51,0.31 0.44,0.09 0.45,0.08 -0.27,-0.07 -0.49,-0.21 -0.69,-0.38l0.09 -0.32zm-2.83 -0.44c-0.33,-0.68 1.03,-2.39 1.46,-2.87l0.43 0.08c-0.08,0.24 -0.34,0.42 -0.52,0.64 -0.45,0.53 -0.98,1.61 -1.37,2.15zm2.13 -2.77c0.39,-0.61 1.67,-0.97 2.61,-0.99 0.19,0.2 0.24,0.2 0.32,0.49 -1.08,0 -1.4,0 -2.27,0.47 -0.33,0.17 -0.29,0.11 -0.66,0.03zm-1.1 -0.32c0.41,-0.72 1.51,-1.33 2.64,-1.76 0.02,0.01 0.04,0.03 0.05,0.04l0.27 0.21c0.22,0.2 0.07,-0.03 0.22,0.27 -0.69,0.21 -1.13,0.23 -1.73,0.61 -0.96,0.61 -0.83,0.85 -1.45,0.63zm1.56 -2.95l-0.07 0.23c0.11,0.06 0.44,0.31 0.53,0.45 -0.74,0.39 -1.59,0.82 -2.18,1.48 -0.22,0.25 -0.25,0.41 -0.59,0.67l-0.01 0.06 0.61 0.13c-0.5,0.63 -0.81,1.24 -1.22,2.14 -0.25,0.54 -0.42,0.61 -0.29,1.28 0.07,0.33 0.32,0.97 0.6,1.18 -0.04,-0.37 -0.09,-0.88 0.03,-1.2 0.16,0.26 0.3,1.21 0.82,1.67 -0.1,-0.48 -0.2,-0.68 -0.2,-1.21l0.32 0.38c0.24,0.49 0.53,0.84 0.58,0.95l-0.19 -0.93c0.18,0.44 0.43,0.75 0.84,0.95l-0.21 -0.35c-0.14,-0.53 -0.05,-0.13 0.07,-0.29 0.43,0.64 0.82,0.83 1.88,0.82 -0.42,0.22 -0.73,0.12 -1.27,0.1 0.14,0.18 -0.07,0.02 0.2,0.18 0.24,0.15 0.21,0.01 0.53,0.24 -0.66,0.13 -0.97,-0.09 -1.51,-0.34 0.2,0.36 0.32,0.32 0.58,0.63 -0.49,-0.07 -0.97,-0.43 -1.22,-0.72 -0.13,-0.05 -0.07,-0.02 -0.25,-0.14 0.12,0.43 0.41,0.67 0.6,1 -0.4,-0.09 -1.34,-1.1 -1.46,-1.32 0.04,0.46 0.26,0.82 0.38,1.23 -0.46,-0.25 -0.92,-0.89 -1.25,-1.47 -0.15,0.1 -0.14,-0.32 -0.12,0.3l0.12 0.53 0.17 0.55c-0.4,-0.22 -1.28,-1.51 -1.35,-1.93 -0.15,0.13 -0.14,0.19 -0.13,0.46l0.2 1.27c-0.34,-0.16 -0.63,-0.69 -0.84,-1 -0.22,-0.34 -0.51,-0.83 -0.59,-1.25l-0.03 -0.15c-0.31,0.06 -0.19,0.44 -0.16,1.13 0.02,0.33 0.15,0.85 -0.01,1.06 -0.09,-0.12 -0.11,-0.16 -0.19,-0.37 -0.31,-0.06 -1.45,-2.21 -1.62,-2.63 -0.04,0.09 -0.05,0.14 -0.09,0.27l-0.12 0.26c0.06,0.48 -0.09,1.24 -0.09,1.8 0,0.59 0.02,0.42 0.66,1.13l1.81 1.82 0.33 0.2c0.3,-0.01 -0.4,-1.1 -0.49,-2.19 0.25,0.11 1.06,1.21 2.08,2.02 0.2,-0.11 0.05,0.07 0.09,-0.23 -0.22,-0.27 -0.43,-0.92 -0.5,-1.34 0.38,0.16 0.65,0.54 0.95,0.8 0.33,0.27 0.62,0.47 0.99,0.69 0.25,-0.1 0.09,0.02 -0.31,-0.69 -0.13,-0.25 -0.32,-0.56 -0.34,-0.79 0.23,0.38 0.91,0.55 1.17,0.91 0.31,0.02 0.47,0.2 0.84,0.26 -0.31,-0.35 -0.49,-0.43 -0.74,-0.93 0.68,0.19 0.94,0.55 1.89,0.53l-0.95 -0.71c0.81,0.17 0.93,0.27 1.9,0.19 -0.05,-0.04 -0.06,-0.05 -0.15,-0.1l-0.57 -0.21c0.23,-0.14 0.44,-0.11 0.8,-0.19 0.32,-0.08 0.49,-0.16 0.76,-0.26l-0.78 -0.09c0.38,-0.17 1.12,-0.54 1.32,-0.91l-0.56 0.15c1.19,-1.05 0.64,-1.4 1.21,-2.12 0.14,0.76 -0.16,1.17 -0.41,1.76 0.39,-0.17 0.38,-0.3 0.65,-0.42 -0.05,0.21 -0.11,0.36 -0.2,0.52 -0.37,0.66 -1.14,0.82 -0.84,0.95l0.74 -0.24c-0.12,0.23 -0.41,0.49 -0.68,0.65 -0.31,0.19 -0.69,0.27 -0.89,0.47l1.03 -0.02c-0.44,0.48 -1.36,0.51 -2.1,0.65l1.22 0.42c-1,0.15 -1.19,0.14 -2.22,0.09 0.26,0.42 0.79,0.43 1.13,0.76 -0.62,0.07 -1.94,-0.06 -2.31,-0.4 -0.22,0.05 -0.22,-0.15 -0.13,0.18 0.29,0.19 0.77,0.71 1.16,1.01 -0.58,0.03 -2.3,-0.56 -2.48,-0.88 -0.06,0.01 -0.35,-0.08 0.01,0.44 0.12,0.16 0.17,0.23 0.29,0.4 0.21,0.28 0.5,0.52 0.61,0.83 -0.93,-0.09 -2.15,-1.11 -2.75,-1.66 -0.08,0.1 -0.07,-0.14 -0.04,0.29l0.97 1.96c-0.56,-0.03 -2.8,-1.9 -3.48,-2.06 0.05,0.65 0.45,1.21 0.49,1.71 0.26,0.26 0.47,1.11 0.46,1.37 -0.61,0 -0.87,-0.46 -1.45,-0.56 0.03,0.06 0.08,0.18 0.13,0.29l-0.03 0.07c0.41,0.24 0.59,0.73 1.12,0.99 0.3,-0.11 0.2,-0.18 0.57,-0.28 0.06,-0.47 1.07,0.06 1.35,0.17 0.37,0.14 1.11,0.48 1.34,0.66l0.1 0.03c0.32,0.07 0.84,0.33 1.12,0.24 -0.09,-0.26 -0.54,-0.76 -0.76,-1.06 -0.24,-0.33 -0.64,-0.76 -0.69,-1.25 1.03,0.36 0.4,0.32 2.01,0.68l1.41 0.07 -0.23 -0.34c-0.02,-0.01 -0.04,-0.03 -0.05,-0.05 -0.23,-0.05 -0.58,-0.35 -0.71,-0.46 -0.27,-0.23 -0.47,-0.33 -0.61,-0.68l1 0.16c0.4,0.02 0.79,0.06 1.18,0.04 0.17,-0.01 0.41,-0.02 0.58,-0.05 0.38,-0.05 0.36,0.01 0.4,-0.22 -0.25,0 -1.2,-0.44 -1.37,-0.58 -0.17,-0.14 -0.05,0.01 -0.17,-0.18l1.88 -0.1c0.21,-0.17 0.7,-0.23 0.96,-0.35 -0.24,-0.12 -0.3,-0.02 -0.5,-0.18 -0.25,0.01 -0.31,0 -0.55,-0.05 -0.28,-0.06 -0.3,-0.05 -0.48,-0.21 0.87,-0.15 1.9,-0.43 2.4,-0.93l-1.32 0.04c0.21,-0.23 0.75,-0.41 1.09,-0.63l0.73 -0.59c0.2,-0.24 0.22,-0.1 0.02,-0.18l-1.01 0.32 1.23 -1.28 0.17 -0.43c-0.31,0.13 -0.49,0.32 -0.86,0.47 0.11,-0.22 0.27,-0.39 0.38,-0.63 0.08,-0.17 0.24,-0.55 0.29,-0.63l0.09 -0.73c-0.33,0.26 -0.22,0.46 -0.59,0.69 0.11,-0.57 0.17,-1.35 -0.19,-1.84l-0.3 0.41c-0.13,-0.29 -0.34,-0.99 -1.01,-1.16 -0.44,-0.12 -0.18,-0.02 -0.27,0.03l-0.28 0.21 -0.28 -0.15c0.02,-0.02 0.04,-0.03 0.05,-0.04 0.4,-0.3 0.14,0.17 0.26,-0.2 0.01,-0.04 0.04,-0.03 0.05,-0.04l-0.22 -0.18c0.41,-0.1 0.8,0.06 1.1,0.23 0.15,0.08 0.26,0.16 0.42,0.26 0.41,0.26 0.32,0.15 0.28,0.25 0,-0.33 0,-0.39 0.18,-0.56 0.17,0.2 0.11,0.04 0.24,0.33 0.12,0.16 0.26,0.44 0.35,0.75 0.08,0.26 0.1,0.72 0.25,0.93l0.39 -0.82 0.06 0.26c0.16,0.76 -0.06,1.28 -0.23,1.96 0.17,-0.16 0.64,-0.55 0.77,-0.64 -0.09,0.6 -0.33,1.06 -0.63,1.54l-0.35 0.38c-0.05,0.18 0.14,-0.02 -0.09,0.18 0.22,-0.01 0.4,-0.11 0.62,-0.23 0.11,-0.06 0.19,-0.12 0.3,-0.18 0.26,-0.13 0.21,-0.22 0.25,-0.01l0.33 -0.29c-0.2,-0.15 -0.22,0.22 -0.08,-0.3 0.01,-0.01 0.11,-0.24 0.13,-0.27 0.19,-0.47 0.53,-1.55 0.25,-1.94 -0.1,0.31 -0.39,0.65 -0.61,0.82l0.02 -1.19c-0.24,-0.36 -0.16,-0.89 -0.56,-1.2 -0.05,0.29 -0.08,0.65 -0.22,0.84 -0.24,-0.38 -0.31,-0.61 -0.57,-0.94 -0.22,-0.28 -0.44,-0.46 -0.78,-0.7 -0.26,0.01 -0.11,-0.09 -0.14,0.17 0,0.01 0.04,0.29 0.04,0.33 -0.82,-0.54 -1.11,-0.49 -2.21,-0.29 0.06,0.23 0.07,0.16 0.2,0.27 -1.51,0.5 -1.18,0.72 -1.76,1.08l0.07 0.2c0.06,0.3 -0.02,0.29 0,0.55l0.26 -0.34c-0.06,0.18 -0.1,0.24 -0.17,0.44l-0.1 0.23c-0.34,0.45 -0.18,0.11 -0.25,0.95 -0.23,-0.22 -0.18,-0.27 -0.19,-0.64 -0.03,-0.83 -0.1,-0.59 -0.11,-0.72 -0.01,-0.03 -0.03,-0.04 -0.04,-0.05l-0.2 0.86 -0.12 -0.25c-0.02,-0.09 -0.04,-0.2 -0.05,-0.29 -0.01,-0.21 0,-0.4 -0.01,-0.6 -0.19,0.01 -0.36,0.74 -0.42,0.95l-0.08 -0.81c0.19,-0.18 0.15,-0.06 0.31,-0.29 0.06,-0.07 0.14,-0.24 0.2,-0.33 0.09,-0.16 0.12,-0.22 0.22,-0.39 0.19,-0.32 0.02,-0.06 0.23,-0.3 0.47,-0.53 0.8,-0.94 1.35,-0.77 -0.19,0.25 -1.32,0.88 -1.63,1.88l0.07 -0.02c0.33,-0.21 0.3,-0.03 0.56,-0.37 0.39,-0.52 0.83,-0.91 1.53,-1.16 -0.15,-0.28 -0.12,-0.09 -0.32,-0.32 1.02,-0.63 2,-0.14 2.5,-0.16l-0.26 -0.5c0.31,0.01 0.69,0.1 0.89,0.31 0.46,0.1 0.76,0.55 0.93,0.79 0.03,0.03 0.13,0.15 0.16,0.17 0.12,0.12 -0.02,0.01 0.16,0.12l0.02 -0.83c0.22,0 0.09,-0.02 0.25,0.17 0.09,0.11 0.14,0.18 0.2,0.27 0.16,0.23 0.25,0.37 0.33,0.66 0.18,0.18 0.3,0.62 0.27,0.94l0.21 0.25c0.05,-0.16 0.34,-0.79 0.44,-0.96l0.15 0.31c0.27,0.94 -0.02,2.04 -0.01,2.2 0,0.24 -0.11,0.15 0.09,0.24 0.04,-0.18 0.27,-0.33 0.42,-0.5 0.16,-0.18 0.21,-0.28 0.49,-0.42 -0.02,0.74 -0.29,1.64 -0.59,2.17 -0.07,0.24 -0.1,0.25 -0.18,0.44 -0.19,0.44 -0.14,0.2 0.01,0.29 0.02,-0.01 1.26,-0.78 1.37,-0.83 -0.38,1.44 -1.29,2.27 -1.67,2.9l2 -0.63c0.27,-0.33 0.42,-0.83 0.67,-1.21 0.17,0.07 0.08,0.04 0.21,0.18 0.01,0.02 0.05,0.08 0.06,0.09 0.08,0.1 0.03,0.06 0.11,0.12 0.42,-0.41 1.71,-2.08 1.73,-2.74 -0.12,-0.15 -0.05,-0.02 -0.08,-0.23 -0.07,-0.27 -0.36,-0.5 -0.57,-0.7 -0.2,-0.2 -0.42,-0.47 -0.61,-0.53l-0.06 0.16c-0.06,1.16 0,1.11 -0.54,1.54 -0.37,0.3 -0.61,0.59 -1.09,0.82 0.18,-1.14 0.33,-1.62 0.29,-2.89l0.01 -0.27c-0.24,-0.01 -0.12,-0.06 -0.32,0.23 -0.18,0.24 -0.46,0.75 -0.71,0.84 -0.01,-0.59 -0.03,-1.04 -0.17,-1.59 -0.1,-0.36 -0.43,-1.08 -0.44,-1.27 -0.09,-0.04 -0.12,-0.01 -0.17,-0.08l-0.13 0.19c0.01,0.31 -0.11,0.72 -0.27,0.92 -0.12,-0.19 -0.17,-0.38 -0.29,-0.61 -0.14,-0.26 -0.25,-0.36 -0.28,-0.57l-0.1 -0.09c-0.41,-0.38 -0.57,-0.68 -1.15,-0.91l0.05 0.79 -0.92 -0.52c-1.33,-0.8 -1.3,-0.01 -1.93,-0.7 -0.24,-0.25 -0.09,0 -0.22,-0.28 0.45,-0.06 1.2,-0.09 1.56,0.08 0.52,0.04 0.98,0.3 1.41,0.46l-0.17 -0.82c0.64,0.12 1.57,0.89 1.96,1.36 0.53,0.63 0.15,0.46 0.58,0.53 -0.02,-0.14 -0.04,0.01 -0.02,-0.22 0.02,-0.15 0.04,-0.09 0.08,-0.16l0.03 -0.74c0.37,0.12 0.6,0.57 0.79,0.89 0.17,0.28 0.42,0.7 0.45,1.05 0.04,0.05 0.05,0.06 0.09,0.16 0.01,0.02 0.02,0.04 0.03,0.06 0.12,0.29 0.03,0.51 0.31,0.73l0.02 -0.06c0.09,-0.23 0.55,-1.15 0.7,-1.33 0.19,0.2 0.29,0.6 0.35,0.88 0.09,0.38 0.14,0.68 0.18,1.07l0.2 -0.18c-0.03,-0.52 0.11,-1.27 0.07,-1.92 -0.22,-0.21 -0.09,0.13 -0.19,-0.37 0,-0.01 0,-0.29 0,-0.31 -0.21,-0.11 -0.08,-0.07 -0.13,-0.22 -0.22,-0.24 -0.69,-0.38 -1.04,-0.52 -0.92,-0.35 -1.04,-1.09 -1.46,-1.67 -0.17,-0.24 -0.39,-0.58 -0.62,-0.74l-0.08 -0.04c-0.24,0.01 -0.15,0.16 -0.2,-0.08 -0.32,-0.09 -0.78,-0.05 -1.03,0.06l0.22 0.14c0.4,0.21 0.84,0.27 1.41,0.77l-0.03 1.41c-0.33,-0.12 -1.48,-1.49 -3.1,-1.59l0.26 0.88 -0.48 -0.14c-1.41,-0.23 -1.52,-0.12 -2.83,0.08 -0.08,-0.09 -0.12,-0.13 -0.22,-0.24l-0.22 -0.24c0.56,-0.4 1.61,-0.47 2.37,-0.47l1.04 0.06c-0.11,-0.48 -0.31,-0.66 -0.48,-0.97 -0.4,-0.19 -0.94,-0.45 -1.41,-0.43l-0.22 0.05c-0.49,0 -1.62,1.05 -1.92,1.07z"/>
    <path fill="#060503" d="M18.18 15.15l-0.33 0.29 -0.15 0.19c-0.66,0.99 -1.29,1.33 -1.55,1.64l0.34 0.03c0.02,-0.01 0.04,-0.02 0.06,-0.03 0.01,0 0.04,-0.02 0.06,-0.03l0.94 -0.23c-0.27,0.32 -0.65,0.66 -1.07,0.93 -0.22,0.14 -0.37,0.25 -0.61,0.38 -0.21,0.12 -0.49,0.2 -0.59,0.41l1.62 -0.03c-0.08,0.11 -0.02,0.05 -0.12,0.14 -0.02,0.02 -0.09,0.08 -0.09,0.08 -0.09,0.06 -0.15,0.09 -0.28,0.14 -0.38,0.29 -1.63,0.9 -2.19,0.87 -0.13,0.15 0.12,0.02 -0.14,0.18l1.88 0.45c-0.42,0.26 -1.12,0.48 -1.65,0.64 -0.71,0.2 -0.88,0.16 -1.43,0.26 -0.26,0.05 -0.33,-0.02 -0.3,0.19 0.61,0.07 1.53,0.93 2.55,0.81l0.65 -0.22 -0.3 1.44 1.22 -0.06 1.34 -0.18c0.02,-0.02 0.04,-0.03 0.05,-0.04l0.41 -0.16c0.23,-0.05 1.13,-0.21 1.2,-0.46l-0.11 -1.83 -0.25 0.07c-0.64,0.07 -1.35,0.61 -2.22,0.61 0.11,-0.17 1.11,-0.85 1.26,-0.85 -0.03,-0.26 0.01,-0.18 -0.41,-0.19l-1.66 -0.07c0.07,-0.15 1.08,-0.72 1.25,-0.76l0.21 -0.22c0.08,-0.06 0.14,-0.1 0.22,-0.16 0.17,-0.13 0.24,-0.2 0.37,-0.32 0.23,-0.19 0.52,-0.41 0.67,-0.72 -0.44,0.04 -1.49,0.4 -1.8,0.24 0.42,-0.36 0.77,-0.64 1.09,-1.01 0.12,-0.15 0.9,-1.12 0.92,-1.13 -0.08,-0.13 0.14,-0.22 -0.29,-0.02l-1.11 0.41c0.15,-0.31 0.34,-0.45 0.52,-0.75 0.15,-0.24 0.25,-0.54 0.46,-0.74l0.27 -0.82c-0.08,-0.2 0.06,-0.15 -0.19,0.02l-0.72 0.61z"/>
    <path fill="#060503" d="M9.9 6.07c-0.23,0.28 -0.15,0 -0.34,0.37 -0.09,0.16 -0.09,0.21 -0.2,0.41 -0.13,0.25 -0.27,0.51 -0.4,0.78 -0.05,0.21 -0.14,0.42 -0.22,0.59 0,0.02 -0.11,0.29 -0.11,0.29 -0.02,0.47 -0.13,0.18 0.13,0.3 0.19,-0.43 1.29,-1 1.51,-1.05 -0.12,0.12 -0.21,0.3 -0.29,0.48 -0.12,0.26 -0.1,0.37 -0.31,0.55 -0.02,0.39 -0.57,1.24 -0.82,1.67 -0.2,0.32 -0.21,0.3 -0.63,0.3 -0.02,-0.53 0.08,-0.77 0.12,-1.21l0.13 -0.37c-0.09,-0.18 0.08,-0.25 -0.2,-0.01 -0.25,0.22 -0.98,1.26 -1.12,1.57 -0.06,-0.37 -0.05,-1.86 0.2,-2.21 -0.05,-0.23 0.02,-0.23 0,-0.35 -0.06,-0.42 0.19,-0.17 -0.17,-0.32 0,0.01 -1.15,1.39 -1.2,1.44 -0.1,0.28 -0.03,0.19 -0.25,0.35 -0.28,-0.48 0.22,-2.86 0.25,-3.41 -0.39,0.11 -0.95,0.74 -1.26,1.09 -0.07,0.07 -0.11,0.13 -0.18,0.2 -0.17,0.17 -0.05,0.08 -0.26,0.2 -0.02,0.19 -0.12,0.28 -0.26,0.38 -0.18,0.41 -0.11,1.08 -0.05,1.6l0.12 0.72 0.27 1.48c0.09,0.08 0.11,0.04 0.23,0.18 0.09,-0.3 0.53,-1.34 0.53,-1.46 0.31,-0.27 0.31,-0.63 0.61,-0.77 0.16,0.85 -0.01,1.1 0.38,2.37 0.03,0.11 0.07,0.25 0.11,0.34 0.04,0.1 0.04,0.1 0.08,0.17 0.07,0.1 0.06,0.08 0.12,0.15l0.06 -0.14c0,-0.01 0.04,-0.1 0.05,-0.12 0.07,-0.18 -0.04,-0.06 0.08,-0.2 -0.01,-0.56 0.27,-0.93 0.39,-1.38 0.16,0.18 0.52,2.02 0.52,2.05 0.22,0.18 0.15,0.2 0.27,0.42 0.19,-0.36 0.14,-1.08 0.37,-1.5 0.01,0.99 -0.04,0.53 0.24,0.84 0.14,0.17 0.33,0.81 0.35,0.99 0.41,0.25 0.1,0.06 0.22,-0.01 -0.02,-0.46 -0.02,-0.8 0.1,-1.22l-0.16 -0.1c-0.12,-0.12 -0.11,0.03 0.12,-0.58 0.12,-0.3 0.22,-0.6 0.34,-0.87l0.64 -1.13c0.15,-0.22 0.16,-0.18 0.19,-0.39l0.01 -0.06 -0.59 -0.07c0.23,-0.69 1.94,-2.26 2.33,-2.42 -0.42,0.01 -1.02,0.35 -1.41,0.49 0.11,-0.27 0.56,-0.99 0.82,-1.13 0.1,-0.31 0.45,-0.56 0.62,-0.86l-0.3 0.04 -1.78 0.53z"/>
    <path fill="#0D0A09" d="M17.36 2.05c-0.09,0.36 0.22,0.24 1.19,0.89 0.24,0.16 0.36,0.24 0.58,0.4 0.24,0.17 0.47,0.26 0.53,0.57l-2.5 0.52c0.11,0.26 -0.11,0.04 0.53,0.44 0.39,0.24 1.31,0.86 1.49,1.18l-0.02 0.17c0.05,0.24 -0.04,0.09 0.2,0.08l0 -0.14c0.75,-0.11 1.62,0.13 2.35,0.14l-0.24 -0.56c-0.14,-0.09 -0.56,-0.71 -0.72,-0.89 -0.24,-0.26 -0.63,-0.59 -0.82,-0.87 0.02,-0.01 0.04,-0.04 0.05,-0.03 0.01,0.02 0.04,-0.02 0.05,-0.03 0.38,-0.17 1.83,-0.2 2.51,-0.22 -0.96,-0.91 -2.04,-1.68 -3.23,-2.28l-1.95 0.63z"/>
    <path fill="#0D0A09" d="M22.31 6.44l-0.39 -0.03c0.12,0.41 0.36,0.8 0.52,1.26 0.17,0.45 0.32,0.99 0.37,1.51 -0.13,0.13 0,0.05 -0.25,0.09 0.05,0.15 -0.08,0.11 0.13,0.22 0,0.02 0,0.3 0,0.31 0.1,0.5 -0.03,0.16 0.19,0.37l-0.03 -0.75c0.58,0.08 1.41,0.84 2.01,1.01l-0.04 -1.94 -0.27 -1.46c0.19,0.02 0.39,0.06 0.59,0.11 -0.38,-0.71 -0.82,-1.39 -1.32,-2.02 0.03,0.04 0.05,0.08 0.06,0.11 0.21,0.43 0.55,1.14 0.59,1.71l-2.16 -0.5z"/>
    <path fill="#A6A997" d="M1.26 19.18l0.49 -0.38c0.13,-0.14 0.07,-0.12 0.26,-0.22 0.29,-0.15 1,-0.2 1.16,-0.14 0.34,0.14 0.02,0.06 0.51,0.51 0.75,0.7 0.15,0.1 0.56,0.66 0.3,0.4 0.98,0.37 1.2,1.36 -0.5,-0.05 -0.3,-0.16 -0.84,-0.3 0.15,0.26 0.84,0.55 1.17,0.62 -0.03,-0.5 -0.21,-0.7 -0.27,-1.18 -0.04,-0.5 -0.44,-1.06 -0.49,-1.71 0.68,0.16 2.92,2.03 3.48,2.06l-0.97 -1.96 -0.4 -0.59 -0.33 -0.2c-0.56,-0.05 -1.37,-1.56 -1.94,-1.31 -0.08,-0.47 -0.26,-0.51 -0.36,-0.79 0,0.76 0.22,2.04 0.21,2.11 -0.05,0.29 -0.03,0.16 -0.12,0.28 -0.19,-0.09 -2.45,-2.09 -2.44,-2.45 -0.6,-0.24 -0.28,-0.55 -0.76,-0.62 -0.17,0.36 -0.08,2.31 -0.09,2.96 0,0.51 0,0.56 0.18,0.92l-0.31 0.16c0.03,0.07 0.06,0.14 0.1,0.21z"/>
    <path fill="#0A0907" d="M21.35 17.81l-0.08 0.09c-0.22,0.23 -0.23,0.15 -0.5,0.51 -0.19,0.23 -0.33,0.42 -0.52,0.63 -0.6,0.7 -0.68,0.47 -0.58,1.7l0.27 -0.03 1.52 -0.85c0.38,-0.24 1.19,-0.94 1.46,-1.01 0.3,0.4 0.63,1.44 0.8,1.98 0.31,-0.06 0.7,-0.33 1.11,-0.68 0.62,-1.05 1.1,-2.19 1.41,-3.4 -0.22,-0.34 -0.43,-0.69 -0.72,-0.87 -0.18,0.14 -0.99,1.26 -1.2,1.5 -0.21,0.26 -0.44,0.49 -0.66,0.71 -0.22,0.22 -0.4,0.5 -0.77,0.59l-0.73 -1.65c-0.29,0.2 -0.55,0.54 -0.81,0.78z"/>
    <path fill="#0E0D09" d="M4.54 23.36c-0.01,0.03 -0.03,0.05 -0.04,0.07 1.34,1.18 2.92,2.09 4.65,2.65 0.23,-0.3 0.53,-0.71 0.6,-1.01l-0.24 -0.28c-0.45,-0.04 -1.62,-0.76 -2.03,-1.01 -0.59,-0.37 -1.27,-0.98 -1.75,-1.25 -0.4,0.18 -0.88,0.75 -1.19,0.83z"/>
    <path fill="#0A0907" d="M1.41 7.26c0.01,0.18 0.01,0.37 0.05,0.63 0.14,0.78 0.42,2.92 0.76,3.2 0.21,-0.15 0.9,-1.78 1.2,-2.13 0.29,-0.62 0.38,-0.22 0.36,-1.08 -0.05,-1.96 0.3,-2.91 0.3,-3.85 -0.22,0.05 -0.57,0.32 -0.88,0.58 -0.7,0.81 -1.3,1.69 -1.79,2.65z"/>
    <path fill="#0A0907" d="M20.04 22.82c-0.25,0.33 -0.22,-0.02 -0.22,0.56l0.1 1.61c1.56,-0.89 2.92,-2.08 4,-3.49 -0.08,-0.19 -0.16,-0.34 -0.23,-0.42l-1.74 0.97c-0.37,0.18 -1.53,0.77 -1.91,0.77z"/>
    <path fill="#B5BA94" d="M19.94 20.71l-0.11 0.11c-0.01,0.02 -0.03,0.04 -0.04,0.05 -0.15,0.17 0.04,1.61 0.06,1.92l0.19 0.03c0.38,0 1.54,-0.59 1.91,-0.77l1.74 -0.97c0.07,0.08 0.15,0.23 0.23,0.42 0.06,-0.08 0.12,-0.15 0.17,-0.23 -0.02,-0.09 -0.04,-0.15 -0.03,-0.17 0.01,-0.05 0.21,-0.24 0.48,-0.48 0.1,-0.15 0.2,-0.31 0.29,-0.47 -0.41,0.35 -0.8,0.62 -1.11,0.68 -0.17,-0.54 -0.5,-1.58 -0.8,-1.98 -0.27,0.07 -1.08,0.77 -1.46,1.01l-1.52 0.85z"/>
    <path fill="#0D0A09" d="M10.26 24.44c-0.03,0.19 0.01,0.17 -0.16,0.25 -0.03,0.35 -0.06,0.33 0.33,0.44 1.63,0.46 2.16,0.78 4.26,0.93l0.03 0.23 2.02 0c0.29,-0.07 0.57,-0.16 0.85,-0.25 -0.08,0.01 -0.16,0.02 -0.24,0.02 -0.91,0.07 -1.53,0.11 -2.41,0.03 -0.02,-0.43 0.21,-1.55 0.4,-1.86l0.09 -0.46c-0.38,-0.19 -2.76,-0.07 -3.47,-0.43l-0.88 -0.02c-0.16,0.25 -0.55,0.95 -0.82,1.12z"/>
    <path fill="#8A8C73" d="M0.74 8.79c0.01,0 0.02,0.01 0.03,0.01 0.47,0.14 0.78,0.05 0.66,0.87 -0.26,1.61 0.09,3.71 -0.21,4.16 -0.59,-0.09 -0.23,-0.23 -0.71,-0.41 0.1,0.32 0.48,0.96 0.79,1.05 0.06,-0.07 0.05,-0.03 0.1,-0.15 0.14,-0.36 0.01,-0.47 0.18,-0.66 -0.02,-0.48 0.35,-1.96 0.64,-2.19 0.09,0.13 0.87,2.1 1.45,2.9 0.1,0.14 0.19,0.26 0.29,0.41l0.19 0.26c0.32,0.35 0.1,0.3 0.24,1.53 0.04,0.3 0.09,0.92 0.31,1.15 0.01,-0.07 -0.21,-1.35 -0.21,-2.11 0.1,0.28 0.28,0.32 0.36,0.79 0.57,-0.25 1.38,1.26 1.94,1.31l-1.81 -1.82c-0.64,-0.71 -0.66,-0.54 -0.66,-1.13 0,-0.56 0.15,-1.32 0.09,-1.8 -0.01,0.02 -0.03,0.03 -0.03,0.06l-0.08 0.17c-0.04,0.11 -0.02,0.11 -0.08,0.22 -0.11,0.19 -0.19,0.21 -0.48,0.21 -0.38,-0.68 -0.42,-3.22 0,-3.95 0.28,0.26 0.01,0.44 0.35,0.76l-0.12 -0.72c-0.23,-0.25 -0.15,-0.65 -0.15,-1.14 -0.05,0.12 -0.09,0.1 -0.14,0.14 -0.02,0.02 -0.12,0.1 -0.14,0.11 -0.01,0.01 -0.03,0.03 -0.04,0.04l-0.08 0.1c-0.3,0.35 -0.99,1.98 -1.2,2.13 -0.34,-0.28 -0.62,-2.42 -0.76,-3.2 -0.04,-0.26 -0.04,-0.45 -0.05,-0.63 -0.26,0.49 -0.48,1 -0.67,1.53z"/>
    <path fill="#0A0907" d="M11.61 3.45c0.12,0.17 0,0.15 0.61,0.09 0.51,-0.04 1.62,-0.08 1.99,0.14 -0.19,0.2 -0.78,0.55 -1.06,0.77 -0.22,0.18 -0.34,0.26 -0.5,0.42 -0.19,0.17 -0.23,0.28 -0.44,0.34 0.13,0.3 -0.04,0.08 0.24,0.14l1.53 0.01c0.46,0.04 0.4,0.13 0.46,0.23l0.22 -0.05c0.17,-0.54 1.84,-0.7 2.21,-1.1 -0.47,-0.29 -1.84,-0.68 -2.45,-0.74 0.22,-0.4 2.06,-1.28 2.52,-1.43l-0.01 -0.22c-0.22,0.03 -0.78,-0.17 -0.91,-0.28l-1.9 -0.39c-0.52,0.01 -2.06,1.83 -2.51,2.07z"/>
    <path fill="#BDC19C" d="M18.04 23.44l-1.34 0.18c-0.01,0.06 0.03,0.14 -0.04,0.23l-1 0c-0.03,0.06 -0.04,0.11 -0.1,0.18 -0.13,0.15 -0.06,0.08 -0.22,0.2 -0.19,0.31 -0.42,1.43 -0.4,1.86 0.88,0.08 1.5,0.04 2.41,-0.03 0.08,0 0.16,-0.01 0.24,-0.02 0.76,-0.26 1.49,-0.58 2.18,-0.96 0.03,-0.65 -0.06,-1.77 -0.13,-1.95 -0.57,0 -1.02,0.34 -1.6,0.31z"/>
    <path fill="#C1C59C" d="M14.66 5.54c0.47,-0.02 1.01,0.24 1.41,0.43 0.27,0.1 1.25,0.29 1.5,0.27 0.3,-0.01 1.27,-0.14 1.61,-0.19 -0.18,-0.32 -1.1,-0.94 -1.49,-1.18 -0.64,-0.4 -0.42,-0.18 -0.53,-0.44l2.5 -0.52c-0.06,-0.31 -0.29,-0.4 -0.53,-0.57 -0.22,-0.16 -0.34,-0.24 -0.58,-0.4 -0.97,-0.65 -1.28,-0.53 -1.19,-0.89l-0.43 0 0.01 0.22c-0.46,0.15 -2.3,1.03 -2.52,1.43 0.61,0.06 1.98,0.45 2.45,0.74 -0.37,0.4 -2.04,0.56 -2.21,1.1z"/>
    <path fill="#F5F5DA" d="M3.79 20.52c0.04,0.09 0.17,0.36 0.23,0.45 0.23,0.32 0.18,-0.13 0.22,0.47 -0.57,0.02 -0.3,0 -0.52,-0.16l-0.72 -0.43c-0.43,-0.29 -0.18,0.05 -0.68,-0.47 -0.18,-0.19 -0.95,-0.28 -0.64,-1.04 0.05,-0.02 0.04,-0.03 0.23,-0.06 0.3,-0.05 0.4,0 0.57,0.09 0.91,0.47 1.22,1.07 1.31,1.15zm0.49 2.72c-1.24,-1.14 -2.27,-2.51 -3.01,-4.04 0.99,-0.29 0.42,-0.52 1.42,0.13 0.27,0.18 0.44,0.28 0.7,0.45 0.26,0.16 0.38,0.35 0.4,0.74 0.01,0.01 0.04,0 0.05,0.02 0.12,0.23 -0.22,-0.13 0.17,0.08 0.11,0.07 0.14,0.16 0.23,0.27 0.03,0.04 0.13,0.15 0.15,0.17 0.14,0.12 0.05,0.06 0.25,0.15l-0.03 0.07c0.05,0.51 0.44,0.42 0.6,0.98l0.02 0.21 -0.6 0.39c-0.01,0 -0.03,0.02 -0.03,0.02 -0.01,0 -0.03,0.02 -0.03,0.02 -0.07,0.07 -0.14,0.2 -0.29,0.34z"/>
    <path fill="#C2C5A3" d="M23.96 14.08c-0.02,0.66 -1.31,2.33 -1.73,2.74 -0.08,-0.06 -0.03,-0.02 -0.11,-0.12 -0.01,-0.01 -0.05,-0.07 -0.06,-0.09 -0.13,-0.14 -0.04,-0.11 -0.21,-0.18 -0.25,0.38 -0.4,0.88 -0.67,1.21 -0.02,0.36 -0.17,0.19 0.17,0.17 0.26,-0.24 0.52,-0.58 0.81,-0.78l0.73 1.65c0.37,-0.09 0.55,-0.37 0.77,-0.59 0.22,-0.22 0.45,-0.45 0.66,-0.71 0.21,-0.24 1.02,-1.36 1.2,-1.5 0.29,0.18 0.5,0.53 0.72,0.87 0.28,-1.08 0.43,-2.21 0.43,-3.38l0 0c-0.15,0.26 -0.35,0.84 -0.49,1.13 -0.18,0.36 -0.4,0.85 -0.66,1.12 -0.25,-0.1 -0.5,-0.51 -0.74,-0.81 -0.37,-0.46 -0.51,-0.77 -0.82,-0.73z"/>
    <path fill="#82846C" d="M3.2 4.61c0.31,-0.26 0.66,-0.53 0.88,-0.58 0,0.94 -0.35,1.89 -0.3,3.85 0.02,0.86 -0.07,0.46 -0.36,1.08l0.08 -0.1c0.01,-0.01 0.03,-0.03 0.04,-0.04 0.02,-0.01 0.12,-0.09 0.14,-0.11 0.05,-0.04 0.09,-0.02 0.14,-0.14 0,0.49 -0.08,0.89 0.15,1.14 -0.06,-0.52 -0.13,-1.19 0.05,-1.6 -0.22,-0.05 -0.04,-2.11 0.01,-2.37 0.02,-0.35 -0.01,-0.53 0.17,-0.79 0.31,0.13 0.23,0.18 0.54,0.31 0.36,0.16 0.27,0.15 0.52,0.32 0.2,-0.29 0.36,-0.58 0.62,-0.91 0.43,-0.53 0.11,-0.47 0.62,-0.68l-0.04 0.45c0.07,-0.07 0.04,-0.03 0.11,-0.15l0.26 -0.81c0.54,-1.49 0.47,-1.28 1.14,-1.48 0.3,-0.09 0.72,-0.18 0.9,-0.35l-0.31 0c-0.08,0.07 -0.82,0.29 -0.93,0.27l0.09 -0.5c-0.22,0.17 -0.15,0.18 -0.3,0.5 -0.21,0.47 0.2,0.04 -1.34,0.8 -0.64,0.32 -1.27,0.77 -1.81,1.03 0,-0.07 0,-0.15 0,-0.24 -0.37,0.35 -0.73,0.71 -1.07,1.1z"/>
    <path fill="#080705" d="M7.72 1.42c0.04,-0.08 0.09,-0.17 0.14,-0.26 -1.32,0.59 -2.53,1.38 -3.59,2.35 0,0.09 0,0.17 0,0.24 0.54,-0.26 1.17,-0.71 1.81,-1.03 1.54,-0.76 1.13,-0.33 1.34,-0.8 0.15,-0.32 0.08,-0.33 0.3,-0.5z"/>
    <path fill="#CACDA4" d="M14.52 1c-0.07,0.17 0.05,0.13 -0.16,0.23 0.44,0.03 1.16,0.3 1.61,0.31 0.08,0.09 0.03,0.17 0.05,0.23 0.13,0.11 0.69,0.31 0.91,0.28l0.43 0 1.95 -0.63c-1.15,-0.57 -2.39,-0.99 -3.69,-1.22 -0.49,0.29 -1,0.59 -1.1,0.8z"/>
    <path fill="#CACDA4" d="M21.47 5.74c0.62,0.25 -0.07,0.07 0.65,0.56l0.19 0.14 2.16 0.5c-0.04,-0.57 -0.38,-1.28 -0.59,-1.71 -0.01,-0.03 -0.03,-0.07 -0.06,-0.11 -0.39,-0.5 -0.82,-0.98 -1.28,-1.42 -0.68,0.02 -2.13,0.05 -2.51,0.22 -0.01,0.01 -0.04,0.05 -0.05,0.03 -0.01,-0.01 -0.03,0.02 -0.05,0.03 0.19,0.28 0.58,0.61 0.82,0.87 0.16,0.18 0.58,0.8 0.72,0.89z"/>
    <path fill="#080705" d="M1.58 13.66c0.02,0.14 0.03,0.26 0.03,0.41 0,0.06 -0.01,0.18 -0.01,0.23 -0.07,0.48 -0.19,0.17 0.2,0.65 0.23,0.29 0.22,0.23 0.34,0.6 -0.01,0.36 2.25,2.36 2.44,2.45 0.09,-0.12 0.07,0.01 0.12,-0.28 -0.22,-0.23 -0.27,-0.85 -0.31,-1.15 -0.14,-1.23 0.08,-1.18 -0.24,-1.53l-0.19 -0.26c-0.1,-0.15 -0.19,-0.27 -0.29,-0.41 -0.58,-0.8 -1.36,-2.77 -1.45,-2.9 -0.29,0.23 -0.66,1.71 -0.64,2.19z"/>
    <path fill="#C1C59C" d="M10.9 1.02c-0.22,0.07 -0.03,0.01 -0.28,0.11 -1.05,0.39 -1.24,-0.02 -1.95,0.44l-0.11 0.08 0.31 0c0.46,0.03 1.02,-0.23 1.63,-0.23 -0.17,0.53 -1.48,2.08 -1.71,2.95l0.18 0.04 0.07 -0.05c0.4,-0.25 1.38,-0.43 1.89,-0.61 0,-0.43 0.03,-0.13 0.28,-0.23 0.02,-0.01 0.37,-0.06 0.4,-0.07 0.45,-0.24 1.99,-2.06 2.51,-2.07l1.9 0.39c-0.02,-0.06 0.03,-0.14 -0.05,-0.23 -0.45,-0.01 -1.17,-0.28 -1.61,-0.31 0.21,-0.1 0.09,-0.06 0.16,-0.23 -0.53,0.21 -0.21,0.3 -0.8,0.24l-1.95 -0.07c-1.01,0.04 -0.75,0.11 -0.87,-0.15z"/>
    <path fill="#0A0907" d="M8.87 1.65c-0.18,0.17 -0.6,0.26 -0.9,0.35 -0.67,0.2 -0.6,-0.01 -1.14,1.48l-0.26 0.81c-0.07,0.12 -0.04,0.08 -0.11,0.15 0.01,0.25 -0.17,0.79 -0.25,1.04l-0.04 0.26c0.13,0.18 -0.05,0.05 0.23,0.09 0.22,-0.33 1.53,-1 2,-1.18 0.12,0.13 0.1,-0.12 0.08,0.3 0.02,-0.02 0.05,-0.06 0.06,-0.05l0.43 -0.49 -0.18 -0.04c0.23,-0.87 1.54,-2.42 1.71,-2.95 -0.61,0 -1.17,0.26 -1.63,0.23z"/>
    <path fill="#0A0907" d="M23.88 13.85c0.03,0.21 -0.04,0.08 0.08,0.23 0.31,-0.04 0.45,0.27 0.82,0.73 0.24,0.3 0.49,0.71 0.74,0.81 0.26,-0.27 0.48,-0.76 0.66,-1.12 0.14,-0.29 0.34,-0.87 0.49,-1.13 0,-0.58 -0.03,-1.15 -0.11,-1.71l-1.37 -0.97 -0.28 -0.07c-0.1,1.05 -0.38,2.32 -0.77,3.24l-0.26 -0.01z"/>
    <path fill="#CACDAB" d="M24.54 20.62c-0.27,0.24 -0.47,0.43 -0.48,0.48 -0.01,0.02 0.01,0.08 0.03,0.17 0.16,-0.21 0.3,-0.43 0.45,-0.65z"/>
    <path fill="#777867" d="M19.48 16.2c-0.08,0.26 0.02,0.16 -0.24,0.24 -0.02,0.01 -0.8,0.98 -0.92,1.13 -0.32,0.37 -0.67,0.65 -1.09,1.01 0.31,0.16 1.36,-0.2 1.8,-0.24 -0.15,0.31 -0.44,0.53 -0.67,0.72 -0.13,0.12 -0.2,0.19 -0.37,0.32 -0.08,0.06 -0.14,0.1 -0.22,0.16l-0.21 0.22c0.31,-0.05 0.68,-0.27 1.19,-0.43 0.21,-0.07 -0.07,-0.01 0.16,-0.05 0.33,-0.06 0.54,0.34 0.65,0.65l-0.03 0.12c0,0.02 -0.01,0.05 -0.01,0.07 -0.03,0.55 0.17,0.33 -0.18,0.9l0.25 -0.07 0.11 1.83c-0.07,0.25 -0.97,0.41 -1.2,0.46l-0.41 0.16c-0.01,0.01 -0.03,0.02 -0.05,0.04 0.58,0.03 1.03,-0.31 1.6,-0.31 0.07,0.18 0.16,1.3 0.13,1.95 0.05,-0.03 0.1,-0.06 0.15,-0.09l-0.1 -1.61c0,-0.58 -0.03,-0.23 0.22,-0.56l-0.19 -0.03c-0.02,-0.31 -0.21,-1.75 -0.06,-1.92 0.01,-0.01 0.03,-0.03 0.04,-0.05l0.11 -0.11 -0.27 0.03c-0.1,-1.23 -0.02,-1 0.58,-1.7 0.19,-0.21 0.33,-0.4 0.52,-0.63 0.27,-0.36 0.28,-0.28 0.5,-0.51l0.08 -0.09c-0.34,0.02 -0.19,0.19 -0.17,-0.17l-2 0.63c0.38,-0.63 1.29,-1.46 1.67,-2.9 -0.11,0.05 -1.35,0.82 -1.37,0.83z"/>
    <path fill="#0E0D09" d="M1.16 18.97l0.31 -0.16c-0.18,-0.36 -0.18,-0.41 -0.18,-0.92 0.01,-0.65 -0.08,-2.6 0.09,-2.96 0.48,0.07 0.16,0.38 0.76,0.62 -0.12,-0.37 -0.11,-0.31 -0.34,-0.6 -0.39,-0.48 -0.27,-0.17 -0.2,-0.65 0,-0.05 0.01,-0.17 0.01,-0.23 0,-0.15 -0.01,-0.27 -0.03,-0.41 -0.17,0.19 -0.04,0.3 -0.18,0.66 -0.05,0.12 -0.04,0.08 -0.1,0.15 -0.31,-0.09 -0.69,-0.73 -0.79,-1.05l-0.51 -0.74 0 2.05c0.15,1.5 0.55,2.93 1.16,4.24z"/>
    <path fill="#9A9C84" d="M9.09 22.85c0.16,0.19 0.55,0.31 0.76,0.38 0.36,0.11 0.58,-0.02 1.01,-0.02 -0.11,0.28 -0.59,0.94 -0.6,1.23 0.27,-0.17 0.66,-0.87 0.82,-1.12l0.88 0.02c-0.04,-0.31 -0.05,-0.11 0,-0.29 0.35,-0.13 2.85,-0.42 3.11,-0.55 0.01,-0.01 0.04,-0.02 0.06,-0.04 -1.02,0.12 -1.94,-0.74 -2.55,-0.81 -0.38,-0.01 -0.61,0.07 -0.97,0.05l-0.61 -0.11c-0.23,-0.09 -0.06,0.08 -0.23,-0.13 -1.61,-0.36 -0.98,-0.32 -2.01,-0.68 0.05,0.49 0.45,0.92 0.69,1.25 0.22,0.3 0.67,0.8 0.76,1.06 -0.28,0.09 -0.8,-0.17 -1.12,-0.24z"/>
    <path fill="#CED1BC" d="M22.88 10.17c0.04,0.65 -0.1,1.4 -0.07,1.92l-0.04 0.35c-0.22,0.13 0.24,0.08 -0.23,0.1 0.08,0.21 -0.04,0.13 0.16,0.08 0.19,0.06 0.41,0.33 0.61,0.53 0.21,0.2 0.5,0.43 0.57,0.7l0.26 0.01c0.39,-0.92 0.67,-2.19 0.77,-3.24l0.28 0.07 -0.2 -1.59c0.01,-0.63 -0.07,-0.53 -0.17,-0.61l0.04 1.94c-0.6,-0.17 -1.43,-0.93 -2.01,-1.01l0.03 0.75z"/>
    <path fill="#DADBC5" d="M24.82 8.49c0.1,0.08 0.18,-0.02 0.17,0.61l0.2 1.59 1.37 0.97c-0.2,-1.62 -0.7,-3.14 -1.42,-4.52 -0.2,-0.05 -0.4,-0.09 -0.59,-0.11l0.27 1.46z"/>
    <path fill="#0D0A09" d="M10.9 1.02c0.12,0.26 -0.14,0.19 0.87,0.15l1.95 0.07c0.59,0.06 0.27,-0.03 0.8,-0.24 0.1,-0.21 0.61,-0.51 1.1,-0.8 -0.75,-0.13 -1.53,-0.2 -2.32,-0.2 -0.51,0 -1.02,0.03 -1.52,0.09 -0.37,0.41 -0.82,0.9 -0.88,0.93z"/>
    <path fill="#BEC2AA" d="M0 12.68l0.51 0.74c0.48,0.18 0.12,0.32 0.71,0.41 0.3,-0.45 -0.05,-2.55 0.21,-4.16 0.12,-0.82 -0.19,-0.73 -0.66,-0.87 -0.01,0 -0.02,-0.01 -0.03,-0.01 -0.38,1.02 -0.63,2.1 -0.74,3.22l0 0.67z"/>
    <path fill="#CDD1A4" d="M7.72 1.42l-0.09 0.5c0.11,0.02 0.85,-0.2 0.93,-0.27l0.11 -0.08c0.71,-0.46 0.9,-0.05 1.95,-0.44 0.25,-0.1 0.06,-0.04 0.28,-0.11 0.06,-0.03 0.51,-0.52 0.88,-0.93 -1.38,0.15 -2.7,0.52 -3.92,1.07 -0.05,0.09 -0.1,0.18 -0.14,0.26z"/>
    <path fill="#CACCB2" d="M4.45 23.39c0.03,-0.01 0.06,-0.02 0.09,-0.03 0.31,-0.08 0.79,-0.65 1.19,-0.83 0.48,0.27 1.16,0.88 1.75,1.25 0.41,0.25 1.58,0.97 2.03,1.01 0.24,-0.04 0.42,-0.04 0.59,-0.1 0.17,-0.08 0.13,-0.06 0.16,-0.25 0.01,-0.29 0.49,-0.95 0.6,-1.23 -0.43,0 -0.65,0.13 -1.01,0.02 -0.21,-0.07 -0.6,-0.19 -0.76,-0.38l-0.1 -0.03 0.06 0.14c0.01,0.02 0.03,0.05 0.04,0.06l0.09 0.1c0.01,-0.01 0.03,0.03 0.05,0.04l-0.29 0.11c-0.04,0.01 -0.25,0.02 -0.31,0.02 -1.09,0.03 -1.02,0.57 -2.2,-0.44 -0.02,-0.01 -0.03,-0.03 -0.04,-0.04l-0.38 -0.34 0.29 -0.48c-0.37,0.1 -0.27,0.17 -0.57,0.28 -0.53,-0.26 -0.71,-0.75 -1.12,-0.99 0.05,0.51 0.44,0.42 0.6,0.98l0.02 0.21 -0.6 0.39c-0.01,0 -0.03,0.02 -0.03,0.02 -0.01,0 -0.03,0.02 -0.03,0.02 -0.07,0.07 -0.14,0.2 -0.29,0.34 0.06,0.05 0.12,0.1 0.17,0.15z"/>
    <path fill="#C5C9A4" d="M19.36 6.3l0.08 0.04c0.23,0.16 0.45,0.5 0.62,0.74 0.42,0.58 0.54,1.32 1.46,1.67 0.35,0.14 0.82,0.28 1.04,0.52 0.25,-0.04 0.12,0.04 0.25,-0.09 -0.05,-0.52 -0.2,-1.06 -0.37,-1.51 -0.16,-0.46 -0.4,-0.85 -0.52,-1.26l0.39 0.03 -0.19 -0.14c-0.72,-0.49 -0.03,-0.31 -0.65,-0.56l0.24 0.56c-0.73,-0.01 -1.6,-0.25 -2.35,-0.14l0 0.14z"/>
    <path fill="#060503" d="M8.97 4.41l-0.43 0.49c-0.01,-0.01 -0.04,0.03 -0.06,0.05l-0.06 -0.05c-0.14,0.55 -0.51,1.12 -0.89,2.52l0.31 0c0.17,-0.25 0.07,-0.14 0.32,-0.33 0.2,-0.13 0.2,-0.15 0.45,-0.21 0.22,-0.29 0.68,-0.41 0.91,-0.56l0.25 -0.24c0.01,-0.01 0.02,-0.03 0.04,-0.05 0.05,-0.23 0.34,-0.61 0.51,-0.89 0.23,-0.36 0.37,-0.66 0.68,-0.86 0,-0.19 0.19,-0.32 0.3,-0.55l-0.37 0.02c-0.51,0.18 -1.49,0.36 -1.89,0.61l-0.07 0.05z"/>
    <path fill="#4D4B4B" d="M8.75 13.85c0,0.23 0.03,0.28 0.1,0.49l0.16 0.36c0.01,-0.02 0.03,0.04 0.04,0.06 -0.02,-0.62 -0.03,-0.2 0.12,-0.3 0.33,0.58 0.79,1.22 1.25,1.47 -0.12,-0.41 -0.34,-0.77 -0.38,-1.23 0.12,0.22 1.06,1.23 1.46,1.32 -0.19,-0.33 -0.48,-0.57 -0.6,-1 0.18,0.12 0.12,0.09 0.25,0.14 0.19,0.1 0.2,0.11 0.36,0.03 0.01,-0.01 0.01,-0.06 0.01,-0.05l-0.07 -0.27c-0.05,-0.11 -0.34,-0.46 -0.58,-0.95l-0.32 -0.38c0,0.53 0.1,0.73 0.2,1.21 -0.52,-0.46 -0.66,-1.41 -0.82,-1.67 -0.12,0.32 -0.07,0.83 -0.03,1.2 -0.28,-0.21 -0.53,-0.85 -0.6,-1.18 -0.13,-0.67 0.04,-0.74 0.29,-1.28 0.41,-0.9 0.72,-1.51 1.22,-2.14l-0.61 -0.13c-0.03,0.21 -0.04,0.17 -0.19,0.39l-0.64 1.13c-0.12,0.27 -0.22,0.57 -0.34,0.87 -0.23,0.61 -0.24,0.46 -0.12,0.58l0.16 0.1c-0.12,0.42 -0.12,0.76 -0.1,1.22 -0.12,0.07 0.19,0.26 -0.22,0.01z"/>
    <path fill="#857C95" d="M14.93 15.51c-0.06,0.05 -0.06,0.07 -0.17,0.11 -0.15,0.07 0,0.01 -0.22,0.05 -0.27,0.1 -0.44,0.18 -0.76,0.26 -0.36,0.08 -0.57,0.05 -0.8,0.19l0.57 0.21c0.09,0.05 0.1,0.06 0.15,0.1 -0.97,0.08 -1.09,-0.02 -1.9,-0.19l0.95 0.71c-0.95,0.02 -1.21,-0.34 -1.89,-0.53 0.25,0.5 0.43,0.58 0.74,0.93 -0.37,-0.06 -0.53,-0.24 -0.84,-0.26 -0.43,-0.16 -0.06,-0.05 -0.22,0.04l0.35 0.42c-0.06,0.11 0.03,-0.03 -0.08,0.07l-0.11 0.12c0.32,0 0.01,-0.03 0.15,0.15 0.37,0.34 1.69,0.47 2.31,0.4 -0.34,-0.33 -0.87,-0.34 -1.13,-0.76 1.03,0.05 1.22,0.06 2.22,-0.09l-1.22 -0.42c0.74,-0.14 1.66,-0.17 2.1,-0.65l-1.03 0.02c0.2,-0.2 0.58,-0.28 0.89,-0.47 0.27,-0.16 0.56,-0.42 0.68,-0.65l-0.74 0.24z"/>
    <path fill="#64635B" d="M15.51 6.88c-0.12,0.1 0.15,0.12 -0.33,0.16 0.04,0.22 -0.1,0.05 0.2,0.19 0.38,0.19 0.75,0.22 1.03,0.52l0.48 0.14 -0.26 -0.88c1.62,0.1 2.77,1.47 3.1,1.59l0.03 -1.41c-0.57,-0.5 -1.01,-0.56 -1.41,-0.77l-0.22 -0.14c0.25,-0.11 0.71,-0.15 1.03,-0.06l0.02 -0.17c-0.34,0.05 -1.31,0.18 -1.61,0.19 -0.25,0.02 -1.23,-0.17 -1.5,-0.27 0.17,0.31 0.37,0.49 0.48,0.97l-1.04 -0.06z"/>
    <path fill="#7E8169" d="M6.4 5.83c-0.28,-0.04 -0.1,0.09 -0.23,-0.09l0.04 -0.26 -0.25 0.49c-0.4,0.01 -0.28,-0.12 -0.7,-0.17 -0.12,0.26 -0.14,0.39 -0.4,0.57 -0.01,0.28 -0.15,0.43 -0.28,0.67 -0.06,0.12 -0.1,0.2 -0.15,0.31 -0.17,0.35 -0.06,-0.06 -0.15,0.38 0.21,-0.12 0.09,-0.03 0.26,-0.2 0.07,-0.07 0.11,-0.13 0.18,-0.2 0.31,-0.35 0.87,-0.98 1.26,-1.09 -0.03,0.55 -0.53,2.93 -0.25,3.41 0.22,-0.16 0.15,-0.07 0.25,-0.35l-0.21 0.07c0,-0.8 0.05,-0.81 0.37,-1.47 0.23,-0.45 0.44,-0.87 0.74,-1.17 0.41,0.03 0.34,0.14 0.61,0.31 -0.08,0.36 -0.17,0.56 -0.31,0.82 0.36,0.15 0.11,-0.1 0.17,0.32 0.02,0.12 -0.05,0.12 0,0.35l0.03 0.28c0.18,-0.6 0.8,-1.02 0.72,-1.46l-0.26 0.07 -0.31 0c0.38,-1.4 0.75,-1.97 0.89,-2.52 -0.64,0.4 -1.13,1.38 -1.54,1.6 -0.32,-0.05 -0.47,-0.19 -0.7,-0.3 0.14,-0.3 0.12,-0.08 0.22,-0.37z"/>
    <path fill="#8B8C83" d="M7.12 17.91l0.4 0.59c-0.03,-0.43 -0.04,-0.19 0.04,-0.29 0.6,0.55 1.82,1.57 2.75,1.66 -0.11,-0.31 -0.4,-0.55 -0.61,-0.83 -0.12,-0.17 -0.17,-0.24 -0.29,-0.4 -0.36,-0.52 -0.07,-0.43 -0.01,-0.44 -0.16,-0.36 -0.22,-0.08 -0.46,-0.46 -0.14,-0.22 0.06,-0.05 -0.14,-0.23 -0.04,0.3 0.11,0.12 -0.09,0.23 -1.02,-0.81 -1.83,-1.91 -2.08,-2.02 0.09,1.09 0.79,2.18 0.49,2.19z"/>
    <path fill="#C2C5A3" d="M9.51 24.79l0.24 0.28c-0.07,0.3 -0.37,0.71 -0.6,1.01 0.24,0.08 0.47,0.15 0.71,0.21l4.86 0 -0.03 -0.23c-2.1,-0.15 -2.63,-0.47 -4.26,-0.93 -0.39,-0.11 -0.36,-0.09 -0.33,-0.44 -0.17,0.06 -0.35,0.06 -0.59,0.1z"/>
    <path fill="#BABD94" d="M10.93 3.75l0.37 -0.02c-0.11,0.23 -0.3,0.36 -0.3,0.55 -0.04,0.41 0,0.46 0.27,0.7l-0.19 0.16c-0.01,0.01 -0.04,0.03 -0.05,0.04 -0.01,0.01 -0.03,0.03 -0.05,0.04l0.67 0.07c0.01,0 0.03,0 0.05,0 0.01,0.01 0.04,0.01 0.05,0.01 0.19,0.01 0.07,0.04 0.25,-0.02 0.12,-0.07 0.05,-0.02 0.21,-0.07 0.21,-0.06 0.25,-0.17 0.44,-0.34 0.16,-0.16 0.28,-0.24 0.5,-0.42 0.28,-0.22 0.87,-0.57 1.06,-0.77 -0.37,-0.22 -1.48,-0.18 -1.99,-0.14 -0.61,0.06 -0.49,0.08 -0.61,-0.09 -0.03,0.01 -0.38,0.06 -0.4,0.07 -0.25,0.1 -0.28,-0.2 -0.28,0.23z"/>
    <path fill="#7A7C65" d="M11.58 20.16l0.13 0.07c0.41,0.16 -0.31,-0.06 0.14,0.05 0.33,0.09 0.55,-0.08 0.85,0.13 -0.08,0.3 -0.26,0.52 -0.39,0.78l-0.41 -0.05c0.01,0.02 0.03,0.04 0.05,0.05l0.23 0.34 -1.41 -0.07c0.17,0.21 0,0.04 0.23,0.13l0.61 0.11c0.36,0.02 0.59,-0.06 0.97,-0.05 -0.03,-0.21 0.04,-0.14 0.3,-0.19 0.55,-0.1 0.72,-0.06 1.43,-0.26 0.53,-0.16 1.23,-0.38 1.65,-0.64l-1.88 -0.45c0.26,-0.16 0.01,-0.03 0.14,-0.18 -0.19,0 -0.27,0.01 -0.48,0 -0.04,0.23 -0.02,0.17 -0.4,0.22 -0.17,0.03 -0.41,0.04 -0.58,0.05 -0.39,0.02 -0.78,-0.02 -1.18,-0.04z"/>
    <path fill="#B6BA9B" d="M15.13 22.46c-0.02,0.02 -0.05,0.03 -0.06,0.04 -0.26,0.13 -2.76,0.42 -3.11,0.55 -0.05,0.18 -0.04,-0.02 0,0.29 0.71,0.36 3.09,0.24 3.47,0.43l-0.09 0.46c0.16,-0.12 0.09,-0.05 0.22,-0.2 0.06,-0.07 0.07,-0.12 0.1,-0.18l1 0c0.07,-0.09 0.03,-0.17 0.04,-0.23l-1.22 0.06 0.3 -1.44 -0.65 0.22z"/>
    <path fill="#837B87" d="M16.68 15.86c-0.44,-0.07 -0.14,-0.06 -0.25,0.13 0.2,0.08 0.18,-0.06 -0.02,0.18l-0.73 0.59c-0.34,0.22 -0.88,0.4 -1.09,0.63l1.32 -0.04c-0.5,0.5 -1.53,0.78 -2.4,0.93 0.18,0.16 0.2,0.15 0.48,0.21 0.24,0.05 0.3,0.06 0.55,0.05 0.46,-0.1 0.28,0.1 0.64,-0.15 0.23,-0.16 0.22,-0.18 0.52,-0.3 0.77,-0.31 0.81,-0.2 1.01,-0.74l-0.22 -0.05 -0.34 -0.03c0.26,-0.31 0.89,-0.65 1.55,-1.64l0.15 -0.19c-0.04,-0.21 0.01,-0.12 -0.25,0.01 -0.11,0.06 -0.19,0.12 -0.3,0.18 -0.22,0.12 -0.4,0.22 -0.62,0.23z"/>
    <path fill="#514D4B" d="M10.21 9.49c0.34,-0.26 0.37,-0.42 0.59,-0.67 0.59,-0.66 1.44,-1.09 2.18,-1.48 -0.09,-0.14 -0.42,-0.39 -0.53,-0.45l0.07 -0.23c-0.4,0.2 -0.34,0.1 -0.91,0.14 -0.38,-0.41 -0.34,-0.08 -0.25,-0.44 -0.26,0.14 -0.71,0.86 -0.82,1.13 0.39,-0.14 0.99,-0.48 1.41,-0.49 -0.39,0.16 -2.1,1.73 -2.33,2.42l0.59 0.07z"/>
    <path fill="#C6C8B6" d="M1.27 19.2c0.99,-0.29 0.42,-0.52 1.42,0.13 0.27,0.18 0.44,0.28 0.7,0.45 0.26,0.16 0.38,0.35 0.4,0.74 0.01,0.01 0.04,0 0.05,0.02 0.12,0.23 -0.22,-0.13 0.17,0.08l0.02 -0.19 0.57 0.24c0.54,0.14 0.34,0.25 0.84,0.3 -0.22,-0.99 -0.9,-0.96 -1.2,-1.36 -0.41,-0.56 0.19,0.04 -0.56,-0.66 -0.49,-0.45 -0.17,-0.37 -0.51,-0.51 -0.16,-0.06 -0.87,-0.01 -1.16,0.14 -0.19,0.1 -0.13,0.08 -0.26,0.22l-0.49 0.38c0,0.01 0,0.02 0.01,0.02z"/>
    <path fill="#7A7C65" d="M5.12 10.63c0.02,0.01 0.05,0.04 0.06,0.05l0.16 0.11c-0.19,0.58 -0.14,2.27 0.1,2.73 0.77,-0.02 0.79,-0.01 0.85,0.47l0.07 1.18c0.1,-0.15 0.07,-0.01 -0.12,-0.11 0.08,0.21 0.1,0.25 0.19,0.37 0.16,-0.21 0.03,-0.73 0.01,-1.06 -0.03,-0.69 -0.15,-1.07 0.16,-1.13l0.01 -0.81c-0.12,0.14 -0.01,0.02 -0.08,0.2 -0.01,0.02 -0.05,0.11 -0.05,0.12l-0.06 0.14c-0.06,-0.07 -0.05,-0.05 -0.12,-0.15 -0.04,-0.07 -0.04,-0.07 -0.08,-0.17 -0.04,-0.09 -0.08,-0.23 -0.11,-0.34 -0.39,-1.27 -0.22,-1.52 -0.38,-2.37 -0.3,0.14 -0.3,0.5 -0.61,0.77z"/>
    <path fill="#DEE0CA" d="M6.3 21.99l-0.29 0.48 0.38 0.34c0.01,0.01 0.02,0.03 0.04,0.04 1.18,1.01 1.11,0.47 2.2,0.44 0.06,0 0.27,-0.01 0.31,-0.02l0.29 -0.11c-0.02,-0.01 -0.04,-0.05 -0.05,-0.04l-0.09 -0.1c-0.01,-0.01 -0.03,-0.04 -0.04,-0.06l-0.06 -0.14c-0.23,-0.18 -0.97,-0.52 -1.34,-0.66 -0.28,-0.11 -1.29,-0.64 -1.35,-0.17z"/>
    <path fill="#5C5B54" d="M15.82 8.41l-0.42 -0.03 1.14 0.79c-0.28,-0.1 -0.05,-0.01 -0.13,0.14l0.92 0.52 -0.05 -0.79c0.58,0.23 0.74,0.53 1.15,0.91l0.1 0.09c-0.04,-0.37 0,-0.16 0.04,-0.24 0.29,0.03 0.53,0.15 0.76,0.26l0.04 0.24 0.13 -0.19c0.05,0.07 0.08,0.04 0.17,0.08 0.02,-0.38 0.1,-0.14 -0.07,-0.25 -0.43,-0.07 -0.05,0.1 -0.58,-0.53 -0.39,-0.47 -1.32,-1.24 -1.96,-1.36l0.17 0.82c-0.43,-0.16 -0.89,-0.42 -1.41,-0.46z"/>
    <path fill="#353333" d="M11.23 12.09l0.26 -0.05 -0.13 0.41c0.01,0.01 0.03,0.02 0.04,0.05 0.01,0.13 0.08,-0.11 0.11,0.72 0.01,0.37 -0.04,0.42 0.19,0.64 0.07,-0.84 -0.09,-0.5 0.25,-0.95l0.1 -0.23c0.07,-0.2 0.11,-0.26 0.17,-0.44l-0.26 0.34c-0.02,-0.26 0.06,-0.25 0,-0.55l-0.07 -0.2c0.58,-0.36 0.25,-0.58 1.76,-1.08 -0.13,-0.11 -0.14,-0.04 -0.2,-0.27 1.1,-0.2 1.39,-0.25 2.21,0.29 0,-0.04 -0.04,-0.32 -0.04,-0.33 0.03,-0.26 -0.12,-0.16 0.14,-0.17 0.21,-0.19 0.05,-0.06 0.56,-0.06 -0.06,-0.05 -0.1,-0.08 -0.16,-0.16 -0.1,-0.15 -0.11,-0.04 -0.03,-0.16 -0.2,-0.21 -0.58,-0.3 -0.89,-0.31l0.26 0.5c-0.5,0.02 -1.48,-0.47 -2.5,0.16 0.2,0.23 0.17,0.04 0.32,0.32 -0.7,0.25 -1.14,0.64 -1.53,1.16 -0.26,0.34 -0.23,0.16 -0.56,0.37z"/>
    <path fill="#989697" d="M8.8 17.51c0.2,0.18 0,0.01 0.14,0.23 0.24,0.38 0.3,0.1 0.46,0.46 0.18,0.32 1.9,0.91 2.48,0.88 -0.39,-0.3 -0.87,-0.82 -1.16,-1.01l-0.48 -0.41c-0.37,-0.22 -0.66,-0.42 -0.99,-0.69 -0.3,-0.26 -0.57,-0.64 -0.95,-0.8 0.07,0.42 0.28,1.07 0.5,1.34z"/>
    <path fill="#6B6C5B" d="M7.84 7.42l0.26 -0.07c0.08,0.44 -0.54,0.86 -0.72,1.46l-0.03 -0.28c-0.25,0.35 -0.26,1.84 -0.2,2.21 0.14,-0.31 0.87,-1.35 1.12,-1.57 0.28,-0.24 0.11,-0.17 0.2,0.01 0.09,-0.07 0.05,0.02 0.21,-0.19 0.13,-0.17 -0.01,0.11 0.08,-0.18 -0.26,-0.12 -0.15,0.17 -0.13,-0.3 0,0 0.11,-0.27 0.11,-0.29 0.08,-0.17 0.17,-0.38 0.22,-0.59 -0.26,0.05 -0.45,-0.05 -0.71,-0.13 0.08,-0.41 -0.02,-0.16 0.13,-0.4 0.14,-0.22 -0.01,0 0.23,-0.22 -0.25,0.06 -0.25,0.08 -0.45,0.21 -0.25,0.19 -0.15,0.08 -0.32,0.33z"/>
    <path fill="#82846C" d="M12 5.28c-0.11,0.17 -0.14,0.1 -0.32,0.26l0.3 -0.04c-0.17,0.3 -0.52,0.55 -0.62,0.86 -0.09,0.36 -0.13,0.03 0.25,0.44 0.57,-0.04 0.51,0.06 0.91,-0.14 0.3,-0.02 1.43,-1.07 1.92,-1.07 -0.06,-0.1 0,-0.19 -0.46,-0.23l-1.53 -0.01c-0.28,-0.06 -0.11,0.16 -0.24,-0.14 -0.16,0.05 -0.09,0 -0.21,0.07z"/>
    <path fill="#B2B59B" d="M4.41 12.96c-0.11,-0.35 0,-0.16 0.02,-0.49 0.01,-0.3 -0.03,-0.26 -0.07,-0.56l-0.27 -1.48c-0.34,-0.32 -0.07,-0.5 -0.35,-0.76 -0.42,0.73 -0.38,3.27 0,3.95 0.29,0 0.37,-0.02 0.48,-0.21 0.06,-0.11 0.04,-0.11 0.08,-0.22l0.08 -0.17c0,-0.03 0.02,-0.04 0.03,-0.06z"/>
    <path fill="#FBFBF6" d="M3.79 20.52c-0.09,-0.08 -0.4,-0.68 -1.31,-1.15 -0.17,-0.09 -0.27,-0.14 -0.57,-0.09 -0.19,0.03 -0.18,0.04 -0.23,0.06 -0.31,0.76 0.46,0.85 0.64,1.04 0.5,0.52 0.25,0.18 0.68,0.47l0.72 0.43c0.22,0.16 -0.05,0.18 0.52,0.16 -0.04,-0.6 0.01,-0.15 -0.22,-0.47 -0.06,-0.09 -0.19,-0.36 -0.23,-0.45z"/>
    <path fill="#8E9177" d="M4.36 11.91c0.04,0.3 0.08,0.26 0.07,0.56 -0.02,0.33 -0.13,0.14 -0.02,0.49l0.12 -0.26c0.04,-0.13 0.05,-0.18 0.09,-0.27 0.17,0.42 1.31,2.57 1.62,2.63 0.19,0.1 0.22,-0.04 0.12,0.11l-0.07 -1.18c-0.06,-0.48 -0.08,-0.49 -0.85,-0.47 -0.24,-0.46 -0.29,-2.15 -0.1,-2.73l-0.16 -0.11c-0.01,-0.01 -0.04,-0.04 -0.06,-0.05 0,0.12 -0.44,1.16 -0.53,1.46 -0.12,-0.14 -0.14,-0.1 -0.23,-0.18z"/>
    <path fill="#6C6777" d="M18.45 12.18l0.03 0.46c0.28,0.39 -0.06,1.47 -0.25,1.94 -0.02,0.03 -0.12,0.26 -0.13,0.27 -0.14,0.52 -0.12,0.15 0.08,0.3l0.72 -0.61c0.25,-0.17 0.11,-0.22 0.19,-0.02 0.02,-0.01 0.05,-0.06 0.06,-0.04 0.01,0.01 0.04,-0.04 0.06,-0.06 0.11,-0.15 0.01,0.02 0.12,-0.2 -0.2,-0.09 -0.09,0 -0.09,-0.24 -0.01,-0.16 0.28,-1.26 0.01,-2.2l-0.15 -0.31c-0.1,0.17 -0.39,0.8 -0.44,0.96l-0.21 -0.25z"/>
    <path fill="#64635B" d="M7.52 13.1l0.08 0.28 -0.43 0.32c-0.36,-0.26 -0.36,-0.19 -0.54,-0.31 0.08,0.42 0.37,0.91 0.59,1.25 0.21,0.31 0.5,0.84 0.84,1l-0.2 -1.27c-0.01,-0.27 -0.02,-0.33 0.13,-0.46 -0.13,-0.36 -0.07,-0.07 -0.05,-0.4 0.74,0.23 0.49,-0.17 0.77,0.71 0.13,0.4 0.24,0.84 0.46,1.07l-0.12 -0.53c-0.01,-0.02 -0.03,-0.08 -0.04,-0.06l-0.16 -0.36c-0.07,-0.21 -0.1,-0.26 -0.1,-0.49 -0.02,-0.18 -0.21,-0.82 -0.35,-0.99 -0.28,-0.31 -0.23,0.15 -0.24,-0.84 -0.23,0.42 -0.18,1.14 -0.37,1.5 -0.12,-0.22 -0.05,-0.24 -0.27,-0.42z"/>
    <path fill="#8E9177" d="M17.56 19.76c-0.17,0.04 -1.18,0.61 -1.25,0.76l1.66 0.07c0.42,0.01 0.38,-0.07 0.41,0.19 0.02,-0.02 0.04,-0.07 0.05,-0.06 0.03,0.04 0.49,-0.75 1.13,-0.79 -0.11,-0.31 -0.32,-0.71 -0.65,-0.65 -0.23,0.04 0.05,-0.02 -0.16,0.05 -0.51,0.16 -0.88,0.38 -1.19,0.43z"/>
    <path fill="#84847B" d="M14.08 19.07l-1.88 0.1c0.12,0.19 0,0.04 0.17,0.18 0.17,0.14 1.12,0.58 1.37,0.58 0.21,0.01 0.29,0 0.48,0 0.56,0.03 1.81,-0.58 2.19,-0.87 -0.27,-0.25 -0.61,0.33 -2.33,0.01z"/>
    <path fill="#746C77" d="M19.6 9.94c0.17,0.11 0.09,-0.13 0.07,0.25 0.01,0.19 0.34,0.91 0.44,1.27 0.14,0.55 0.16,1 0.17,1.59 0.25,-0.09 0.53,-0.6 0.71,-0.84 0.2,-0.29 0.08,-0.24 0.32,-0.23l0.05 -0.27c-0.28,-0.22 -0.19,-0.44 -0.31,-0.73 -0.01,-0.02 -0.02,-0.04 -0.03,-0.06 -0.04,-0.1 -0.05,-0.11 -0.09,-0.16 -0.09,0.32 0.07,0.06 -0.15,0.25 -0.18,-0.23 -0.47,-0.35 -0.72,-0.57 -0.26,-0.23 -0.28,-0.52 -0.4,-0.88 -0.04,0.07 -0.06,0.01 -0.08,0.16 -0.02,0.23 0,0.08 0.02,0.22z"/>
    <path fill="#A3A49B" d="M21.31 11.98l-0.01 0.27c0.04,0.06 0.06,0.07 0.11,0.21l0.03 0.69c-0.03,0.4 -0.08,0.59 -0.05,1 0.74,-0.02 0.66,-0.99 1.25,-1.37l0.06 -0.16c-0.2,0.05 -0.08,0.13 -0.16,-0.08 0.47,-0.02 0.01,0.03 0.23,-0.1 -0.35,-0.07 -0.11,0.12 -0.3,-0.15 -0.08,0.06 -0.32,-0.16 -0.47,-0.29 -0.29,-0.26 -0.17,-0.27 -0.62,-0.35l-0.02 0.06 -0.05 0.27z"/>
    <path fill="#A7A989" d="M5.98 9.3c0.05,-0.05 1.2,-1.43 1.2,-1.44 0.14,-0.26 0.23,-0.46 0.31,-0.82 -0.27,-0.17 -0.2,-0.28 -0.61,-0.31 -0.3,0.3 -0.51,0.72 -0.74,1.17 -0.32,0.66 -0.37,0.67 -0.37,1.47l0.21 -0.07z"/>
    <path fill="#B2B59B" d="M4.03 5.74c-0.05,0.26 -0.23,2.32 -0.01,2.37 0.14,-0.1 0.24,-0.19 0.26,-0.38 0.09,-0.44 -0.02,-0.03 0.15,-0.38 0.05,-0.11 0.09,-0.19 0.15,-0.31 0.13,-0.24 0.27,-0.39 0.28,-0.67 0.14,-0.61 0.55,-0.51 -0.68,-1.19l-0.15 0.56z"/>
    <path fill="#595556" d="M15.76 10.27c0.34,0.24 0.56,0.42 0.78,0.7 0.26,0.33 0.33,0.56 0.57,0.94 0.14,-0.19 0.17,-0.55 0.22,-0.84 0.4,0.31 0.32,0.84 0.56,1.2l-0.04 -1.21c0.05,0.01 0.13,0.07 0.14,0.08 0.14,0.08 -0.02,0 0.19,0.1 -0.08,-0.29 -0.17,-0.43 -0.33,-0.66 -0.06,-0.09 -0.11,-0.16 -0.2,-0.27 -0.16,-0.19 -0.03,-0.17 -0.25,-0.17l-0.02 0.83c-0.18,-0.11 -0.04,0 -0.16,-0.12 -0.03,-0.02 -0.13,-0.14 -0.16,-0.17 -0.17,-0.24 -0.47,-0.69 -0.93,-0.79 -0.08,0.12 -0.07,0.01 0.03,0.16 0.06,0.08 0.1,0.11 0.16,0.16 -0.51,0 -0.35,-0.13 -0.56,0.06z"/>
    <path fill="#908F89" d="M19.33 14.22c-0.11,0.22 -0.01,0.05 -0.12,0.2 -0.02,0.02 -0.05,0.07 -0.06,0.06 -0.01,-0.02 -0.04,0.03 -0.06,0.04l-0.27 0.82 0.1 0.63c0.49,-0.08 0.23,-0.31 0.73,-0.5 0.3,-0.53 0.57,-1.43 0.59,-2.17 -0.28,0.14 -0.33,0.24 -0.49,0.42 -0.15,0.17 -0.38,0.32 -0.42,0.5z"/>
    <path fill="#413E3C" d="M10.96 9.61c0.62,0.22 0.49,-0.02 1.45,-0.63 0.6,-0.38 1.04,-0.4 1.73,-0.61 -0.15,-0.3 0,-0.07 -0.22,-0.27l-0.27 -0.21c-0.01,-0.01 -0.03,-0.03 -0.05,-0.04 -1.13,0.43 -2.23,1.04 -2.64,1.76z"/>
    <path fill="#7A7587" d="M16.63 13.81c-0.05,0.08 -0.21,0.46 -0.29,0.63 -0.11,0.24 -0.27,0.41 -0.38,0.63 0.37,-0.15 0.55,-0.34 0.86,-0.47l-0.17 0.43 0.13 0.01c-0.01,0.04 -0.03,0.48 -0.01,0.64l0.35 -0.38c0.3,-0.48 0.54,-0.94 0.63,-1.54 -0.13,0.09 -0.6,0.48 -0.77,0.64 0.17,-0.68 0.39,-1.2 0.23,-1.96 -0.09,0.21 -0.14,0.54 -0.21,0.77 -0.02,0.06 -0.09,0.25 -0.13,0.32 -0.15,0.31 0.04,0.14 -0.24,0.28z"/>
    <path fill="#4C4A45" d="M16.41 7.75c-0.28,-0.3 -0.65,-0.33 -1.03,-0.52 -0.3,-0.14 -0.16,0.03 -0.2,-0.19 0.48,-0.04 0.21,-0.06 0.33,-0.16 -0.76,0 -1.81,0.07 -2.37,0.47l0.22 0.24c0.1,0.11 0.14,0.15 0.22,0.24 1.31,-0.2 1.42,-0.31 2.83,-0.08z"/>
    <path fill="#656462" d="M16.49 17.3l0.22 0.05c-0.2,0.54 -0.24,0.43 -1.01,0.74 -0.3,0.12 -0.29,0.14 -0.52,0.3 -0.36,0.25 -0.18,0.05 -0.64,0.15 0.2,0.16 0.26,0.06 0.5,0.18 -0.26,0.12 -0.75,0.18 -0.96,0.35 1.72,0.32 2.06,-0.26 2.33,-0.01 0.13,-0.05 0.19,-0.08 0.28,-0.14 0,0 0.07,-0.06 0.09,-0.08 0.1,-0.09 0.04,-0.03 0.12,-0.14l-1.62 0.03c0.1,-0.21 0.38,-0.29 0.59,-0.41 0.24,-0.13 0.39,-0.24 0.61,-0.38 0.42,-0.27 0.8,-0.61 1.07,-0.93l-0.94 0.23c-0.02,0.01 -0.05,0.03 -0.06,0.03 -0.02,0.01 -0.04,0.02 -0.06,0.03z"/>
    <path fill="#8B8C7B" d="M6.61 12.43l-0.01 0.81 0.03 0.15c0.18,0.12 0.18,0.05 0.54,0.31l0.43 -0.32 -0.08 -0.28c0,-0.03 -0.36,-1.87 -0.52,-2.05 -0.12,0.45 -0.4,0.82 -0.39,1.38z"/>
    <path fill="#9EA188" d="M4.03 5.74l0.15 -0.56c1.23,0.68 0.82,0.58 0.68,1.19 0.26,-0.18 0.28,-0.31 0.4,-0.57 0.42,0.05 0.3,0.18 0.7,0.17l0.25 -0.49c0.08,-0.25 0.26,-0.79 0.25,-1.04l0.04 -0.45c-0.51,0.21 -0.19,0.15 -0.62,0.68 -0.26,0.33 -0.42,0.62 -0.62,0.91 -0.25,-0.17 -0.16,-0.16 -0.52,-0.32 -0.31,-0.13 -0.23,-0.18 -0.54,-0.31 -0.18,0.26 -0.15,0.44 -0.17,0.79z"/>
    <path fill="#353333" d="M11.45 14.87l0.07 0.27c0,-0.01 0,0.04 -0.01,0.05 -0.16,0.08 -0.17,0.07 -0.36,-0.03 0.25,0.29 0.73,0.65 1.22,0.72 -0.26,-0.31 -0.38,-0.27 -0.58,-0.63 0.54,0.25 0.85,0.47 1.51,0.34 -0.32,-0.23 -0.29,-0.09 -0.53,-0.24 -0.27,-0.16 -0.06,0 -0.2,-0.18 0.54,0.02 0.85,0.12 1.27,-0.1 -1.06,0.01 -1.45,-0.18 -1.88,-0.82 -0.12,0.16 -0.21,-0.24 -0.07,0.29l0.21 0.35c-0.41,-0.2 -0.66,-0.51 -0.84,-0.95l0.19 0.93z"/>
    <path fill="#5D5B5B" d="M14.54 15.67c0.22,-0.04 0.07,0.02 0.22,-0.05 0.11,-0.04 0.11,-0.06 0.17,-0.11 -0.3,-0.13 0.47,-0.29 0.84,-0.95 0.09,-0.16 0.15,-0.31 0.2,-0.52 -0.27,0.12 -0.26,0.25 -0.65,0.42 0.25,-0.59 0.55,-1 0.41,-1.76 -0.57,0.72 -0.02,1.07 -1.21,2.12l0.56 -0.15c-0.2,0.37 -0.94,0.74 -1.32,0.91l0.78 0.09z"/>
    <path fill="#9B9C8C" d="M8.34 9.55c-0.04,0.44 -0.14,0.68 -0.12,1.21 0.42,0 0.43,0.02 0.63,-0.3 0.25,-0.43 0.8,-1.28 0.82,-1.67 -0.05,-0.24 0.08,-0.09 -0.16,-0.18 -0.2,0.18 -0.39,0.26 -0.6,0.46 -0.42,0.42 -0.19,0.36 -0.57,0.48z"/>
    <path fill="#A2A48C" d="M6.4 5.83c-0.1,0.29 -0.08,0.07 -0.22,0.37 0.23,0.11 0.38,0.25 0.7,0.3 0.41,-0.22 0.9,-1.2 1.54,-1.6l0.06 0.05c0.02,-0.42 0.04,-0.17 -0.08,-0.3 -0.47,0.18 -1.78,0.85 -2,1.18z"/>
    <path fill="#87887B" d="M22.64 12.78c-0.59,0.38 -0.51,1.35 -1.25,1.37 -0.03,-0.41 0.02,-0.6 0.05,-1l-0.03 -0.69c-0.05,-0.14 -0.07,-0.15 -0.11,-0.21 0.04,1.27 -0.11,1.75 -0.29,2.89 0.48,-0.23 0.72,-0.52 1.09,-0.82 0.54,-0.43 0.48,-0.38 0.54,-1.54z"/>
    <path fill="#B6BA9B" d="M18.38 20.78c-0.15,0 -1.15,0.68 -1.26,0.85 0.87,0 1.58,-0.54 2.22,-0.61 0.35,-0.57 0.15,-0.35 0.18,-0.9 0,-0.02 0.01,-0.05 0.01,-0.07l0.03 -0.12c-0.64,0.04 -1.1,0.83 -1.13,0.79 -0.01,-0.01 -0.03,0.04 -0.05,0.06z"/>
    <path fill="#A7A989" d="M9.81 6.03l0.09 0.04 1.78 -0.53c0.18,-0.16 0.21,-0.09 0.32,-0.26 -0.18,0.06 -0.06,0.03 -0.25,0.02 -0.01,0 -0.04,0 -0.05,-0.01 -0.02,0 -0.04,0 -0.05,0l-0.67 -0.07c0.02,-0.01 0.04,-0.03 0.05,-0.04 0.01,-0.01 0.04,-0.03 0.05,-0.04l0.19 -0.16c-0.27,-0.24 -0.31,-0.29 -0.27,-0.7 -0.31,0.2 -0.45,0.5 -0.68,0.86 -0.17,0.28 -0.46,0.66 -0.51,0.89z"/>
    <path fill="#656462" d="M15.94 11.93c0.36,0.49 0.3,1.27 0.19,1.84 0.37,-0.23 0.26,-0.43 0.59,-0.69l-0.09 0.73c0.28,-0.14 0.09,0.03 0.24,-0.28 0.04,-0.07 0.11,-0.26 0.13,-0.32 0.07,-0.23 0.12,-0.56 0.21,-0.77l-0.06 -0.26 -0.39 0.82c-0.15,-0.21 -0.17,-0.67 -0.25,-0.93 -0.09,-0.31 -0.23,-0.59 -0.35,-0.75 -0.31,-0.04 -0.16,-0.06 -0.33,0.08 0.01,0.31 0.01,0.28 0.11,0.53z"/>
    <path fill="#908F89" d="M19.66 9.56c0.12,0.36 0.14,0.65 0.4,0.88 0.25,0.22 0.54,0.34 0.72,0.57 0.22,-0.19 0.06,0.07 0.15,-0.25 -0.03,-0.35 -0.28,-0.77 -0.45,-1.05 -0.19,-0.32 -0.42,-0.77 -0.79,-0.89l-0.03 0.74z"/>
    <path fill="#837B87" d="M21.38 11.65c0.45,0.08 0.33,0.09 0.62,0.35 0.15,0.13 0.39,0.35 0.47,0.29 0.19,0.27 -0.05,0.08 0.3,0.15l0.04 -0.35 -0.2 0.18c-0.04,-0.39 -0.09,-0.69 -0.18,-1.07 -0.06,-0.28 -0.16,-0.68 -0.35,-0.88 -0.15,0.18 -0.61,1.1 -0.7,1.33z"/>
    <path fill="#9C9D93" d="M11.9 21.14l0.41 0.05c0.13,-0.26 0.31,-0.48 0.39,-0.78 -0.3,-0.21 -0.52,-0.04 -0.85,-0.13 -0.45,-0.11 0.27,0.11 -0.14,-0.05l-0.13 -0.07 -1 -0.16c0.14,0.35 0.34,0.45 0.61,0.68 0.13,0.11 0.48,0.41 0.71,0.46z"/>
    <path fill="#413E3C" d="M12.06 9.93c0.37,0.08 0.33,0.14 0.66,-0.03 0.87,-0.47 1.19,-0.47 2.27,-0.47 -0.08,-0.29 -0.13,-0.29 -0.32,-0.49 -0.94,0.02 -2.22,0.38 -2.61,0.99z"/>
    <path fill="#413E3C" d="M9.93 12.7c0.39,-0.54 0.92,-1.62 1.37,-2.15 0.18,-0.22 0.44,-0.4 0.52,-0.64l-0.43 -0.08c-0.43,0.48 -1.79,2.19 -1.46,2.87z"/>
    <path fill="#353333" d="M10.98 12.17l0.18 -0.06c0.31,-1 1.44,-1.63 1.63,-1.88 -0.55,-0.17 -0.88,0.24 -1.35,0.77 -0.21,0.24 -0.04,-0.02 -0.23,0.3 -0.1,0.17 -0.13,0.23 -0.22,0.39 -0.06,0.09 -0.14,0.26 -0.2,0.33 -0.16,0.23 -0.12,0.11 -0.31,0.29l0.08 0.81c0.06,-0.21 0.23,-0.94 0.42,-0.95z"/>
    <path fill="#898788" d="M17.89 12.27l-0.02 1.19c0.22,-0.17 0.51,-0.51 0.61,-0.82l-0.03 -0.46c0.03,-0.32 -0.09,-0.76 -0.27,-0.94 -0.21,-0.1 -0.05,-0.02 -0.19,-0.1 -0.01,-0.01 -0.09,-0.07 -0.14,-0.08l0.04 1.21z"/>
    <path fill="#838473" d="M7.99 13.91c0.07,0.42 0.95,1.71 1.35,1.93l-0.17 -0.55c-0.22,-0.23 -0.33,-0.67 -0.46,-1.07 -0.28,-0.88 -0.03,-0.48 -0.77,-0.71 -0.02,0.33 -0.08,0.04 0.05,0.4z"/>
    <path fill="#252323" d="M15.94 11.93c-0.1,-0.25 -0.1,-0.22 -0.11,-0.53 0.17,-0.14 0.02,-0.12 0.33,-0.08 -0.13,-0.29 -0.07,-0.13 -0.24,-0.33 -0.18,0.17 -0.18,0.23 -0.18,0.56 0.04,-0.1 0.13,0.01 -0.28,-0.25 -0.16,-0.1 -0.27,-0.18 -0.42,-0.26 -0.3,-0.17 -0.69,-0.33 -1.1,-0.23l0.22 0.18c-0.01,0.01 -0.04,0 -0.05,0.04 -0.12,0.37 0.14,-0.1 -0.26,0.2 -0.01,0.01 -0.03,0.02 -0.05,0.04l0.28 0.15 0.28 -0.21c0.09,-0.05 -0.17,-0.15 0.27,-0.03 0.67,0.17 0.88,0.87 1.01,1.16l0.3 -0.41z"/>
    <path fill="#64635B" d="M19.24 16.44c0.26,-0.08 0.16,0.02 0.24,-0.24 -0.15,-0.09 -0.2,0.15 -0.01,-0.29 0.08,-0.19 0.11,-0.2 0.18,-0.44 -0.5,0.19 -0.24,0.42 -0.73,0.5l-0.1 -0.63c-0.21,0.2 -0.31,0.5 -0.46,0.74 -0.18,0.3 -0.37,0.44 -0.52,0.75l1.11 -0.41c0.43,-0.2 0.21,-0.11 0.29,0.02z"/>
    <path fill="#3D3B3B" d="M16.41 9.31c0.08,-0.15 -0.15,-0.24 0.13,-0.14l-1.14 -0.79 0.42 0.03c-0.36,-0.17 -1.11,-0.14 -1.56,-0.08 0.13,0.28 -0.02,0.03 0.22,0.28 0.63,0.69 0.6,-0.1 1.93,0.7z"/>
    <path fill="#7E8169" d="M8.61 6.88c-0.24,0.22 -0.09,0 -0.23,0.22 -0.15,0.24 -0.05,-0.01 -0.13,0.4 0.26,0.08 0.45,0.18 0.71,0.13 0.13,-0.27 0.27,-0.53 0.4,-0.78 0.11,-0.2 0.11,-0.25 0.2,-0.41 0.19,-0.37 0.11,-0.09 0.34,-0.37l-0.09 -0.04c-0.02,0.02 -0.03,0.04 -0.04,0.05l-0.25 0.24c-0.23,0.15 -0.69,0.27 -0.91,0.56z"/>
    <path fill="#74746B" d="M8.76 8.81c-0.09,0.29 0.05,0.01 -0.08,0.18 -0.16,0.21 -0.12,0.12 -0.21,0.19l-0.13 0.37c0.38,-0.12 0.15,-0.06 0.57,-0.48 0.21,-0.2 0.4,-0.28 0.6,-0.46 0.24,0.09 0.11,-0.06 0.16,0.18 0.21,-0.18 0.19,-0.29 0.31,-0.55 0.08,-0.18 0.17,-0.36 0.29,-0.48 -0.22,0.05 -1.32,0.62 -1.51,1.05z"/>
    <path fill="#746C77" d="M10.24 17.66l0.48 0.41c-0.09,-0.33 -0.09,-0.13 0.13,-0.18 -0.14,-0.18 0.17,-0.15 -0.15,-0.15l0.11 -0.12c0.11,-0.1 0.02,0.04 0.08,-0.07l-0.35 -0.42c0.16,-0.09 -0.21,-0.2 0.22,-0.04 -0.26,-0.36 -0.94,-0.53 -1.17,-0.91 0.02,0.23 0.21,0.54 0.34,0.79 0.4,0.71 0.56,0.59 0.31,0.69z"/>
    <path fill="#74746B" d="M18.53 10.04c0.03,0.21 0.14,0.31 0.28,0.57 0.12,0.23 0.17,0.42 0.29,0.61 0.16,-0.2 0.28,-0.61 0.27,-0.92l-0.04 -0.24c-0.23,-0.11 -0.47,-0.23 -0.76,-0.26 -0.04,0.08 -0.08,-0.13 -0.04,0.24z"/>
    <path fill="#92947C" d="M4.5 23.43c0.01,-0.02 0.03,-0.04 0.04,-0.07 -0.03,0.01 -0.06,0.02 -0.09,0.03 0.02,0.02 0.03,0.03 0.05,0.04z"/>
    <path fill="#968FA4" d="M16.43 15.99c0.11,-0.19 -0.19,-0.2 0.25,-0.13 0.23,-0.2 0.04,0 0.09,-0.18 -0.02,-0.16 0,-0.6 0.01,-0.64l-0.13 -0.01 -1.23 1.28 1.01 -0.32z"/>
    <path fill="#615E59" d="M4.6 20.67l-0.57 -0.24 -0.02 0.19c0.11,0.07 0.14,0.16 0.23,0.27 0.03,0.04 0.13,0.15 0.15,0.17 0.14,0.12 0.05,0.06 0.25,0.15 -0.05,-0.11 -0.1,-0.23 -0.13,-0.29 0.58,0.1 0.84,0.56 1.45,0.56 0.01,-0.26 -0.2,-1.11 -0.46,-1.37 0.06,0.48 0.24,0.68 0.27,1.18 -0.33,-0.07 -1.02,-0.36 -1.17,-0.62z"/>
    <path fill="#393827" d="M13.81 13.12l0.03 0.28 -0.22 0.13 -0.07 0.13 -0.48 -0.05c-0.22,-0.15 -0.09,0.21 -0.22,-0.3l-0.07 0.07 -0.02 -0.24 -0.09 0.32c0.2,0.17 0.42,0.31 0.69,0.38 -0.01,0.01 0.06,0.23 -0.45,-0.08 0.07,0.3 0.32,0.43 0.69,0.47 0.33,-0.39 0.52,-0.77 0.21,-1.11z"/>
    <path fill="#676749" d="M12.76 13.14l0.02 0.24 0.07 -0.07c0.13,0.51 0,0.15 0.22,0.3l-0.09 -0.44c0.22,-0.09 0.33,-0.15 0.59,0.01l0.05 0.35 0.22 -0.13 -0.03 -0.28c-0.19,-0.53 -0.97,-0.6 -1.05,0.02z"/>
    <path fill="#74746B" d="M10.98 12.17c0.01,0.2 0,0.39 0.01,0.6 0.01,0.09 0.03,0.2 0.05,0.29l0.12 0.25 0.2 -0.86 0.13 -0.41 -0.26 0.05 -0.07 0.02 -0.18 0.06z"/>
    <path fill="#E9EBB9" d="M13.07 13.61l0.48 0.05 0.07 -0.13 -0.05 -0.35c-0.26,-0.16 -0.37,-0.1 -0.59,-0.01l0.09 0.44z"/>
   </g>
   <path fill="black" fill-rule="nonzero" d="M10.84 17.82l-1.65 0c-0.18,0 -0.34,-0.05 -0.46,-0.13 -0.12,-0.09 -0.2,-0.2 -0.25,-0.33l-0.54 -1.61 -3.5 0 -0.54 1.61c-0.04,0.11 -0.12,0.22 -0.24,0.31 -0.13,0.1 -0.28,0.15 -0.45,0.15l-1.67 0 3.56 -9.2 2.18 0 3.56 9.2zm-5.9 -3.52l2.51 0 -0.85 -2.48c-0.05,-0.16 -0.11,-0.34 -0.19,-0.56 -0.07,-0.21 -0.15,-0.44 -0.22,-0.69 -0.06,0.25 -0.13,0.49 -0.21,0.7 -0.07,0.22 -0.13,0.4 -0.2,0.56l-0.84 2.47z"/>
   <path id="1" fill="black" fill-rule="nonzero" d="M13.15 14.44l-2.1 -3.17 1.88 0c0.14,0 0.24,0.02 0.3,0.06 0.07,0.03 0.13,0.09 0.18,0.18l1.16 1.94c0.03,-0.08 0.06,-0.15 0.1,-0.22 0.04,-0.08 0.08,-0.15 0.12,-0.23l0.84 -1.46c0.05,-0.1 0.11,-0.17 0.18,-0.21 0.07,-0.04 0.15,-0.06 0.25,-0.06l1.79 0 -2.11 3.08 2.2 3.47 -1.88 0c-0.14,0 -0.25,-0.03 -0.34,-0.1 -0.08,-0.06 -0.15,-0.14 -0.21,-0.24l-1.16 -2.01c-0.02,0.08 -0.05,0.14 -0.08,0.21 -0.03,0.06 -0.06,0.12 -0.09,0.17l-0.96 1.63c-0.05,0.09 -0.12,0.17 -0.21,0.24 -0.08,0.07 -0.18,0.1 -0.31,0.1l-1.74 0 2.19 -3.38z"/>
   <path id="2" fill="black" fill-rule="nonzero" d="M18.82 17.82l0 -9.2 3.38 0c0.64,0 1.18,0.06 1.62,0.18 0.45,0.12 0.81,0.29 1.1,0.5 0.28,0.22 0.48,0.48 0.61,0.79 0.13,0.31 0.19,0.65 0.19,1.03 0,0.21 -0.03,0.41 -0.08,0.6 -0.06,0.19 -0.16,0.37 -0.28,0.54 -0.13,0.17 -0.29,0.32 -0.49,0.46 -0.2,0.14 -0.43,0.26 -0.71,0.36 0.6,0.15 1.05,0.38 1.34,0.71 0.29,0.33 0.44,0.75 0.44,1.27 0,0.39 -0.08,0.75 -0.23,1.09 -0.15,0.34 -0.37,0.63 -0.66,0.88 -0.3,0.25 -0.66,0.44 -1.09,0.58 -0.43,0.14 -0.92,0.21 -1.47,0.21l-3.67 0zm2.13 -3.9l0 2.29 1.51 0c0.28,0 0.51,-0.04 0.69,-0.11 0.18,-0.07 0.31,-0.16 0.42,-0.27 0.1,-0.12 0.17,-0.25 0.2,-0.39 0.04,-0.14 0.06,-0.29 0.06,-0.43 0,-0.17 -0.02,-0.32 -0.06,-0.46 -0.05,-0.13 -0.12,-0.25 -0.23,-0.34 -0.11,-0.09 -0.25,-0.16 -0.43,-0.21 -0.18,-0.05 -0.4,-0.08 -0.67,-0.08l-1.49 0zm0 -1.42l1.11 0c0.24,0 0.45,-0.02 0.64,-0.05 0.19,-0.04 0.35,-0.1 0.49,-0.18 0.13,-0.08 0.23,-0.2 0.3,-0.35 0.07,-0.14 0.1,-0.33 0.1,-0.55 0,-0.22 -0.03,-0.4 -0.08,-0.55 -0.06,-0.14 -0.14,-0.26 -0.25,-0.35 -0.12,-0.09 -0.26,-0.15 -0.43,-0.19 -0.18,-0.04 -0.39,-0.05 -0.63,-0.05l-1.25 0 0 2.27z"/>
   <polygon id="3" fill="white" fill-rule="nonzero" points="29.12,8.37 29.12,17.82 27.16,17.82 27.16,8.37 "/>
   <path id="4" fill="white" fill-rule="nonzero" d="M35.22 17.82c-0.19,0 -0.33,-0.02 -0.42,-0.07 -0.1,-0.05 -0.18,-0.16 -0.24,-0.32l-0.14 -0.36c-0.16,0.14 -0.32,0.26 -0.47,0.37 -0.15,0.1 -0.31,0.19 -0.47,0.27 -0.16,0.07 -0.34,0.12 -0.52,0.16 -0.18,0.04 -0.39,0.05 -0.61,0.05 -0.3,0 -0.57,-0.04 -0.81,-0.11 -0.25,-0.08 -0.45,-0.19 -0.62,-0.35 -0.17,-0.15 -0.31,-0.34 -0.4,-0.56 -0.09,-0.23 -0.14,-0.49 -0.14,-0.79 0,-0.23 0.06,-0.47 0.18,-0.71 0.12,-0.25 0.32,-0.47 0.61,-0.67 0.29,-0.2 0.68,-0.37 1.17,-0.5 0.5,-0.14 1.12,-0.21 1.87,-0.21l0 -0.28c0,-0.38 -0.08,-0.66 -0.24,-0.83 -0.16,-0.17 -0.38,-0.26 -0.67,-0.26 -0.23,0 -0.42,0.02 -0.57,0.07 -0.15,0.06 -0.28,0.11 -0.39,0.17 -0.12,0.07 -0.23,0.12 -0.34,0.18 -0.11,0.05 -0.24,0.07 -0.39,0.07 -0.14,0 -0.25,-0.03 -0.35,-0.1 -0.09,-0.06 -0.17,-0.14 -0.22,-0.24l-0.36 -0.61c0.4,-0.35 0.84,-0.61 1.32,-0.79 0.48,-0.17 1,-0.25 1.55,-0.25 0.39,0 0.75,0.06 1.07,0.19 0.32,0.13 0.59,0.31 0.81,0.54 0.22,0.23 0.39,0.5 0.5,0.82 0.12,0.31 0.18,0.66 0.18,1.03l0 4.09 -0.89 0zm-2.25 -1.2c0.25,0 0.47,-0.04 0.66,-0.13 0.19,-0.08 0.38,-0.22 0.58,-0.42l0 -0.9c-0.4,0 -0.72,0.03 -0.97,0.08 -0.25,0.05 -0.45,0.11 -0.6,0.19 -0.15,0.08 -0.25,0.16 -0.3,0.26 -0.06,0.1 -0.09,0.2 -0.09,0.32 0,0.22 0.06,0.38 0.18,0.47 0.12,0.09 0.3,0.13 0.54,0.13z"/>
   <path id="5" fill="white" fill-rule="nonzero" d="M42.09 17.82c-0.12,0 -0.22,-0.02 -0.3,-0.08 -0.08,-0.05 -0.14,-0.14 -0.18,-0.24l-0.15 -0.5c-0.13,0.14 -0.26,0.26 -0.41,0.38 -0.14,0.11 -0.29,0.21 -0.46,0.29 -0.17,0.08 -0.35,0.14 -0.54,0.19 -0.19,0.04 -0.4,0.06 -0.62,0.06 -0.34,0 -0.66,-0.07 -0.95,-0.22 -0.29,-0.15 -0.54,-0.37 -0.75,-0.66 -0.21,-0.29 -0.37,-0.64 -0.49,-1.05 -0.12,-0.42 -0.18,-0.89 -0.18,-1.42 0,-0.49 0.06,-0.94 0.2,-1.36 0.13,-0.42 0.33,-0.78 0.57,-1.09 0.25,-0.3 0.54,-0.54 0.89,-0.71 0.34,-0.18 0.72,-0.26 1.14,-0.26 0.34,0 0.62,0.05 0.86,0.15 0.23,0.1 0.44,0.23 0.63,0.4l0 -3.33 1.96 0 0 9.45 -1.22 0zm-1.98 -1.4c0.14,0 0.28,-0.01 0.39,-0.04 0.12,-0.03 0.22,-0.07 0.32,-0.12 0.1,-0.05 0.19,-0.11 0.27,-0.19 0.09,-0.07 0.17,-0.16 0.26,-0.26l0 -2.78c-0.15,-0.16 -0.31,-0.28 -0.48,-0.35 -0.17,-0.06 -0.35,-0.09 -0.54,-0.09 -0.18,0 -0.35,0.03 -0.5,0.1 -0.15,0.07 -0.28,0.19 -0.4,0.35 -0.11,0.16 -0.2,0.36 -0.26,0.61 -0.06,0.26 -0.09,0.56 -0.09,0.92 0,0.34 0.02,0.64 0.07,0.87 0.05,0.24 0.12,0.43 0.22,0.57 0.09,0.15 0.19,0.25 0.32,0.32 0.13,0.06 0.27,0.09 0.42,0.09z"/>
   <path id="6" fill="white" fill-rule="nonzero" d="M47.62 11.17c0.43,0 0.83,0.07 1.19,0.2 0.36,0.14 0.67,0.33 0.93,0.59 0.26,0.26 0.46,0.57 0.61,0.94 0.14,0.38 0.21,0.8 0.21,1.27 0,0.15 0,0.27 -0.02,0.36 -0.01,0.09 -0.03,0.17 -0.07,0.22 -0.03,0.05 -0.07,0.09 -0.13,0.11 -0.06,0.02 -0.13,0.04 -0.22,0.04l-3.77 0c0.06,0.54 0.23,0.94 0.5,1.19 0.26,0.25 0.61,0.37 1.04,0.37 0.22,0 0.42,-0.03 0.58,-0.08 0.17,-0.06 0.31,-0.12 0.44,-0.19 0.13,-0.06 0.25,-0.13 0.36,-0.18 0.1,-0.05 0.22,-0.08 0.33,-0.08 0.16,0 0.28,0.06 0.36,0.17l0.56 0.72c-0.2,0.23 -0.41,0.41 -0.65,0.55 -0.23,0.15 -0.47,0.26 -0.72,0.34 -0.24,0.08 -0.49,0.14 -0.74,0.17 -0.24,0.03 -0.48,0.04 -0.7,0.04 -0.46,0 -0.89,-0.07 -1.29,-0.22 -0.4,-0.15 -0.75,-0.37 -1.05,-0.67 -0.3,-0.29 -0.54,-0.66 -0.72,-1.1 -0.17,-0.43 -0.26,-0.94 -0.26,-1.52 0,-0.44 0.08,-0.86 0.23,-1.25 0.14,-0.39 0.36,-0.73 0.64,-1.03 0.28,-0.29 0.62,-0.53 1.02,-0.7 0.39,-0.17 0.84,-0.26 1.34,-0.26zm0.04 1.35c-0.38,0 -0.67,0.11 -0.88,0.32 -0.21,0.21 -0.35,0.52 -0.41,0.92l2.44 0c0,-0.16 -0.02,-0.31 -0.06,-0.45 -0.04,-0.15 -0.11,-0.28 -0.2,-0.4 -0.09,-0.12 -0.21,-0.21 -0.35,-0.28 -0.15,-0.07 -0.33,-0.11 -0.54,-0.11z"/>
   <path id="7" fill="white" fill-rule="nonzero" d="M59.25 10.49c-0.07,0.1 -0.13,0.18 -0.2,0.23 -0.07,0.05 -0.16,0.07 -0.27,0.07 -0.1,0 -0.2,-0.03 -0.31,-0.09 -0.11,-0.06 -0.24,-0.13 -0.38,-0.2 -0.14,-0.08 -0.3,-0.15 -0.49,-0.21 -0.18,-0.06 -0.38,-0.09 -0.61,-0.09 -0.4,0 -0.7,0.09 -0.9,0.26 -0.19,0.17 -0.29,0.4 -0.29,0.69 0,0.18 0.06,0.34 0.18,0.46 0.11,0.12 0.27,0.23 0.46,0.32 0.19,0.08 0.41,0.16 0.66,0.24 0.24,0.07 0.49,0.15 0.75,0.24 0.26,0.09 0.51,0.2 0.76,0.32 0.24,0.12 0.46,0.28 0.65,0.47 0.19,0.19 0.35,0.42 0.46,0.69 0.12,0.27 0.18,0.6 0.18,0.98 0,0.43 -0.07,0.83 -0.22,1.2 -0.15,0.37 -0.36,0.69 -0.64,0.97 -0.28,0.27 -0.62,0.49 -1.03,0.65 -0.41,0.15 -0.88,0.23 -1.4,0.23 -0.29,0 -0.58,-0.03 -0.88,-0.08 -0.29,-0.06 -0.58,-0.14 -0.86,-0.25 -0.28,-0.1 -0.54,-0.23 -0.78,-0.37 -0.24,-0.15 -0.46,-0.31 -0.64,-0.49l0.63 -1.01c0.05,-0.08 0.11,-0.14 0.2,-0.19 0.08,-0.04 0.17,-0.07 0.27,-0.07 0.13,0 0.25,0.04 0.38,0.12 0.13,0.08 0.28,0.17 0.44,0.27 0.16,0.09 0.35,0.18 0.56,0.26 0.21,0.08 0.45,0.12 0.74,0.12 0.39,0 0.69,-0.08 0.9,-0.25 0.22,-0.17 0.32,-0.44 0.32,-0.81 0,-0.22 -0.05,-0.39 -0.17,-0.53 -0.12,-0.13 -0.27,-0.25 -0.46,-0.33 -0.2,-0.09 -0.41,-0.17 -0.66,-0.24 -0.24,-0.06 -0.49,-0.14 -0.75,-0.22 -0.26,-0.08 -0.51,-0.18 -0.75,-0.31 -0.24,-0.11 -0.46,-0.27 -0.65,-0.47 -0.19,-0.19 -0.35,-0.44 -0.47,-0.73 -0.12,-0.29 -0.17,-0.65 -0.17,-1.08 0,-0.35 0.07,-0.69 0.2,-1.01 0.14,-0.33 0.35,-0.63 0.62,-0.88 0.27,-0.26 0.6,-0.46 0.99,-0.62 0.39,-0.15 0.84,-0.23 1.34,-0.23 0.28,0 0.56,0.02 0.83,0.07 0.26,0.04 0.52,0.11 0.75,0.2 0.24,0.08 0.47,0.19 0.68,0.31 0.21,0.12 0.39,0.26 0.56,0.41l-0.53 0.98z"/>
   <path id="8" fill="white" fill-rule="nonzero" d="M63.88 11.17c0.49,0 0.95,0.08 1.35,0.24 0.41,0.15 0.76,0.37 1.06,0.66 0.29,0.29 0.52,0.65 0.68,1.06 0.16,0.42 0.24,0.88 0.24,1.4 0,0.53 -0.08,0.99 -0.24,1.41 -0.16,0.42 -0.39,0.78 -0.68,1.07 -0.3,0.29 -0.65,0.52 -1.06,0.68 -0.4,0.15 -0.86,0.23 -1.35,0.23 -0.5,0 -0.96,-0.08 -1.37,-0.23 -0.41,-0.16 -0.76,-0.39 -1.06,-0.68 -0.29,-0.29 -0.52,-0.65 -0.69,-1.07 -0.16,-0.42 -0.24,-0.88 -0.24,-1.41 0,-0.52 0.08,-0.98 0.24,-1.4 0.17,-0.41 0.4,-0.77 0.69,-1.06 0.3,-0.29 0.65,-0.51 1.06,-0.66 0.41,-0.16 0.87,-0.24 1.37,-0.24zm0 5.3c0.45,0 0.78,-0.16 0.99,-0.47 0.21,-0.32 0.32,-0.81 0.32,-1.46 0,-0.64 -0.11,-1.13 -0.32,-1.44 -0.21,-0.32 -0.54,-0.47 -0.99,-0.47 -0.47,0 -0.8,0.15 -1.02,0.47 -0.21,0.31 -0.32,0.8 -0.32,1.44 0,0.65 0.11,1.14 0.32,1.46 0.22,0.31 0.55,0.47 1.02,0.47z"/>
   <path id="9" fill="white" fill-rule="nonzero" d="M68.57 17.82l0 -5.2 -0.43 -0.09c-0.14,-0.03 -0.26,-0.09 -0.35,-0.16 -0.09,-0.07 -0.14,-0.18 -0.14,-0.31l0 -0.77 0.92 0 0 -0.38c0,-0.37 0.06,-0.71 0.18,-1.01 0.12,-0.31 0.3,-0.56 0.52,-0.78 0.23,-0.21 0.5,-0.38 0.82,-0.5 0.33,-0.12 0.7,-0.17 1.11,-0.17 0.16,0 0.31,0.01 0.44,0.03 0.14,0.02 0.28,0.06 0.43,0.1l-0.04 0.95c0,0.06 -0.02,0.12 -0.05,0.16 -0.03,0.04 -0.07,0.08 -0.12,0.1 -0.05,0.03 -0.1,0.05 -0.15,0.06 -0.06,0.02 -0.12,0.02 -0.17,0.02 -0.17,0 -0.33,0.02 -0.46,0.05 -0.14,0.04 -0.25,0.1 -0.34,0.18 -0.09,0.09 -0.16,0.2 -0.21,0.34 -0.04,0.14 -0.06,0.32 -0.06,0.54l0 0.31 1.54 0 0 1.33 -1.48 0 0 5.2 -1.96 0z"/>
   <path id="10" fill="white" fill-rule="nonzero" d="M75.15 17.92c-0.31,0 -0.59,-0.04 -0.82,-0.13 -0.24,-0.09 -0.44,-0.22 -0.6,-0.39 -0.17,-0.16 -0.29,-0.37 -0.37,-0.6 -0.09,-0.24 -0.13,-0.5 -0.13,-0.79l0 -3.39 -0.56 0c-0.1,0 -0.18,-0.03 -0.25,-0.09 -0.08,-0.07 -0.11,-0.16 -0.11,-0.29l0 -0.75 1.04 -0.2 0.38 -1.61c0.05,-0.21 0.2,-0.31 0.43,-0.31l1.03 0 0 1.92 1.59 0 0 1.33 -1.59 0 0 3.25c0,0.15 0.03,0.28 0.11,0.38 0.07,0.1 0.18,0.15 0.31,0.15 0.08,0 0.14,-0.01 0.19,-0.03 0.04,-0.01 0.09,-0.03 0.12,-0.05 0.04,-0.02 0.07,-0.03 0.1,-0.05 0.03,-0.01 0.07,-0.02 0.11,-0.02 0.06,0 0.11,0.01 0.15,0.04 0.03,0.03 0.07,0.07 0.1,0.13l0.6 0.94c-0.25,0.19 -0.54,0.33 -0.85,0.42 -0.32,0.1 -0.65,0.14 -0.98,0.14z"/>
   <path id="11" fill="white" fill-rule="nonzero" d="M77.14 11.27l1.57 0c0.14,0 0.26,0.03 0.36,0.1 0.1,0.06 0.16,0.14 0.18,0.24l0.66 2.94c0.05,0.23 0.09,0.44 0.13,0.65 0.05,0.21 0.08,0.42 0.12,0.63 0.06,-0.21 0.12,-0.42 0.19,-0.63 0.06,-0.2 0.12,-0.42 0.19,-0.65l0.82 -2.94c0.02,-0.1 0.08,-0.18 0.18,-0.24 0.1,-0.07 0.21,-0.1 0.33,-0.1l0.88 0c0.13,0 0.25,0.03 0.35,0.1 0.1,0.06 0.16,0.14 0.19,0.24l0.78 2.94c0.06,0.23 0.12,0.44 0.18,0.65 0.06,0.21 0.12,0.43 0.17,0.64 0.04,-0.21 0.08,-0.42 0.13,-0.63 0.05,-0.21 0.1,-0.43 0.15,-0.66l0.7 -2.94c0.02,-0.1 0.08,-0.18 0.18,-0.24 0.1,-0.07 0.21,-0.1 0.33,-0.1l1.49 0 -2.03 6.55 -1.59 0c-0.08,0 -0.16,-0.02 -0.21,-0.07 -0.06,-0.05 -0.11,-0.14 -0.14,-0.25l-0.94 -3.27c-0.04,-0.15 -0.08,-0.29 -0.12,-0.44 -0.03,-0.14 -0.07,-0.28 -0.1,-0.43 -0.03,0.15 -0.06,0.3 -0.09,0.44 -0.04,0.15 -0.08,0.29 -0.13,0.44l-0.95 3.26c-0.06,0.21 -0.2,0.32 -0.41,0.32l-1.52 0 -2.03 -6.55z"/>
   <path id="12" fill="white" fill-rule="nonzero" d="M92.68 17.82c-0.19,0 -0.33,-0.02 -0.42,-0.07 -0.09,-0.05 -0.17,-0.16 -0.24,-0.32l-0.14 -0.36c-0.16,0.14 -0.32,0.26 -0.47,0.37 -0.15,0.1 -0.31,0.19 -0.47,0.27 -0.16,0.07 -0.33,0.12 -0.52,0.16 -0.18,0.04 -0.38,0.05 -0.61,0.05 -0.3,0 -0.57,-0.04 -0.81,-0.11 -0.24,-0.08 -0.45,-0.19 -0.62,-0.35 -0.17,-0.15 -0.3,-0.34 -0.4,-0.56 -0.09,-0.23 -0.14,-0.49 -0.14,-0.79 0,-0.23 0.06,-0.47 0.18,-0.71 0.12,-0.25 0.32,-0.47 0.61,-0.67 0.29,-0.2 0.69,-0.37 1.18,-0.5 0.49,-0.14 1.11,-0.21 1.86,-0.21l0 -0.28c0,-0.38 -0.08,-0.66 -0.24,-0.83 -0.15,-0.17 -0.38,-0.26 -0.67,-0.26 -0.23,0 -0.42,0.02 -0.57,0.07 -0.15,0.06 -0.28,0.11 -0.39,0.17 -0.12,0.07 -0.23,0.12 -0.34,0.18 -0.11,0.05 -0.24,0.07 -0.39,0.07 -0.14,0 -0.25,-0.03 -0.34,-0.1 -0.1,-0.06 -0.17,-0.14 -0.23,-0.24l-0.35 -0.61c0.39,-0.35 0.83,-0.61 1.31,-0.79 0.49,-0.17 1,-0.25 1.55,-0.25 0.4,0 0.76,0.06 1.07,0.19 0.32,0.13 0.59,0.31 0.81,0.54 0.22,0.23 0.39,0.5 0.51,0.82 0.12,0.31 0.17,0.66 0.17,1.03l0 4.09 -0.89 0zm-2.25 -1.2c0.25,0 0.48,-0.04 0.66,-0.13 0.19,-0.08 0.39,-0.22 0.58,-0.42l0 -0.9c-0.39,0 -0.71,0.03 -0.97,0.08 -0.25,0.05 -0.45,0.11 -0.6,0.19 -0.14,0.08 -0.24,0.16 -0.3,0.26 -0.06,0.1 -0.09,0.2 -0.09,0.32 0,0.22 0.06,0.38 0.19,0.47 0.12,0.09 0.3,0.13 0.53,0.13z"/>
   <path id="13" fill="white" fill-rule="nonzero" d="M94.96 17.82l0 -6.55 1.16 0c0.1,0 0.18,0.01 0.25,0.03 0.06,0.02 0.12,0.04 0.16,0.08 0.05,0.03 0.08,0.08 0.1,0.14 0.03,0.06 0.05,0.13 0.06,0.22l0.11 0.61c0.24,-0.37 0.51,-0.66 0.81,-0.88 0.3,-0.22 0.62,-0.32 0.98,-0.32 0.29,0 0.53,0.07 0.71,0.22l-0.25 1.44c-0.01,0.08 -0.05,0.15 -0.1,0.18 -0.05,0.04 -0.12,0.06 -0.2,0.06 -0.07,0 -0.16,-0.01 -0.25,-0.03 -0.1,-0.02 -0.22,-0.03 -0.37,-0.03 -0.51,0 -0.92,0.29 -1.21,0.88l0 3.95 -1.96 0z"/>
   <path id="14" fill="white" fill-rule="nonzero" d="M102.98 11.17c0.43,0 0.83,0.07 1.19,0.2 0.36,0.14 0.67,0.33 0.93,0.59 0.25,0.26 0.46,0.57 0.6,0.94 0.15,0.38 0.22,0.8 0.22,1.27 0,0.15 -0.01,0.27 -0.02,0.36 -0.01,0.09 -0.04,0.17 -0.07,0.22 -0.03,0.05 -0.08,0.09 -0.13,0.11 -0.06,0.02 -0.14,0.04 -0.22,0.04l-3.78 0c0.07,0.54 0.23,0.94 0.5,1.19 0.27,0.25 0.62,0.37 1.04,0.37 0.23,0 0.43,-0.03 0.59,-0.08 0.16,-0.06 0.31,-0.12 0.44,-0.19 0.13,-0.06 0.24,-0.13 0.35,-0.18 0.11,-0.05 0.22,-0.08 0.34,-0.08 0.15,0 0.27,0.06 0.35,0.17l0.57 0.72c-0.2,0.23 -0.42,0.41 -0.65,0.55 -0.24,0.15 -0.48,0.26 -0.72,0.34 -0.25,0.08 -0.49,0.14 -0.74,0.17 -0.25,0.03 -0.48,0.04 -0.7,0.04 -0.46,0 -0.89,-0.07 -1.29,-0.22 -0.41,-0.15 -0.76,-0.37 -1.06,-0.67 -0.3,-0.29 -0.54,-0.66 -0.71,-1.1 -0.18,-0.43 -0.26,-0.94 -0.26,-1.52 0,-0.44 0.07,-0.86 0.22,-1.25 0.15,-0.39 0.37,-0.73 0.65,-1.03 0.27,-0.29 0.61,-0.53 1.01,-0.7 0.4,-0.17 0.85,-0.26 1.35,-0.26zm0.04 1.35c-0.38,0 -0.67,0.11 -0.88,0.32 -0.21,0.21 -0.35,0.52 -0.42,0.92l2.44 0c0,-0.16 -0.02,-0.31 -0.06,-0.45 -0.04,-0.15 -0.1,-0.28 -0.19,-0.4 -0.09,-0.12 -0.21,-0.21 -0.36,-0.28 -0.15,-0.07 -0.32,-0.11 -0.53,-0.11z"/>
   <path fill="#FEFEFE" stroke="#373435" stroke-width="0.26" stroke-miterlimit="22.9256" d="M4.44 15.75l0.41 0 0.04 0 0.66 0 0.61 0 0.41 0 0.6 0 0.31 0 0.12 0 0.11 0 0.23 0 0.17 0.51 0.27 0.79 0.04 0.13 0.06 0.18c0.05,0.13 0.13,0.24 0.25,0.33 0.12,0.08 0.28,0.13 0.46,0.13l0.09 0 1.49 0c0.02,-0.01 0.05,-0.01 0.07,-0.01l-0.44 -1.14 -0.37 -0.95 -0.08 -0.21 -1.29 -3.33 -0.02 -0.06 -0.26 -0.67 -0.09 -0.23 -0.2 -0.52 -0.17 -0.43 -0.2 -0.53 -0.21 -0.54 -0.16 -0.41 -0.07 -0.17 -0.06 0 -1.01 0 -1.02 0 -0.09 0 -0.2 0.52 -1.25 3.22 -0.34 0.88 -0.13 0.35 -0.61 1.56 -0.55 1.44 -0.17 0.44 -0.31 0.79 0.54 0 1.09 0 0.04 0c0.17,0 0.32,-0.05 0.45,-0.15 0.12,-0.09 0.2,-0.2 0.24,-0.31l0.01 -0.03 0.1 -0.31 0.42 -1.21 0.01 -0.06zm0.5 -1.45l0.26 -0.78 0.58 -1.69c0.07,-0.16 0.13,-0.34 0.2,-0.56 0.08,-0.21 0.15,-0.45 0.21,-0.7 0.04,0.12 0.07,0.23 0.1,0.34 0.04,0.12 0.08,0.24 0.12,0.35 0.04,0.1 0.07,0.2 0.1,0.28 0.03,0.1 0.06,0.2 0.09,0.28l0.06 0.18 0.17 0.48 0.62 1.82 -0.32 0 -0.44 0 -0.37 0 -0.52 0 -0.22 0 -0.64 0z"/>
   <path fill="#FEFEFE" stroke="#373435" stroke-width="0.26" stroke-miterlimit="22.9256" d="M13.15 14.44l-0.87 1.34 -0.2 0.31 -0.05 0.07 -0.48 0.75 -0.18 0.28 -0.38 0.59 -0.03 0.04 1.74 0c0.02,0 0.04,0 0.06,0 0.1,-0.01 0.19,-0.04 0.25,-0.1 0.06,-0.05 0.11,-0.1 0.16,-0.16 0.01,-0.03 0.03,-0.05 0.05,-0.08l0.39 -0.66 0.57 -0.97c0.03,-0.05 0.06,-0.11 0.09,-0.17 0.03,-0.06 0.05,-0.11 0.07,-0.17 0,-0.01 0,-0.03 0.01,-0.04l0.02 0.04 0.05 0.08 0.25 0.44 0.19 0.33 0.28 0.48 0.37 0.64c0.06,0.1 0.13,0.18 0.21,0.24 0.01,0.01 0.02,0.02 0.04,0.03 0.07,0.05 0.18,0.07 0.3,0.07l0.97 0 0.91 0 -0.37 -0.58 -0.09 -0.13 -0.01 -0.02 -0.27 -0.44 -0.14 -0.21 -0.24 -0.38 -0.39 -0.63 -0.25 -0.39 -0.44 -0.69 0.94 -1.37 0.89 -1.3 0.28 -0.41 -0.42 0 -0.22 0 -0.77 0 -0.38 0c-0.1,0 -0.18,0.02 -0.25,0.06 -0.01,0.01 -0.01,0.01 -0.02,0.02 -0.06,0.04 -0.11,0.1 -0.16,0.19l-0.02 0.02 -0.59 1.05 -0.23 0.39c-0.02,0.04 -0.04,0.08 -0.06,0.11 -0.02,0.04 -0.04,0.08 -0.06,0.12 -0.04,0.07 -0.07,0.14 -0.1,0.22l-0.22 -0.38 -0.01 -0.01 -0.93 -1.55c-0.04,-0.07 -0.09,-0.12 -0.14,-0.16 -0.01,-0.01 -0.02,-0.01 -0.04,-0.02 -0.06,-0.04 -0.16,-0.06 -0.3,-0.06l-0.36 0 -1.52 0 1.61 2.43 0.26 0.38 0.23 0.34 0 0.02z"/>
   <path fill="#FEFEFE" stroke="#373435" stroke-width="0.26" stroke-miterlimit="22.9256" d="M18.82 13.02l0 3.31 0 1.23 0 0.26 1.63 0 2.04 0c0.55,0 1.04,-0.07 1.47,-0.21 0.31,-0.1 0.59,-0.23 0.83,-0.39 0.09,-0.06 0.18,-0.12 0.26,-0.19 0.14,-0.13 0.27,-0.27 0.39,-0.41 0.1,-0.15 0.2,-0.3 0.27,-0.47 0.12,-0.25 0.19,-0.52 0.21,-0.81 0.01,-0.09 0.02,-0.19 0.02,-0.28 0,-0.52 -0.15,-0.94 -0.44,-1.27 -0.29,-0.33 -0.74,-0.56 -1.34,-0.71 0.28,-0.1 0.51,-0.22 0.71,-0.36 0.2,-0.14 0.36,-0.29 0.49,-0.46 0.12,-0.17 0.22,-0.35 0.28,-0.54 0.05,-0.19 0.08,-0.39 0.08,-0.6 0,-0.18 -0.01,-0.36 -0.04,-0.53 -0.03,-0.17 -0.08,-0.34 -0.15,-0.5 -0.13,-0.31 -0.33,-0.57 -0.61,-0.79 -0.03,-0.02 -0.06,-0.04 -0.08,-0.06 -0.1,-0.07 -0.21,-0.13 -0.33,-0.19 -0.2,-0.1 -0.43,-0.18 -0.69,-0.25 -0.38,-0.1 -0.83,-0.16 -1.36,-0.17 -0.08,-0.01 -0.17,-0.01 -0.26,-0.01l-0.18 0 -0.2 0 -2.9 0 -0.1 0 0 1.37 0 3.03zm2.13 3.19l0 -1.5 0 -0.79 0.71 0 0.78 0c0.27,0 0.49,0.03 0.67,0.08 0.07,0.02 0.13,0.04 0.19,0.07 0.09,0.04 0.17,0.09 0.24,0.14 0.05,0.05 0.09,0.09 0.13,0.15 0.04,0.06 0.07,0.12 0.1,0.19 0.04,0.14 0.06,0.29 0.06,0.46 0,0.14 -0.02,0.29 -0.06,0.43 -0.03,0.14 -0.1,0.27 -0.2,0.39 -0.11,0.11 -0.24,0.2 -0.42,0.27 -0.18,0.07 -0.41,0.11 -0.69,0.11 0,0 0,0 0,0l-1.51 0zm0.71 -3.71l-0.71 0 0 -0.79 0 -1.48 0.41 0 0.68 0 0.16 0c0.24,0 0.45,0.01 0.63,0.05 0.17,0.04 0.31,0.1 0.43,0.19 0.11,0.09 0.19,0.21 0.25,0.35 0.05,0.15 0.08,0.33 0.08,0.55 0,0.22 -0.03,0.41 -0.1,0.55 -0.07,0.15 -0.17,0.27 -0.3,0.35 -0.14,0.08 -0.3,0.14 -0.49,0.18 -0.19,0.03 -0.4,0.05 -0.64,0.05l-0.2 0 -0.04 0 -0.05 0 -0.11 0z"/>
  </g>
 </g>
</svg>
