<svg width="120" height="100" viewBox="0 0 120 58" fill="none" xmlns="http://www.w3.org/2000/svg">
<g filter="url(#filter0_i)">
<path d="M27.2062 29H20.3703V0.5625H27.2062V29ZM39.7414 13.1504L39.9025 15.0107C40.9963 13.5752 42.5051 12.8574 44.4289 12.8574C46.0793 12.8574 47.3098 13.3506 48.1203 14.3369C48.9406 15.3232 49.3654 16.8076 49.3947 18.79V29H44.4436V18.9951C44.4436 18.1943 44.2824 17.6084 43.9602 17.2373C43.6379 16.8564 43.052 16.666 42.2023 16.666C41.2355 16.666 40.5178 17.0469 40.049 17.8086V29H35.1125V13.1504H39.7414ZM61.4621 23.126L63.967 13.1504H69.1672L63.9963 29H58.9572L53.7863 13.1504H59.0012L61.4621 23.126ZM81.1027 29.293C78.6711 29.293 76.7033 28.5703 75.1994 27.125C73.6955 25.6699 72.9436 23.7803 72.9436 21.4561V21.0459C72.9436 19.4248 73.2414 17.9941 73.8371 16.7539C74.4426 15.5137 75.3215 14.5566 76.4738 13.8828C77.6262 13.1992 78.9934 12.8574 80.5754 12.8574C82.802 12.8574 84.5598 13.5508 85.8488 14.9375C87.1379 16.3145 87.7824 18.2383 87.7824 20.709V22.6279H77.968C78.1438 23.5166 78.5295 24.2148 79.1252 24.7227C79.7209 25.2305 80.4924 25.4844 81.4397 25.4844C83.0022 25.4844 84.2229 24.9375 85.1018 23.8438L87.3576 26.5098C86.7424 27.3594 85.8684 28.0381 84.7355 28.5459C83.6125 29.0439 82.4016 29.293 81.1027 29.293ZM80.5461 16.666C79.1008 16.666 78.2414 17.623 77.968 19.5371H82.9484V19.1562C82.968 18.3652 82.7678 17.7549 82.3479 17.3252C81.9279 16.8857 81.3273 16.666 80.5461 16.666ZM101.08 24.5469C101.08 24.127 100.861 23.79 100.421 23.5361C99.9816 23.2822 99.1467 23.0186 97.9162 22.7451C96.6857 22.4717 95.6701 22.1152 94.8693 21.6758C94.0686 21.2266 93.4582 20.6846 93.0383 20.0498C92.6184 19.415 92.4084 18.6875 92.4084 17.8672C92.4084 16.4121 93.009 15.2158 94.2102 14.2783C95.4113 13.3311 96.9836 12.8574 98.927 12.8574C101.017 12.8574 102.696 13.3311 103.966 14.2783C105.236 15.2256 105.87 16.4707 105.87 18.0137H100.919C100.919 16.7441 100.25 16.1094 98.9123 16.1094C98.3947 16.1094 97.9602 16.2559 97.6086 16.5488C97.257 16.832 97.0813 17.1885 97.0813 17.6182C97.0813 18.0576 97.2961 18.4141 97.7258 18.6875C98.1555 18.9609 98.8391 19.1855 99.7766 19.3613C100.724 19.5371 101.554 19.7471 102.267 19.9912C104.65 20.8115 105.841 22.2812 105.841 24.4004C105.841 25.8457 105.196 27.0225 103.907 27.9307C102.628 28.8389 100.968 29.293 98.927 29.293C97.5695 29.293 96.3586 29.0488 95.2941 28.5605C94.2297 28.0723 93.3996 27.4082 92.8039 26.5684C92.2082 25.7285 91.9104 24.8447 91.9104 23.917H96.5246C96.5441 24.6494 96.7883 25.1865 97.257 25.5283C97.7258 25.8604 98.3264 26.0264 99.0588 26.0264C99.7326 26.0264 100.236 25.8896 100.568 25.6162C100.909 25.3428 101.08 24.9863 101.08 24.5469ZM116.912 9.20996V13.1504H119.52V16.5781H116.912V23.8291C116.912 24.4248 117.02 24.8398 117.235 25.0742C117.449 25.3086 117.874 25.4258 118.509 25.4258C118.997 25.4258 119.407 25.3965 119.739 25.3379V28.8682C118.851 29.1514 117.923 29.293 116.956 29.293C115.257 29.293 114.002 28.8926 113.192 28.0918C112.381 27.291 111.976 26.0752 111.976 24.4443V16.5781H109.954V13.1504H111.976V9.20996H116.912ZM14.1836 49.2656L19.8477 28.5625H27.5039L17.9336 57H10.4336L0.941406 28.5625H8.53906L14.1836 49.2656ZM34.0371 57H29.0859V41.1504H34.0371V57ZM28.793 37.0635C28.793 36.3604 29.0469 35.7842 29.5547 35.335C30.0625 34.8857 30.7217 34.6611 31.5322 34.6611C32.3428 34.6611 33.002 34.8857 33.5098 35.335C34.0176 35.7842 34.2715 36.3604 34.2715 37.0635C34.2715 37.7666 34.0176 38.3428 33.5098 38.792C33.002 39.2412 32.3428 39.4658 31.5322 39.4658C30.7217 39.4658 30.0625 39.2412 29.5547 38.792C29.0469 38.3428 28.793 37.7666 28.793 37.0635ZM44.7598 57.293C42.3281 57.293 40.3604 56.5703 38.8564 55.125C37.3525 53.6699 36.6006 51.7803 36.6006 49.4561V49.0459C36.6006 47.4248 36.8984 45.9941 37.4941 44.7539C38.0996 43.5137 38.9785 42.5566 40.1309 41.8828C41.2832 41.1992 42.6504 40.8574 44.2324 40.8574C46.459 40.8574 48.2168 41.5508 49.5059 42.9375C50.7949 44.3145 51.4395 46.2383 51.4395 48.709V50.6279H41.625C41.8008 51.5166 42.1865 52.2148 42.7822 52.7227C43.3779 53.2305 44.1494 53.4844 45.0967 53.4844C46.6592 53.4844 47.8799 52.9375 48.7588 51.8438L51.0146 54.5098C50.3994 55.3594 49.5254 56.0381 48.3926 56.5459C47.2695 57.0439 46.0586 57.293 44.7598 57.293ZM44.2031 44.666C42.7578 44.666 41.8984 45.623 41.625 47.5371H46.6055V47.1562C46.625 46.3652 46.4248 45.7549 46.0049 45.3252C45.585 44.8857 44.9844 44.666 44.2031 44.666ZM67.1279 50.4961L68.7246 41.1504H73.4561L69.7207 57H65.5459L62.9238 47.5957L60.2871 57H56.1123L52.377 41.1504H57.1084L58.6758 50.7158L61.1953 41.1504H64.6377L67.1279 50.4961Z" fill="#F57C00"/>
</g>
<defs>
<filter id="filter0_i" x="0.941406" y="0.5625" width="118.798" height="60.7305" filterUnits="userSpaceOnUse" color-interpolation-filters="sRGB">
<feFlood flood-opacity="0" result="BackgroundImageFix"/>
<feBlend mode="normal" in="SourceGraphic" in2="BackgroundImageFix" result="shape"/>
<feColorMatrix in="SourceAlpha" type="matrix" values="0 0 0 0 0 0 0 0 0 0 0 0 0 0 0 0 0 0 127 0" result="hardAlpha"/>
<feOffset dy="4"/>
<feGaussianBlur stdDeviation="2"/>
<feComposite in2="hardAlpha" operator="arithmetic" k2="-1" k3="1"/>
<feColorMatrix type="matrix" values="0 0 0 0 0 0 0 0 0 0 0 0 0 0 0 0 0 0 0.25 0"/>
<feBlend mode="normal" in2="shape" result="effect1_innerShadow"/>
</filter>
</defs>
</svg>
